<svg xmlns="http://www.w3.org/2000/svg" width="96" height="96" viewBox="0 0 96 96">
  <g id="Grupo_56561" data-name="Grupo 56561" transform="translate(-542 -708)">
    <g id="Grupo_56298" data-name="Grupo 56298" transform="translate(206 318)">
      <g id="Elipse_4085" data-name="Elipse 4085" transform="translate(336 390)" fill="#472ea6" stroke="#2cffe2" stroke-width="3">
        <circle cx="48" cy="48" r="48" stroke="none"/>
        <circle cx="48" cy="48" r="46.5" fill="none"/>
      </g>
    </g>
    <g id="nationality" transform="translate(560 694.691)">
      <path id="Trazado_117784" data-name="Trazado 117784" d="M7.978,93.287H56.426a2.051,2.051,0,0,1,2.051,2.051v40.89a10.609,10.609,0,0,1-4.954,9.006,34.959,34.959,0,0,1-43.058-4.776c-.117-.116.334-.591.218-.708q-1.062-1.075-2.031-2.239c-.1-.118-.764.123-.86,0a34.949,34.949,0,0,1,.185-44.227Z" transform="translate(0 -56.094)" fill="#88e4ea" opacity="0.88"/>
      <path id="Trazado_117785" data-name="Trazado 117785" d="M96.648,97.312h-33A6.649,6.649,0,0,1,57,90.663V43.309H96.648Z" transform="translate(-49.208 -12.949)" fill="#4172cc"/>
      <path id="Trazado_117786" data-name="Trazado 117786" d="M64.793,97.312h-5.12A36.148,36.148,0,0,1,57,94.368V43.309h5.742V95.261A2.051,2.051,0,0,0,64.793,97.312Z" transform="translate(-49.208 -12.949)" fill="#2e5aac"/>
      <path id="Trazado_117787" data-name="Trazado 117787" d="M96.648,32.41h-37.6a2.051,2.051,0,0,1,0-4.1h37.6v1.367a.887.887,0,0,0-.062,1.3l.062.063Z" transform="translate(-49.208 0)" fill="#6990d7"/>
      <path id="Trazado_117788" data-name="Trazado 117788" d="M127.726,39.676H93.684a.684.684,0,1,1,0-1.367h34.042Z" transform="translate(-80.286 -8.633)" fill="#2e5aac"/>
      <path id="Trazado_117789" data-name="Trazado 117789" d="M126.358,108.732A14.233,14.233,0,1,1,112.124,94.5,14.233,14.233,0,0,1,126.358,108.732Z" transform="translate(-84.508 -57.141)" fill="#91aee2"/>
      <path id="Trazado_117790" data-name="Trazado 117790" d="M109.33,105.466c-.565,1.294-3.009.552-5.459,2.857a5.346,5.346,0,0,0-1.9,3.047c-.362,2.7,2.8,3.854,2.984,6.285.135,1.773-1.339,3.89-3.29,5.414a14.237,14.237,0,0,1,4.888-22.747C108.576,101.884,109.847,104.282,109.33,105.466Zm.19,14.918c-.348.8.949,1.4,1.333,3.491a5.765,5.765,0,0,1-.591,3.657,14.363,14.363,0,0,0,1.863.121A14.2,14.2,0,0,0,123,122.6c-.613-.39-1.207-.732-1.74-1.008C116.335,119.037,110.217,118.774,109.52,120.384Zm4.38-1.9c.695.127,3.542.556,7.554-1.777a27.628,27.628,0,0,0,4.9-3.425,14.24,14.24,0,0,0-9.684-13.347c-2.048,1.035-3.551,2.7-3.725,4.33-.23,2.144,1.993,2.743,1.9,5.205-.129,3.583-4.936,5.2-4.317,7.237C110.911,117.935,112.973,118.311,113.9,118.48Z" transform="translate(-84.508 -61.829)" fill="#6990d7"/>
      <path id="Trazado_117791" data-name="Trazado 117791" d="M107.808,89.5a14.917,14.917,0,1,0,12.18,23.52,14.618,14.618,0,0,0,2.737-8.6A14.934,14.934,0,0,0,107.808,89.5Zm10.872,6.839a13.487,13.487,0,0,1,2.448,5.588,23.529,23.529,0,0,1-7.207,2.65c0-.053,0-.107,0-.161a35.317,35.317,0,0,0-.517-6.138,20.065,20.065,0,0,0,5.276-1.94Zm-.889-1.074a18.9,18.9,0,0,1-4.659,1.674,21.455,21.455,0,0,0-.846-2.83,11.156,11.156,0,0,0-1.579-2.929A13.553,13.553,0,0,1,117.791,95.264Zm-14.727,9.555q0-.2,0-.4a33.687,33.687,0,0,1,.493-5.879,26.7,26.7,0,0,0,8.506,0,33.687,33.687,0,0,1,.493,5.879q0,.2,0,.4A31.7,31.7,0,0,1,103.064,104.819Zm9.448,1.389a29.862,29.862,0,0,1-.862,5.985,29.87,29.87,0,0,1-7.683,0,29.864,29.864,0,0,1-.862-5.985,33.353,33.353,0,0,0,9.407,0Zm-4.7-15.342c1.477,0,3.065,2.409,3.979,6.331a25.132,25.132,0,0,1-7.958,0C104.743,93.275,106.331,90.866,107.808,90.866Zm-2.9.312a11.158,11.158,0,0,0-1.579,2.929,21.419,21.419,0,0,0-.846,2.83,18.9,18.9,0,0,1-4.659-1.674A13.555,13.555,0,0,1,104.909,91.178Zm-7.973,5.16a20.064,20.064,0,0,0,5.276,1.94,35.3,35.3,0,0,0-.517,6.138q0,.08,0,.161a23.529,23.529,0,0,1-7.207-2.65,13.485,13.485,0,0,1,2.448-5.588Zm-2.678,8.078q0-.518.039-1.026a25.444,25.444,0,0,0,7.429,2.588,32.539,32.539,0,0,0,.774,5.985,22.28,22.28,0,0,1-7.324-2.643A13.482,13.482,0,0,1,94.258,104.416Zm1.949,6.995a25.3,25.3,0,0,0,6.679,2.007q.205.681.444,1.307a11.158,11.158,0,0,0,1.579,2.93,13.6,13.6,0,0,1-8.7-6.243Zm11.6,6.555c-1.208,0-2.49-1.611-3.417-4.344a31.638,31.638,0,0,0,6.835,0C110.3,116.354,109.016,117.966,107.808,117.966Zm2.9-.312a11.158,11.158,0,0,0,1.579-2.93q.238-.624.444-1.307a25.294,25.294,0,0,0,6.679-2.007A13.6,13.6,0,0,1,110.707,117.654Zm2.409-5.691a32.54,32.54,0,0,0,.774-5.985,25.444,25.444,0,0,0,7.429-2.588q.038.508.039,1.026a13.483,13.483,0,0,1-.918,4.9A22.282,22.282,0,0,1,113.116,111.962Zm-.523,13.6a.684.684,0,0,1-.684.684H98.238a.684.684,0,1,1,0-1.367h13.672A.684.684,0,0,1,112.593,125.566Zm-1.157,2.734a.684.684,0,0,1-.684.684H99.395a.684.684,0,1,1,0-1.367h11.358A.683.683,0,0,1,111.436,128.3Z" transform="translate(-80.192 -52.824)" fill="#fff"/>
      <path id="Trazado_117811" data-name="Trazado 117811" d="M390.492,129.86h-4.785a1.025,1.025,0,1,0,0,2.051h4.785a1.025,1.025,0,1,0,0-2.051Zm-4.9,5.952a1.025,1.025,0,0,0-1.45,1.45l2.368,2.368a1.025,1.025,0,1,0,1.45-1.45Zm0-9.853,2.368-2.368a1.025,1.025,0,0,0-1.45-1.45l-2.368,2.368a1.025,1.025,0,1,0,1.45,1.45Z" transform="translate(-331.362 -80.744)" fill="#fd8f25"/>
    </g>
  </g>
</svg>
