<svg xmlns="http://www.w3.org/2000/svg" width="185" height="186" viewBox="0 0 185 186">
  <g id="Grupo_56562" data-name="Grupo 56562" transform="translate(-1015 -1953.999)">
    <g id="Grupo_53819" data-name="Grupo 53819" transform="translate(1024.519 1963.609)">
      <g id="Elipse_157" data-name="Elipse 157" transform="translate(0.482 0.39)" fill="#2cffe2" stroke="rgba(44,255,226,0.6)" stroke-linejoin="round" stroke-width="10">
        <ellipse cx="82.5" cy="83" rx="82.5" ry="83" stroke="none"/>
        <ellipse cx="82.5" cy="83" rx="87.5" ry="88" fill="none"/>
      </g>
    </g>
    <g id="export" transform="translate(1025 1964.999)">
      <g id="Grupo_53822" data-name="Grupo 53822" transform="translate(0)">
        <path id="Trazado_105022" data-name="Trazado 105022" d="M165,82.5a82.23,82.23,0,0,1-24.064,58.228L126.02,145.9a132.972,132.972,0,0,1-87.046.016L24.1,140.768a82.511,82.511,0,0,1-13.293-99.1.377.377,0,0,1,.05-.083,82.509,82.509,0,0,1,143.286,0,.347.347,0,0,1,.05.083A82.058,82.058,0,0,1,165,82.5Z" transform="translate(0)" fill="#ffe706"/>
        <g id="Grupo_53821" data-name="Grupo 53821" transform="translate(0 41.582)">
          <path id="Trazado_105023" data-name="Trazado 105023" d="M165,169.947a82.224,82.224,0,0,1-24.064,58.228l-14.916,5.172a132.973,132.973,0,0,1-87.046.016L24.1,228.214a82.511,82.511,0,0,1-13.293-99.1.377.377,0,0,1,.05-.083,82.753,82.753,0,0,0,35.392,33.2c1.683.825,3.416,1.6,5.165,2.313q2.142.87,4.337,1.624h0a82.055,82.055,0,0,0,25.92,4.43h1.65a82.257,82.257,0,0,0,20.466-2.77,81.269,81.269,0,0,0,9.794-3.284c1.749-.712,3.482-1.488,5.165-2.313a82.912,82.912,0,0,0,35.392-33.2.346.346,0,0,1,.05.083A82.053,82.053,0,0,1,165,169.947Z" transform="translate(0 -129.028)" fill="#ffbf03"/>
        </g>
      </g>
      <g id="Grupo_53832" data-name="Grupo 53832" transform="translate(14.581 35.307)">
        <g id="Grupo_53825" data-name="Grupo 53825" transform="translate(0 2.905)">
          <g id="Grupo_53824" data-name="Grupo 53824">
            <path id="Trazado_105024" data-name="Trazado 105024" d="M132.64,287.352a104.343,104.343,0,0,1-5.262,13.293,35.184,35.184,0,0,0-6.15,2.425l-20.022,10.175h0a81.891,81.891,0,0,1-29.826-10.493q-2.162-1.272-4.238-2.674a25,25,0,0,0-9.165-18.8l-10.43-8.535h-.02a68.352,68.352,0,0,1,.981-38.364l37.911-6.557,45.18-7.813q1.66,4.682,2.859,9.473.452,1.789.835,3.588a105.787,105.787,0,0,1-2.651,54.285Z" transform="translate(-45.246 -187.317)" fill="#369cef"/>
            <path id="Trazado_105025" data-name="Trazado 105025" d="M190.167,300.644a35.185,35.185,0,0,0-6.15,2.425l-20.025,10.175a81,81,0,0,1-9.542-1.975c-10-12.236-16.56-32.772-16.56-56.044a115.087,115.087,0,0,1,2.879-25.946l8.439-1.461,45.18-7.813q1.655,4.682,2.856,9.473A105.7,105.7,0,0,1,190.167,300.644Z" transform="translate(-108.034 -187.316)" fill="#008add"/>
            <path id="Trazado_105026" data-name="Trazado 105026" d="M323.88,239.532a67.708,67.708,0,0,1-4.735,24.965c-.8,2.011-1.686,3.979-2.657,5.894q-.979,1.913-2.074,3.751a83.225,83.225,0,0,1-11.216,9.426H279.956a35.138,35.138,0,0,0-15.914,3.81l-8.074,4.1V207.505l18.843-8.018A32.93,32.93,0,0,1,289.8,196.92l18.223,1.153,1.806.116v-.01A67.555,67.555,0,0,1,323.88,239.532Z" transform="translate(-188.059 -171.626)" fill="#0077c8"/>
            <path id="Trazado_105027" data-name="Trazado 105027" d="M120.015,118.572l-4.2,13.876A107.58,107.58,0,0,1,89.1,177.193l-7.126,7.16v0a8.065,8.065,0,0,1-1.733-1.383c-3.227-3.386-3.869-8.761-8.027-11.74-3.561-2.6-11.136-4.47-15.567-5.37-.418-.083-.84-.148-1.266-.19,0-.015-.011-.026-.015-.042A67.938,67.938,0,0,1,120.015,118.572Z" transform="translate(-52.105 -118.572)" fill="#66e1d2"/>
            <path id="Trazado_105028" data-name="Trazado 105028" d="M178.9,166.632l-2.926,31.108c-.129-.186-.255-.373-.369-.57-2.174-3.641-1.589-7.833-4.071-11.106a16.564,16.564,0,0,0-12.1-5.827c-3.493.076-6.7,1.79-9.886,3.219-3.691,1.657-8.122,2.926-11.615.9.631-36.475,17.384-65.714,37.972-65.782h.068l2.957,33.02a82.437,82.437,0,0,1-.03,15.04Z" transform="translate(-108.062 -118.572)" fill="#00cec9"/>
            <path id="Trazado_105029" data-name="Trazado 105029" d="M233.715,482.612a2.665,2.665,0,0,1,.179,3.466l-3.048,4.015h-.01a83.117,83.117,0,0,1-11.951-.861,18.391,18.391,0,0,1,7.14-6.643c1.607-.918,3.284-1.839,4.811-2.912L233.7,482.6Z" transform="translate(-162.927 -363.304)" fill="#00cec9"/>
            <path id="Trazado_105030" data-name="Trazado 105030" d="M171.137,357.468l-2.837-6.5,2.363-1.031,2.837,6.5Zm-4-9.156-2.837-6.5,2.363-1.032,2.837,6.5Zm-4-9.156-2.837-6.5,2.363-1.032,2.837,6.5Zm-4-9.156-2.837-6.5,2.363-1.031,2.837,6.5Zm-4-9.156-2.837-6.5,2.363-1.031,2.837,6.5Zm-4-9.156-2.837-6.5,2.363-1.031,2.837,6.5Zm-4-9.156-2.837-6.5L146.681,295l2.837,6.5Z" transform="translate(-112.39 -238.146)" fill="#323b5a"/>
            <path id="Trazado_105031" data-name="Trazado 105031" d="M364.7,334.655l6.232,9.985c1.271,2.037,2.6,4.346,2.1,6.7-.5,2.374-2.8,4.033-5.169,4.529a18.922,18.922,0,0,1-7.217-.369c-4.283-.778-29.847-8.671-17.972-14.374,4.291-2.061,9.2,1.767,13.4-.6C359.469,338.615,360.225,327.481,364.7,334.655Z" transform="translate(-244.713 -263.404)" fill="#00c3b4"/>
            <path id="Trazado_105032" data-name="Trazado 105032" d="M86.14,395.525l-.046.222c-.381.411-.8.8-1.209,1.173-3.065,2.846-5.185,6.613-8.5,9.181-.056.043-.116.089-.176.132A82.856,82.856,0,0,1,59.6,393.354a68.126,68.126,0,0,1-7.22-17.133,15.611,15.611,0,0,1,4.294-2.793c3.227-1.332,7.461-.934,9.549,1.875,1.882,2.528,1.534,6.189,3.32,8.787,1.7,2.468,4.9,3.373,7.872,3.774a52.521,52.521,0,0,1,6.431.838,7.12,7.12,0,0,1,2.293,6.822Z" transform="translate(-50.082 -290.799)" fill="#66e1d2"/>
            <g id="Grupo_53823" data-name="Grupo 53823" transform="translate(67.909 0)">
              <path id="Trazado_105033" data-name="Trazado 105033" d="M303.2,427.212a82.018,82.018,0,0,1-40.5,14.575q-3.325.273-6.72.272h-.01V431.642a13.8,13.8,0,0,0,4.516-4.751c1.342-2.515,1.537-5.46,1.888-8.286s.981-5.805,2.939-7.879,5.656-2.733,7.614-.659c1.637,1.736,1.554,4.7,3.383,6.242,1.988,1.676,4.953.759,7.538.441a14.73,14.73,0,0,1,12.226,4.572c1.325,1.4,2.025,3.134,3.618,4.191a21.5,21.5,0,0,0,3.509,1.7Z" transform="translate(-255.969 -315.27)" fill="#00c3b4"/>
              <path id="Trazado_105034" data-name="Trazado 105034" d="M309.225,144.333a67.794,67.794,0,0,0-53.251-25.761v79.172c1.714,2.451,4.633,4.226,7.548,3.675,4.91-.928,6.526-7.544,4.838-12.246s-5.4-8.4-7.51-12.93-1.862-11.033,2.607-13.26c5.328-2.653,11.835,2.847,17.468.927,6.188-2.1,6.769-11.162,12.158-14.849,4.667-3.189,11.28-1.281,16.373-3.736.125-.061.251-.122.376-.19C309.632,144.873,309.43,144.607,309.225,144.333Z" transform="translate(-255.972 -118.572)" fill="#00c3b4"/>
            </g>
          </g>
        </g>
        <path id="Trazado_105035" data-name="Trazado 105035" d="M153.308,428.051a7.217,7.217,0,0,1-.737,1.026c-.1.114-.2.228-.3.338q-1.243-3.387-2.246-7.043c1.744.433,3.238,1.148,3.721,2.41A3.9,3.9,0,0,1,153.308,428.051Z" transform="translate(-116.255 -321.563)" fill="#00cec9"/>
        <g id="Grupo_53826" data-name="Grupo 53826" transform="translate(18.579 25.286)">
          <path id="Trazado_105036" data-name="Trazado 105036" d="M115.291,217.236l-.16.327-8.65-8.654a12.234,12.234,0,0,1,8.65-20.885A32.81,32.81,0,0,1,115.291,217.236Z" transform="translate(-102.898 -188.023)" fill="#ff3ea8"/>
          <path id="Trazado_105037" data-name="Trazado 105037" d="M149.513,208.907l-8.651,8.652V188.02a12.235,12.235,0,0,1,8.651,20.887Z" transform="translate(-128.627 -188.02)" fill="#ff0074"/>
          <path id="Trazado_105038" data-name="Trazado 105038" d="M126.518,218.471a6.82,6.82,0,1,1,0-13.641l.3.479A11.938,11.938,0,0,1,126.518,218.471Z" transform="translate(-114.285 -199.413)" fill="#fff"/>
          <path id="Trazado_105039" data-name="Trazado 105039" d="M145.684,216.467a6.8,6.8,0,0,1-4.822,2V204.825a6.82,6.82,0,0,1,4.822,11.642Z" transform="translate(-128.627 -199.409)" fill="#d1f6ff"/>
        </g>
        <g id="Grupo_53827" data-name="Grupo 53827" transform="translate(77.396)">
          <path id="Trazado_105040" data-name="Trazado 105040" d="M297.8,138.775l-.16.327-8.65-8.654a12.234,12.234,0,0,1,8.65-20.885A32.81,32.81,0,0,1,297.8,138.775Z" transform="translate(-285.407 -109.561)" fill="#ff3ea8"/>
          <path id="Trazado_105041" data-name="Trazado 105041" d="M332.022,130.445l-8.651,8.652V109.558a12.235,12.235,0,0,1,8.651,20.887Z" transform="translate(-311.136 -109.558)" fill="#ff0074"/>
          <path id="Trazado_105042" data-name="Trazado 105042" d="M309.026,140.01a6.82,6.82,0,1,1,0-13.641l.3.479A11.938,11.938,0,0,1,309.026,140.01Z" transform="translate(-296.794 -120.951)" fill="#fff"/>
          <path id="Trazado_105043" data-name="Trazado 105043" d="M328.193,138.005a6.8,6.8,0,0,1-4.822,2V126.363a6.82,6.82,0,0,1,4.822,11.642Z" transform="translate(-311.136 -120.947)" fill="#d1f6ff"/>
        </g>
        <g id="Grupo_53828" data-name="Grupo 53828" transform="translate(105.947 57.004)">
          <path id="Trazado_105044" data-name="Trazado 105044" d="M386.395,315.658l-.16.327-8.65-8.654a12.234,12.234,0,0,1,8.65-20.885A32.81,32.81,0,0,1,386.395,315.658Z" transform="translate(-374.002 -286.444)" fill="#ff3ea8"/>
          <path id="Trazado_105045" data-name="Trazado 105045" d="M420.618,307.328l-8.651,8.652V286.441a12.235,12.235,0,0,1,8.651,20.887Z" transform="translate(-399.732 -286.441)" fill="#ff0074"/>
          <path id="Trazado_105046" data-name="Trazado 105046" d="M397.623,316.892a6.82,6.82,0,1,1,0-13.641l.3.479A11.938,11.938,0,0,1,397.623,316.892Z" transform="translate(-385.39 -297.834)" fill="#fff"/>
          <path id="Trazado_105047" data-name="Trazado 105047" d="M416.789,314.888a6.8,6.8,0,0,1-4.822,2V303.246a6.82,6.82,0,0,1,4.822,11.642Z" transform="translate(-399.732 -297.83)" fill="#d1f6ff"/>
        </g>
        <g id="Grupo_53829" data-name="Grupo 53829" transform="translate(50.533 97.708)">
          <path id="Trazado_105048" data-name="Trazado 105048" d="M214.444,441.963l-.16.327-8.65-8.654a12.234,12.234,0,0,1,8.65-20.885A32.808,32.808,0,0,1,214.444,441.963Z" transform="translate(-202.051 -412.749)" fill="#ff3ea8"/>
          <path id="Trazado_105049" data-name="Trazado 105049" d="M248.667,433.633l-8.651,8.652V412.746a12.235,12.235,0,0,1,8.651,20.887Z" transform="translate(-227.781 -412.746)" fill="#ff0074"/>
          <path id="Trazado_105050" data-name="Trazado 105050" d="M225.672,443.2a6.82,6.82,0,1,1,0-13.641l.3.479A11.938,11.938,0,0,1,225.672,443.2Z" transform="translate(-213.439 -424.139)" fill="#fff"/>
          <path id="Trazado_105051" data-name="Trazado 105051" d="M244.838,441.193a6.8,6.8,0,0,1-4.822,2V429.551a6.82,6.82,0,0,1,4.822,11.642Z" transform="translate(-227.781 -424.135)" fill="#d1f6ff"/>
        </g>
        <g id="Grupo_53831" data-name="Grupo 53831" transform="translate(35.263 29.737)">
          <g id="Grupo_53830" data-name="Grupo 53830" transform="translate(0 0)">
            <path id="Trazado_105052" data-name="Trazado 105052" d="M0,0H3.545V2.578H0Z" transform="translate(0 21.789) rotate(-23.439)" fill="#323b5a"/>
            <path id="Trazado_105053" data-name="Trazado 105053" d="M173.029,228.741,172,226.375l5.863-2.54,1.025,2.366Zm8.262-3.579-1.025-2.366,5.863-2.54,1.025,2.366Zm8.262-3.579-1.025-2.366,5.863-2.54,1.025,2.366Zm8.262-3.58-1.025-2.366,5.863-2.54,1.025,2.366Zm8.262-3.579-1.025-2.366,5.863-2.54,1.025,2.366Z" transform="translate(-166.417 -207.041)" fill="#323b5a"/>
            <path id="Trazado_105054" data-name="Trazado 105054" d="M0,0H3.545V2.578H0Z" transform="translate(46.968 1.411) rotate(-23.439)" fill="#323b5a"/>
          </g>
          <path id="Trazado_105055" data-name="Trazado 105055" d="M236.069,314.611l-2.2-.824.906-2.414,2.2.824Zm-4.911-1.843-6.638-2.491.906-2.414,6.638,2.491Zm-9.353-3.51-6.638-2.491.906-2.414,6.638,2.491Zm-9.353-3.511-6.638-2.491.906-2.414,6.638,2.491Zm-9.353-3.51-6.638-2.491.906-2.414L204,299.822Zm-9.353-3.51-6.638-2.491.906-2.414,6.638,2.491Zm-9.353-3.511-6.638-2.491.906-2.414L185.3,292.8Zm-9.353-3.51-6.638-2.491.906-2.414,6.638,2.491Zm-9.353-3.51-6.638-2.491.906-2.414,6.638,2.491Z" transform="translate(-157.637 -257.038)" fill="#323b5a"/>
        </g>
      </g>
    </g>
  </g>
</svg>
