<svg xmlns="http://www.w3.org/2000/svg" xmlns:xlink="http://www.w3.org/1999/xlink" width="625.985" height="385.319" viewBox="0 0 625.985 385.319">
  <defs>
    <filter id="Trazado_100770" x="0" y="0" width="625.985" height="385.319" filterUnits="userSpaceOnUse">
      <feOffset dy="3" input="SourceAlpha"/>
      <feGaussianBlur stdDeviation="9.5" result="blur"/>
      <feFlood flood-opacity="0.161"/>
      <feComposite operator="in" in2="blur"/>
      <feComposite in="SourceGraphic"/>
    </filter>
    <linearGradient id="linear-gradient" x1="0.746" y1="1.313" x2="0.322" y2="-0.097" gradientUnits="objectBoundingBox">
      <stop offset="0.08" stop-color="#f0eff2"/>
      <stop offset="1" stop-color="#fff"/>
    </linearGradient>
    <linearGradient id="linear-gradient-2" x1="0.003" y1="1.072" x2="0.995" y2="-0.095" gradientUnits="objectBoundingBox">
      <stop offset="0.04" stop-color="#138bbd"/>
      <stop offset="0.23" stop-color="#169ac7"/>
      <stop offset="0.59" stop-color="#1fc3df"/>
      <stop offset="1" stop-color="#2af6ff"/>
    </linearGradient>
    <linearGradient id="linear-gradient-3" x1="0.579" y1="0.473" x2="-0.269" y2="-0.385" gradientUnits="objectBoundingBox">
      <stop offset="0.04" stop-color="#ffa98c"/>
      <stop offset="0.32" stop-color="#ffb892"/>
      <stop offset="0.86" stop-color="#fee1a3"/>
      <stop offset="1" stop-color="#feeca8"/>
    </linearGradient>
    <linearGradient id="linear-gradient-4" x1="0.99" y1="0.917" x2="-38.653" y2="-33.549" gradientUnits="objectBoundingBox">
      <stop offset="0.04" stop-color="#9f19ab"/>
      <stop offset="0.24" stop-color="#ae25b1"/>
      <stop offset="0.65" stop-color="#d744bf"/>
      <stop offset="1" stop-color="#ff63ce"/>
    </linearGradient>
    <linearGradient id="linear-gradient-5" x1="1.783" y1="1.757" x2="-27.186" y2="-26.674" xlink:href="#linear-gradient-4"/>
    <linearGradient id="linear-gradient-6" x1="2.727" y1="3.214" x2="-25.698" y2="-29.9" xlink:href="#linear-gradient-4"/>
    <linearGradient id="linear-gradient-7" x1="1.5" y1="1.513" x2="-7.234" y2="-7.334" xlink:href="#linear-gradient-4"/>
    <linearGradient id="linear-gradient-8" x1="4.84" y1="5.353" x2="-24.022" y2="-27.604" xlink:href="#linear-gradient-4"/>
    <linearGradient id="linear-gradient-9" x1="1.191" y1="1.825" x2="-1.239" y2="-2.739" xlink:href="#linear-gradient-4"/>
    <linearGradient id="linear-gradient-10" x1="12.657" y1="13.127" x2="-16.826" y2="-17.634" xlink:href="#linear-gradient-4"/>
    <linearGradient id="linear-gradient-11" x1="4.485" y1="3.669" x2="-3.55" y2="-2.72" xlink:href="#linear-gradient-4"/>
    <linearGradient id="linear-gradient-12" x1="25.45" y1="13.397" x2="-17.574" y2="-8.996" xlink:href="#linear-gradient-4"/>
    <linearGradient id="linear-gradient-13" x1="7.48" y1="6.739" x2="-3.735" y2="-3.602" xlink:href="#linear-gradient-4"/>
    <linearGradient id="linear-gradient-14" x1="20.337" y1="21.122" x2="-9.051" y2="-9.462" xlink:href="#linear-gradient-4"/>
    <linearGradient id="linear-gradient-15" x1="22.25" y1="16.368" x2="-8.266" y2="-5.893" xlink:href="#linear-gradient-4"/>
    <linearGradient id="linear-gradient-16" x1="31.419" y1="18.621" x2="-9.886" y2="-5.728" xlink:href="#linear-gradient-4"/>
    <linearGradient id="linear-gradient-17" x1="5.726" y1="6.055" x2="-1.598" y2="-1.734" xlink:href="#linear-gradient-4"/>
    <linearGradient id="linear-gradient-18" x1="28.584" y1="15.038" x2="-12.737" y2="-6.301" xlink:href="#linear-gradient-4"/>
    <linearGradient id="linear-gradient-19" x1="35.5" y1="13.968" x2="-14.309" y2="-5.197" xlink:href="#linear-gradient-4"/>
    <linearGradient id="linear-gradient-20" x1="30.621" y1="16.271" x2="-10.888" y2="-5.517" xlink:href="#linear-gradient-4"/>
    <linearGradient id="linear-gradient-21" x1="25.073" y1="22.479" x2="-9.449" y2="-8.388" xlink:href="#linear-gradient-4"/>
    <linearGradient id="linear-gradient-22" x1="20.191" y1="23.2" x2="-7.813" y2="-9.077" xlink:href="#linear-gradient-4"/>
    <radialGradient id="radial-gradient" cx="0.488" cy="0.779" r="0.979" gradientTransform="translate(7.577 -64.158) scale(0.51 0.508)" gradientUnits="objectBoundingBox">
      <stop offset="0" stop-color="#c7c8c9"/>
      <stop offset="1" stop-color="#fff"/>
    </radialGradient>
    <linearGradient id="linear-gradient-23" x1="0.834" y1="0.889" x2="0.113" y2="0.011" gradientUnits="objectBoundingBox">
      <stop offset="0.04" stop-color="#9f19ab"/>
      <stop offset="0.16" stop-color="#ae25b1"/>
      <stop offset="0.41" stop-color="#d744bf"/>
      <stop offset="0.63" stop-color="#ff63ce"/>
      <stop offset="0.87" stop-color="#dc48c1"/>
    </linearGradient>
    <linearGradient id="linear-gradient-24" x1="-0.295" y1="0.788" x2="1.105" y2="0.153" xlink:href="#linear-gradient-4"/>
    <radialGradient id="radial-gradient-2" cx="0.673" cy="0.352" r="0.392" gradientTransform="translate(-0.537) scale(2.075 1)" gradientUnits="objectBoundingBox">
      <stop offset="0" stop-color="#fff"/>
      <stop offset="1" stop-color="#bc6bb6"/>
    </radialGradient>
    <linearGradient id="linear-gradient-25" x1="-20.85" y1="66.308" x2="-21.736" y2="65.787" gradientUnits="objectBoundingBox">
      <stop offset="0" stop-color="#d4d1d8"/>
      <stop offset="1" stop-color="#fff"/>
    </linearGradient>
  </defs>
  <g id="map-01-01" transform="translate(28.5 25.5)">
    <g id="Layer_1" data-name="Layer 1">
      <g transform="matrix(1, 0, 0, 1, -28.5, -25.5)" filter="url(#Trazado_100770)">
        <path id="Trazado_100770-2" data-name="Trazado 100770" d="M347.064,328.319,568.985,198.608,487.8,132.295l-83.645-27.92L322.16,40.785,219.9,0,0,127.688l100.57,40.785,83.263,65.053,82.016,27.729Z" transform="translate(28.5 25.5)" fill="#fff"/>
      </g>
      <path id="Trazado_100771" data-name="Trazado 100771" d="M265.9,254.083l-82.093-27.742L100.7,161.4,11.33,125.16l206-119.62,98.547,39.309,82.131,63.7,83.581,27.894,73.185,59.785L344.6,319.072Z" transform="translate(3.088 1.51)" fill="url(#linear-gradient)"/>
      <path id="Trazado_100772" data-name="Trazado 100772" d="M180.065,57.57l-7.635,4.67,9.328,11.033,13.578-6.8Z" transform="translate(46.997 15.691)" fill="#d1d3d4"/>
      <path id="Trazado_100773" data-name="Trazado 100773" d="M138.7,181.369,185.416,152,201.31,163.82a1.833,1.833,0,0,0,.522.267l9.824,3.321-23.962,14,1.909,3.3,27.589-16.161a1.9,1.9,0,0,0,.942-1.833,1.922,1.922,0,0,0-1.273-1.616l-13.5-4.568L188.9,149.771l13.718-8.615L200.585,138,135.43,178.9Z" transform="translate(36.912 37.613)" fill="#d1d3d4"/>
      <path id="Trazado_100774" data-name="Trazado 100774" d="M66.015,86.517,23.55,111.65,28,113.457,70.393,88.375l-.165-.28,19.3,7.2,1.336-3.576L54.715,78.22,50.439,80.7Z" transform="translate(6.419 21.319)" fill="#d1d3d4"/>
      <path id="Trazado_100775" data-name="Trazado 100775" d="M161.822,101.93a2.074,2.074,0,0,0,.776.165,1.934,1.934,0,0,0,1.018-.293l15.856-9.951L185.4,94.4l34.117,31.585,2.545-2.8-7.979-7.394,41.829-25.629a1.909,1.909,0,0,0,.9-1.463,1.947,1.947,0,0,0-.636-1.6L232.907,66.579l-.242-.178L207.634,50.494l-2.049,3.22,24.9,15.831L242.235,79.9l-40.289,24.586L187.757,91.355A1.769,1.769,0,0,0,187.21,91L133.762,68.208l-1.5,3.461L175.2,89.981l-12.726,7.992L96.464,68.6,122.22,53.14l-1.96-3.27L92.175,66.706l-10.753-4.8L77.35,64.275Zm83.416-19.457,6.528,5.739-40.544,24.866-6.363-5.892Z" transform="translate(21.082 13.592)" fill="#d1d3d4"/>
      <path id="Trazado_100776" data-name="Trazado 100776" d="M327.694,197.16l-2.634,2.749,18.376,17.638,3.423-2Z" transform="translate(88.597 53.737)" fill="#d1d3d4"/>
      <path id="Trazado_100777" data-name="Trazado 100777" d="M220.255,190.844l-2.087-3.194-18.2,11.9,4.607,1.553Z" transform="translate(54.503 51.145)" fill="#d1d3d4"/>
      <path id="Trazado_100778" data-name="Trazado 100778" d="M355.511,151.67a1.909,1.909,0,0,0,1.362,1.514l29.689,8.462,1.056-3.665-28.543-8.157-1.629-9.6,46.474-26.724-3.169-2.545L356.759,136.2l-.878-5.09a1.909,1.909,0,0,0-1.018-1.387l-9.01-4.607,36.319-20.9-4.848-1.616-35.53,20.437-27.653-14.113-1.731,3.4,39.869,20.361Z" transform="translate(85.149 27.964)" fill="#d1d3d4"/>
      <path id="Trazado_100779" data-name="Trazado 100779" d="M269.174,48.38,254.68,56.728l1.9,3.309,15.856-9.124Z" transform="translate(69.414 13.186)" fill="#d1d3d4"/>
      <path id="Trazado_100780" data-name="Trazado 100780" d="M220.576,105.456l51.755-2.125,47.085-9.76,22.906,11.886-39.882,24.6-14.418-3.818L222.7,149.562l-19.941-36.9Z" transform="translate(55.263 25.503)" fill="#cfe4bd"/>
      <path id="Trazado_100781" data-name="Trazado 100781" d="M189.67,3.9,107.59,52.906l30.541,15.271,34.359-14,24.179,1.909,40.722-22.27-3.818-12.089Z" transform="translate(29.324 1.063)" fill="#cfe4bd"/>
      <path id="Trazado_100782" data-name="Trazado 100782" d="M241.175,150.635l-40.085,14,.636,8.272,5.727,15.907,31.814,14,5.726,3.818,3.181,2.545L306.712,221.9l14,9.544,29.269-17.816-14-23.542,14-27.36-13.362-10.817-46.448-21Z" transform="translate(54.808 35.68)" fill="#cfe4bd"/>
      <path id="Trazado_100783" data-name="Trazado 100783" d="M265.887,284.434,300.4,312.939c3.461-18.134,9.633-55.7,11.682-82.334,1.922-24.968-19.343-37.2-30.541-49.2-6.885-7.381-9.481-14.393-12.293-23.033-3.6-11.059-1.5-21.214.929-32.972,2.481-12.089,8.742-27.284,4.581-42.414-4.67-16.963-28.213-25.617-51.449-37.388A122.763,122.763,0,0,1,178.589,6.33L147.17,24.578c15.945,19.19,45.278,28.174,68.2,39.755,14.074,7.1,29.752,20.832,31.419,26.915,2.545,9.226.649,18.388-1.54,29-2.761,13.375-9.837,29.447-4.149,46.932,4.556,14,13.705,23.81,21.773,32.463,11.186,11.987,21.417,18.49,20.361,31.687C281.845,249.337,272.822,270.513,265.887,284.434Z" transform="translate(40.112 1.725)" fill="url(#linear-gradient-2)"/>
      <path id="Trazado_100784" data-name="Trazado 100784" d="M371.284,270.085l94.6-58.538a3.818,3.818,0,0,0,1.807-3.347l-1.209-45.557,25.731-17.459-6.172-5.09-25.578,17.345a3.818,3.818,0,0,0-1.68,3.27l1.273,45.519L365.2,264.88l.076.127-13.5-11.237a3.818,3.818,0,0,0-1.731-.827l-61.2-11.873-6.185-6.172a3.817,3.817,0,0,0-1.362-.878l-78.249-29.027-63.628-55.267,75.081-45.01a3.818,3.818,0,0,0,1.6-4.632L203.7,67.367,258,36.94l28.34,11.173L366.716,111.4a2.889,2.889,0,0,0,.585.382l21.888,11.453-45.048,28.429,4.059,6.452,72.65-45.7-9.366-3.13-15.512,9.76.331-.624-25.146-13.2L290.693,41.814a3.577,3.577,0,0,0-.954-.547L259.2,29.178a3.818,3.818,0,0,0-3.27.216L198.7,61.424l-43.267,3.041L124.46,48.559l-7.839,4.556L146.895,68.64,40,133.591l8.908,3.6L155.8,72.1l40.416-2.851,11.593,30.541-76.8,46.079a3.881,3.881,0,0,0-1.845,2.94,3.818,3.818,0,0,0,1.273,3.22L198.522,211.2a3.817,3.817,0,0,0,1.171.7l23.377,8.666L207.7,230.75l9.175,3.105,15.08-9.939,45.812,17.014,6.363,6.363a3.818,3.818,0,0,0,1.973,1.044l61.388,11.9,32.577,27.118,7-4.085Z" transform="translate(10.902 7.879)" fill="#fee2a6"/>
      <path id="Trazado_100785" data-name="Trazado 100785" d="M385.342,160.08a5.408,5.408,0,0,0-1.349-.865l-53.447-23.542a5.09,5.09,0,0,0-3.754-.153l-87.654,30.872-27.716-22.537a11.173,11.173,0,0,0,2.851-7.317,10.4,10.4,0,0,0-.674-3.614l37.477-20.692,57.443-4.378a4.823,4.823,0,0,0,2.2-.7l52.875-31.381-8.653-6.706L306.559,97.814,249.2,102.179a5.09,5.09,0,0,0-2.074.611l-40.722,22.524a28.187,28.187,0,0,0-12.929-2.952,31.012,31.012,0,0,0-7.381.878l-22.906-18.681a4.963,4.963,0,0,0-1.273-.738L71.543,66,60.51,72.363l96.714,40.569,19.088,15.512a11.453,11.453,0,0,0-3.512,7.992,10.8,10.8,0,0,0,1.54,5.434l-51.182,31.025,8.577,6.706,51.08-31.025a29.372,29.372,0,0,0,10.817,1.972,30.134,30.134,0,0,0,8.488-1.183l32.806,26.724a5.09,5.09,0,0,0,4.9.853l88.455-31.152,50.9,22.41,71.7,64.506,9.226-5.383ZM202.095,138.447a17.549,17.549,0,0,1-8.463,1.934,17.815,17.815,0,0,1-8.577-1.972c-1.553-.9-2.074-1.769-2.074-2.023s.509-1.069,2.011-1.934a17.357,17.357,0,0,1,8.45-1.947,17.727,17.727,0,0,1,8.577,1.985c1.552.891,2.074,1.756,2.074,2.011s-.433,1.12-2,2.036Z" transform="translate(16.492 17.989)" fill="url(#linear-gradient-3)"/>
      <path id="Trazado_100786" data-name="Trazado 100786" d="M378.452,209.126,365.09,195.764l17.816-11.453,21-54.72,7.635-3.181,45.176,36.9Z" transform="translate(99.507 34.454)" fill="#cfe4bd"/>
      <path id="Trazado_100787" data-name="Trazado 100787" d="M119.72,163.763l-32.45-24.179-3.181-24.179-14-8.908L100.631,87.41l47.085,18.452-3.181,8.908L119.72,129.4l-10.817,7,16.543,4.454,5.09,18.452Z" transform="translate(19.103 23.824)" fill="#cfe4bd"/>
      <path id="Trazado_100788" data-name="Trazado 100788" d="M323.8,119.577a1.654,1.654,0,0,1-.649-.14l-2.329-1.043a1.591,1.591,0,1,1,1.273-2.9l2.329,1.031a1.6,1.6,0,0,1-.649,3.054Z" transform="translate(87.146 31.424)" fill="url(#linear-gradient-4)"/>
      <path id="Trazado_100789" data-name="Trazado 100789" d="M318.83,117.352a1.489,1.489,0,0,1-.649-.14l-4.556-2.023a1.591,1.591,0,0,1,1.273-2.914l4.556,2.036a1.591,1.591,0,0,1-.649,3.041Z" transform="translate(85.232 30.57)" fill="url(#linear-gradient-5)"/>
      <path id="Trazado_100790" data-name="Trazado 100790" d="M307.172,114.224a1.591,1.591,0,0,1-.827-2.952L308.521,110A1.591,1.591,0,0,1,310,109.91l2.316,1.043a1.591,1.591,0,1,1-1.273,2.9l-1.552-.7-1.476.891a1.578,1.578,0,0,1-.84.178Z" transform="translate(83.287 29.918)" fill="url(#linear-gradient-6)"/>
      <path id="Trazado_100791" data-name="Trazado 100791" d="M286.152,129.574a1.591,1.591,0,0,1-.827-2.952l4.454-2.7a1.593,1.593,0,0,1,1.654,2.723l-4.467,2.7a1.578,1.578,0,0,1-.814.229Zm8.908-5.408a1.591,1.591,0,0,1-.827-2.952l4.454-2.7a1.591,1.591,0,1,1,1.642,2.723l-4.454,2.7a1.463,1.463,0,0,1-.8.229Zm8.908-5.4a1.591,1.591,0,0,1-.827-2.952l4.467-2.7a1.59,1.59,0,0,1,1.642,2.723l-4.454,2.7a1.629,1.629,0,0,1-.814.229Z" transform="translate(77.557 30.768)" fill="url(#linear-gradient-7)"/>
      <path id="Trazado_100792" data-name="Trazado 100792" d="M281.441,130.119a1.666,1.666,0,0,1-.547-.1l-2.392-.878a1.616,1.616,0,0,1-.942-2.049,1.591,1.591,0,0,1,2.049-.942l1.667.611,1.527-.916a1.591,1.591,0,0,1,1.642,2.723l-2.176,1.273A1.6,1.6,0,0,1,281.441,130.119Z" transform="translate(75.625 34.244)" fill="url(#linear-gradient-8)"/>
      <path id="Trazado_100793" data-name="Trazado 100793" d="M205.975,155.627a1.591,1.591,0,0,1-.534-3.08l4.658-1.642a1.592,1.592,0,0,1,1.056,3l-4.658,1.629A1.553,1.553,0,0,1,205.975,155.627Zm9.3-3.27a1.591,1.591,0,0,1-.535-3.092l4.658-1.642a1.592,1.592,0,1,1,1.056,3l-4.658,1.642a1.553,1.553,0,0,1-.458.089Zm9.3-3.283a1.591,1.591,0,0,1-.534-3.08l4.658-1.642a1.578,1.578,0,0,1,2.023.967,1.6,1.6,0,0,1-.967,2.036l-4.658,1.629a1.45,1.45,0,0,1-.522.089Zm9.3-3.27a1.591,1.591,0,0,1-.522-3.092l4.645-1.642a1.592,1.592,0,0,1,1.056,3l-4.632,1.642a1.565,1.565,0,0,1-.547.115Zm9.3-3.27a1.629,1.629,0,0,1-1.5-1.069,1.6,1.6,0,0,1,.98-2.023l4.645-1.642a1.592,1.592,0,0,1,1.056,3l-4.645,1.629a1.59,1.59,0,0,1-.534.1Zm9.315-3.283a1.591,1.591,0,0,1-.534-3.092l4.658-1.642a1.592,1.592,0,1,1,1.056,3l-4.658,1.642a1.552,1.552,0,0,1-.522.089Zm9.3-3.27a1.591,1.591,0,0,1-.534-3.092l4.658-1.642a1.592,1.592,0,1,1,1.056,3l-4.658,1.629a1.515,1.515,0,0,1-.522.1Zm9.3-3.283a1.591,1.591,0,0,1-.534-3.092l4.658-1.642a1.592,1.592,0,0,1,1.056,3l-4.658,1.642a1.451,1.451,0,0,1-.522.089Zm9.3-3.27a1.591,1.591,0,0,1-.522-3.092l4.645-1.642a1.592,1.592,0,0,1,1.056,3l-4.645,1.591a1.959,1.959,0,0,1-.534.14Zm13.934-1.273a1.642,1.642,0,0,1-.547-.089l-4.645-1.692a1.592,1.592,0,0,1,1.094-2.99l4.632,1.705a1.588,1.588,0,0,1-.534,3.08Z" transform="translate(55.713 33.602)" fill="url(#linear-gradient-9)"/>
      <path id="Trazado_100794" data-name="Trazado 100794" d="M200.853,151.688a1.578,1.578,0,0,1-1.005-.369l-1.972-1.6a1.592,1.592,0,1,1,2.011-2.469l1.273,1.044,1.553-.547a1.592,1.592,0,0,1,1.056,3l-2.392.84a1.591,1.591,0,0,1-.522.1Z" transform="translate(53.772 40.035)" fill="url(#linear-gradient-10)"/>
      <path id="Trazado_100795" data-name="Trazado 100795" d="M201.367,152.1a1.591,1.591,0,0,1-1.005-.356l-3.5-2.851a1.591,1.591,0,0,1,2-2.469l3.512,2.851a1.591,1.591,0,0,1-1.005,2.825Zm-7.012-5.7a1.642,1.642,0,0,1-1.005-.356l-3.512-2.863a1.565,1.565,0,0,1-.229-2.227,1.591,1.591,0,0,1,2.24-.242l3.5,2.863a1.591,1.591,0,0,1-.993,2.825Zm-7.025-5.714a1.565,1.565,0,0,1-1.005-.356l-3.512-2.851a1.6,1.6,0,0,1-.229-2.24,1.578,1.578,0,0,1,2.24-.229l3.512,2.851a1.591,1.591,0,0,1,.229,2.24A1.616,1.616,0,0,1,187.331,140.683Zm-7.025-5.7a1.6,1.6,0,0,1-.993-.356l-3.512-2.863a1.591,1.591,0,0,1,2-2.469l3.512,2.863a1.6,1.6,0,0,1-1.005,2.825Z" transform="translate(47.774 35.159)" fill="url(#linear-gradient-11)"/>
      <path id="Trazado_100796" data-name="Trazado 100796" d="M174.486,130.622a1.565,1.565,0,0,1-1.005-.356l-1.972-1.6a1.616,1.616,0,0,1-.6-1.273,1.591,1.591,0,0,1,.636-1.273,14.8,14.8,0,0,0,1.6-1.553,1.591,1.591,0,1,1,2.38,2.112l-.585.636.547.433a1.591,1.591,0,0,1-1.005,2.825Z" transform="translate(46.582 33.805)" fill="url(#linear-gradient-12)"/>
      <path id="Trazado_100797" data-name="Trazado 100797" d="M179.31,126.537a1.679,1.679,0,0,1-.5-.076,1.6,1.6,0,0,1-1.018-2.011,5.192,5.192,0,0,0,.28-1.654,4.53,4.53,0,0,0-.356-1.769,1.6,1.6,0,0,1,2.927-1.273,7.635,7.635,0,0,1,.611,2.99,8.335,8.335,0,0,1-.433,2.634A1.591,1.591,0,0,1,179.31,126.537Zm-3.016-8.093a1.565,1.565,0,0,1-.967-.331,11.745,11.745,0,0,0-3.614-1.82,1.588,1.588,0,1,1,.954-3.029,14.8,14.8,0,0,1,4.607,2.329,1.616,1.616,0,0,1,.28,2.24,1.552,1.552,0,0,1-1.26.611Zm-8.641-2.927h-.14a31.579,31.579,0,0,0-4.39,0,1.553,1.553,0,0,1-1.692-1.476,1.591,1.591,0,0,1,1.489-1.692,34.433,34.433,0,0,1,4.861,0,1.592,1.592,0,0,1-.127,3.181Z" transform="translate(43.998 30.598)" fill="url(#linear-gradient-13)"/>
      <path id="Trazado_100798" data-name="Trazado 100798" d="M157.847,116.694a1.6,1.6,0,0,1-1.018-.382l-1.947-1.629a1.594,1.594,0,0,1,2.049-2.443l1.273,1.12c.445-.1,1.056-.229,1.807-.356a1.578,1.578,0,0,1,1.845,1.273,1.6,1.6,0,0,1-1.273,1.845c-1.425.255-2.329.5-2.342.5a1.6,1.6,0,0,1-.395.076Z" transform="translate(42.059 30.49)" fill="url(#linear-gradient-14)"/>
      <path id="Trazado_100799" data-name="Trazado 100799" d="M153.628,113.15a1.591,1.591,0,0,1-1.018-.382l-4-3.36a1.591,1.591,0,1,1,2.036-2.431l4.009,3.36a1.578,1.578,0,0,1,.191,2.24,1.553,1.553,0,0,1-1.222.573Z" transform="translate(40.322 29.032)" fill="url(#linear-gradient-15)"/>
      <path id="Trazado_100800" data-name="Trazado 100800" d="M146.869,107.738a1.553,1.553,0,0,1-1.018-.369l-1.947-1.642a1.591,1.591,0,0,1,.229-2.545l2.2-1.273a1.593,1.593,0,1,1,1.654,2.723l-.242.14.216.191a1.578,1.578,0,0,1,.191,2.24A1.6,1.6,0,0,1,146.869,107.738Z" transform="translate(39.077 27.713)" fill="url(#linear-gradient-16)"/>
      <path id="Trazado_100801" data-name="Trazado 100801" d="M149.721,106.429a1.591,1.591,0,0,1-.8-2.965l3.907-2.252a1.591,1.591,0,0,1,1.591,2.749l-3.907,2.265a1.629,1.629,0,0,1-.789.2Zm7.788-4.518a1.578,1.578,0,0,1-1.374-.789,1.6,1.6,0,0,1,.573-2.176l3.907-2.265a1.593,1.593,0,1,1,1.591,2.761l-3.894,2.252A1.514,1.514,0,0,1,157.509,101.912Zm7.788-4.518a1.591,1.591,0,0,1-.8-2.965l3.907-2.265a1.591,1.591,0,0,1,1.591,2.749L166.1,97.178a1.642,1.642,0,0,1-.8.216Zm7.788-4.53a1.578,1.578,0,0,1-1.374-.789A1.6,1.6,0,0,1,172.3,89.9l3.894-2.252a1.591,1.591,0,0,1,1.591,2.749l-3.894,2.252a1.514,1.514,0,0,1-.8.216Z" transform="translate(40.373 23.842)" fill="url(#linear-gradient-17)"/>
      <path id="Trazado_100802" data-name="Trazado 100802" d="M174.2,89.642a1.578,1.578,0,0,1-1.374-.789,1.6,1.6,0,0,1,.585-2.176l1.133-.662-.356-1.273a1.592,1.592,0,1,1,3.067-.853l.687,2.456a1.6,1.6,0,0,1-.738,1.807L175,89.425a1.515,1.515,0,0,1-.8.216Z" transform="translate(47.047 22.547)" fill="url(#linear-gradient-18)"/>
      <path id="Trazado_100803" data-name="Trazado 100803" d="M174.673,83.32a1.6,1.6,0,0,1-1.527-1.158l-1.273-4.518a1.593,1.593,0,1,1,3.067-.865l1.273,4.53a1.565,1.565,0,0,1-1.54,2.011Z" transform="translate(46.828 20.61)" fill="url(#linear-gradient-19)"/>
      <path id="Trazado_100804" data-name="Trazado 100804" d="M172.566,76.011a1.591,1.591,0,0,1-1.527-1.158l-.687-2.456a1.6,1.6,0,0,1,.8-1.832l2.252-1.183a1.591,1.591,0,0,1,1.476,2.812l-1.145.56.344,1.273a1.6,1.6,0,0,1-1.107,1.96A1.679,1.679,0,0,1,172.566,76.011Z" transform="translate(46.415 18.871)" fill="url(#linear-gradient-20)"/>
      <path id="Trazado_100805" data-name="Trazado 100805" d="M177.6,70.574a1.592,1.592,0,0,1-.738-3l3.181-1.553a1.591,1.591,0,1,1,1.476,2.812L178.338,70.4A1.654,1.654,0,0,1,177.6,70.574Z" transform="translate(47.973 17.932)" fill="url(#linear-gradient-21)"/>
      <path id="Trazado_100806" data-name="Trazado 100806" d="M185.176,68.546a6.172,6.172,0,0,1-5.587,0c-1.553-.9-1.553-2.341,0-3.232a6.134,6.134,0,0,1,5.587,0,1.692,1.692,0,0,1,0,3.232Z" transform="translate(48.631 17.618)" fill="url(#linear-gradient-22)"/>
      <path id="Trazado_100807" data-name="Trazado 100807" d="M331.156,199.6l22.906-13.578L326.485,160.57l-8.055,5.523L333.7,183.056l-10.18,6.363Z" transform="translate(86.79 43.764)" fill="#d1d3d4"/>
      <path id="Trazado_100808" data-name="Trazado 100808" d="M286.065,248.77l22.906-13.578-21-18.452-8.068,5.51-1.476,16.34Z" transform="translate(75.888 59.074)" fill="#d1d3d4"/>
      <path id="Trazado_100809" data-name="Trazado 100809" d="M315.338,115.91,297.09,127.363l12.077,6.757,11.5-3.385,12.9,7.228,14-8.055Z" transform="translate(80.974 31.592)" fill="#d1d3d4"/>
      <path id="Trazado_100810" data-name="Trazado 100810" d="M144.18,64.91l-5.09,3.385,24.179,10.613,5.09-5.09L163.7,64.91Z" transform="translate(37.91 17.692)" fill="#d1d3d4"/>
      <path id="Trazado_100811" data-name="Trazado 100811" d="M160.813,156.783l18.248-11.453-7.215-7.215-7.635,4.25L157,135.57l-13.565,8.068Z" transform="translate(39.093 36.95)" fill="#d1d3d4"/>
      <path id="Trazado_100812" data-name="Trazado 100812" d="M256.36,91.726l17.4-11.886L256.36,64.57l-5.93,5.523,9.328,7.2-8.055,6.8Z" transform="translate(68.256 17.599)" fill="#d1d3d4"/>
      <path id="Trazado_100813" data-name="Trazado 100813" d="M362.994,178.384l12.726-8.055-.42-20.361-9.761-1.693-2.545,13.146-4.658,3.4L337.543,146.57l-6.783,3.818Z" transform="translate(90.15 39.948)" fill="#d1d3d4"/>
      <path id="Trazado_100814" data-name="Trazado 100814" d="M205.813,150.269l14-7.215L203.7,111.24l-12.726,6.783-.433,9.341-6.783,5.09Z" transform="translate(50.085 30.319)" fill="#d1d3d4"/>
      <ellipse id="Elipse_4052" data-name="Elipse 4052" cx="33.125" cy="16.9" rx="33.125" ry="16.9" transform="translate(385.088 131.57)" fill="url(#radial-gradient)"/>
      <path id="Trazado_100817" data-name="Trazado 100817" d="M336.824,18.482c-10.74-6.236-20.361-6.426-27.105-1.794l-7.763,3.627.954,4.976a35.073,35.073,0,0,0-2.609,14c0,15.92,8.526,41.027,17.281,62.661l9.175,47.9,10.18-5.09s36.51-30.223,36.51-63.17C373.448,58.39,357.083,30.139,336.824,18.482Z" transform="translate(81.847 3.673)" fill="url(#linear-gradient-23)"/>
      <path id="Trazado_100818" data-name="Trazado 100818" d="M365.5,85.589c0,32.959-36.573,63.233-36.573,63.233S292.35,76.286,292.35,43.353c0-23.186,16.378-32.514,36.573-20.857S365.5,62.352,365.5,85.589Z" transform="translate(79.682 4.763)" fill="url(#linear-gradient-24)"/>
      <path id="Trazado_100819" data-name="Trazado 100819" d="M328.634,21.456c-10.549-6.1-20.03-6.363-26.724-2.062,6.477-2.927,15.016-2.1,24.395,3.321,20.259,11.669,36.586,39.907,36.586,63.144,0,28.251-26.838,54.5-34.524,61.439l.267.534s36.586-30.325,36.586-63.246C365.22,61.364,348.842,33.113,328.634,21.456Z" transform="translate(82.287 4.491)" fill="url(#radial-gradient-2)"/>
      <path id="Trazado_100820" data-name="Trazado 100820" d="M340.4,67.93c0,10.079-7.126,14.151-15.907,9.073S308.59,59.646,308.59,49.567s7.126-14.189,15.907-9.1S340.4,57.851,340.4,67.93Z" transform="translate(84.108 10.434)" fill="url(#linear-gradient-25)"/>
      <path id="Trazado_100821" data-name="Trazado 100821" d="M329.459,74.714c-8.793-5.09-15.907-17.358-15.907-27.436,0-4,1.133-7.025,3.016-8.908-4.734.42-7.928,4.454-7.928,11.2,0,10.079,7.126,22.359,15.907,27.436,5.307,3.067,9.99,2.774,12.878-.14A13.629,13.629,0,0,1,329.459,74.714Z" transform="translate(84.122 10.458)" fill="#d1d3d4"/>
    </g>
  </g>
</svg>
