<svg xmlns="http://www.w3.org/2000/svg" width="96" height="96" viewBox="0 0 96 96">
  <g id="Grupo_56562" data-name="Grupo 56562" transform="translate(-1168 -390)">
    <g id="Grupo_56299" data-name="Grupo 56299" transform="translate(832)">
      <g id="Elipse_4085" data-name="Elipse 4085" transform="translate(336 390)" fill="#472ea6" stroke="#2cffe2" stroke-width="3">
        <circle cx="48" cy="48" r="48" stroke="none"/>
        <circle cx="48" cy="48" r="46.5" fill="none"/>
      </g>
    </g>
    <g id="research_1_" data-name="research (1)" transform="translate(1168 383)">
      <path id="Trazado_117752" data-name="Trazado 117752" d="M0,0H7.543V2.133H0Z" transform="translate(19.509 44.578) rotate(-45)" fill="#bed3f7"/>
      <path id="Trazado_117753" data-name="Trazado 117753" d="M112,128h6.4v2.133H112Z" transform="translate(-83.2 -90.134)" fill="#bed3f7"/>
      <path id="Trazado_117754" data-name="Trazado 117754" d="M0,0H9.834V2.133H0Z" transform="translate(38.769 38.113) rotate(-40.62)" fill="#bed3f7"/>
      <path id="Trazado_117755" data-name="Trazado 117755" d="M51.733,218.133v32a2.133,2.133,0,0,1-2.133,2.133H26.133A2.133,2.133,0,0,1,24,250.133V225.417a2.153,2.153,0,0,1,.625-1.509l7.283-7.283A2.153,2.153,0,0,1,33.417,216H49.6a2.133,2.133,0,0,1,2.133,2.133Z" transform="translate(-6.933 -166.4)" fill="#548aff"/>
      <path id="Trazado_117756" data-name="Trazado 117756" d="M33.79,217.45v6.207a2.133,2.133,0,0,1-2.133,2.133H25.45a2.11,2.11,0,0,1,.432-.625l7.283-7.283A2.11,2.11,0,0,1,33.79,217.45Z" transform="translate(-8.19 -167.657)" fill="#7dafff"/>
      <g id="Grupo_56303" data-name="Grupo 56303" transform="translate(21.333 56)">
        <path id="Trazado_117757" data-name="Trazado 117757" d="M120,264h3.2v2.133H120Z" transform="translate(-111.467 -264)" fill="#4976f2"/>
        <path id="Trazado_117758" data-name="Trazado 117758" d="M176,304h3.2v2.133H176Z" transform="translate(-160 -298.667)" fill="#4976f2"/>
        <path id="Trazado_117759" data-name="Trazado 117759" d="M120,304h5.333v2.133H120Z" transform="translate(-111.467 -298.667)" fill="#4976f2"/>
        <path id="Trazado_117760" data-name="Trazado 117760" d="M56,304h6.4v2.133H56Z" transform="translate(-56 -298.667)" fill="#4976f2"/>
        <path id="Trazado_117761" data-name="Trazado 117761" d="M104,344h12.8v2.133H104Z" transform="translate(-97.6 -333.333)" fill="#4976f2"/>
        <path id="Trazado_117762" data-name="Trazado 117762" d="M56,344h4.267v2.133H56Z" transform="translate(-56 -333.333)" fill="#4976f2"/>
        <path id="Trazado_117763" data-name="Trazado 117763" d="M152,384h6.4v2.133H152Z" transform="translate(-139.2 -368)" fill="#4976f2"/>
        <path id="Trazado_117764" data-name="Trazado 117764" d="M56,384H66.667v2.133H56Z" transform="translate(-56 -368)" fill="#4976f2"/>
        <path id="Trazado_117765" data-name="Trazado 117765" d="M104,424h6.4v2.133H104Z" transform="translate(-97.6 -402.667)" fill="#4976f2"/>
        <path id="Trazado_117766" data-name="Trazado 117766" d="M56,424h4.267v2.133H56Z" transform="translate(-56 -402.667)" fill="#4976f2"/>
      </g>
      <path id="Trazado_117767" data-name="Trazado 117767" d="M280,384h6.4v7.467H280Z" transform="translate(-228.8 -312)" fill="#f5714f"/>
      <path id="Trazado_117768" data-name="Trazado 117768" d="M328,336h6.4v13.867H328Z" transform="translate(-270.4 -270.4)" fill="#4976f2"/>
      <path id="Trazado_117769" data-name="Trazado 117769" d="M376,288h6.4v20.267H376Z" transform="translate(-312 -228.8)" fill="#548aff"/>
      <path id="Trazado_117770" data-name="Trazado 117770" d="M424,240h6.4v26.667H424Z" transform="translate(-353.6 -187.2)" fill="#639aff"/>
      <ellipse id="Elipse_4087" data-name="Elipse 4087" cx="2.5" cy="2" rx="2.5" ry="2" transform="translate(16.4 44.38)" fill="#bed3f7"/>
      <path id="Trazado_117771" data-name="Trazado 117771" d="M19.2,174.4a3.2,3.2,0,1,1,3.2-3.2A3.2,3.2,0,0,1,19.2,174.4Zm0-4.267a1.067,1.067,0,1,0,1.067,1.067A1.067,1.067,0,0,0,19.2,170.133Z" transform="translate(0 -124.8)" fill="#e0edff"/>
      <ellipse id="Elipse_4088" data-name="Elipse 4088" cx="2" cy="1.5" rx="2" ry="1.5" transform="translate(24.4 37.38)" fill="#bed3f7"/>
      <path id="Trazado_117772" data-name="Trazado 117772" d="M75.2,118.4a3.2,3.2,0,1,1,3.2-3.2A3.2,3.2,0,0,1,75.2,118.4Zm0-4.267a1.067,1.067,0,1,0,1.067,1.067A1.067,1.067,0,0,0,75.2,114.133Z" transform="translate(-48.533 -76.267)" fill="#e0edff"/>
      <ellipse id="Elipse_4089" data-name="Elipse 4089" cx="2" cy="1.5" rx="2" ry="1.5" transform="translate(35.4 37.38)" fill="#bed3f7"/>
      <path id="Trazado_117773" data-name="Trazado 117773" d="M155.2,118.4a3.2,3.2,0,1,1,3.2-3.2A3.2,3.2,0,0,1,155.2,118.4Zm0-4.267a1.067,1.067,0,1,0,1.067,1.067A1.067,1.067,0,0,0,155.2,114.133Z" transform="translate(-117.867 -76.267)" fill="#e0edff"/>
      <circle id="Elipse_4090" data-name="Elipse 4090" cx="2.5" cy="2.5" r="2.5" transform="translate(45.4 29.38)" fill="#bed3f7"/>
      <path id="Trazado_117774" data-name="Trazado 117774" d="M235.2,62.4a3.2,3.2,0,1,1,3.2-3.2A3.2,3.2,0,0,1,235.2,62.4Zm0-4.267a1.067,1.067,0,1,0,1.067,1.067A1.067,1.067,0,0,0,235.2,58.133Z" transform="translate(-187.2 -27.734)" fill="#e0edff"/>
      <path id="Trazado_117775" data-name="Trazado 117775" d="M210.667,187.019H200v-2.133h10.225l10.941-10.941,1.509,1.508-11.253,11.253a1.067,1.067,0,0,1-.754.312Z" transform="translate(-159.467 -129.953)" fill="#bed3f7"/>
      <path id="Trazado_117776" data-name="Trazado 117776" d="M321.6,36.8a12.762,12.762,0,1,1-3.738-9.062A12.8,12.8,0,0,1,321.6,36.8Z" transform="translate(-242.667 0)" fill="#ffc431"/>
      <path id="Trazado_117777" data-name="Trazado 117777" d="M404.8,36.8H392V24a12.8,12.8,0,0,1,12.8,12.8Z" transform="translate(-325.867 0)" fill="#548aff"/>
      <path id="Trazado_117778" data-name="Trazado 117778" d="M404.8,120a12.762,12.762,0,0,1-4.3,9.567L392,120Z" transform="translate(-325.867 -83.2)" fill="#f5714f"/>
      <ellipse id="Elipse_4091" data-name="Elipse 4091" cx="2.5" cy="2" rx="2.5" ry="2" transform="translate(36.4 54.38)" fill="#bed3f7"/>
      <path id="Trazado_117779" data-name="Trazado 117779" d="M163.2,246.4a3.2,3.2,0,1,1,3.2-3.2A3.2,3.2,0,0,1,163.2,246.4Zm0-4.267a1.067,1.067,0,1,0,1.067,1.067,1.067,1.067,0,0,0-1.067-1.067Z" transform="translate(-124.8 -187.2)" fill="#e0edff"/>
      <path id="Trazado_117780" data-name="Trazado 117780" d="M200,432h39.467v2.133H200Z" transform="translate(-159.467 -353.6)" fill="#bed3f7"/>
      <ellipse id="Elipse_4092" data-name="Elipse 4092" cx="2" cy="2.5" rx="2" ry="2.5" transform="translate(37.4 77.38)" fill="#bed3f7"/>
      <path id="Trazado_117781" data-name="Trazado 117781" d="M171.2,422.4a3.2,3.2,0,1,1,3.2-3.2A3.2,3.2,0,0,1,171.2,422.4Zm0-4.267a1.067,1.067,0,1,0,1.067,1.067A1.067,1.067,0,0,0,171.2,418.133Z" transform="translate(-131.733 -339.734)" fill="#e0edff"/>
    </g>
  </g>
</svg>
