<svg xmlns="http://www.w3.org/2000/svg" width="1148" height="1056" viewBox="0 0 1148 1056">
  <g id="Grupo_56562" data-name="Grupo 56562" transform="translate(-226 -3070)">
    <path id="Rectángulo_33583" data-name="Rectángulo 33583" d="M22,0H1126a22,22,0,0,1,22,22V1056a0,0,0,0,1,0,0H0a0,0,0,0,1,0,0V22A22,22,0,0,1,22,0Z" transform="translate(226 3070)" fill="#f3f9ff"/>
    <g id="Grupo_17469" data-name="Grupo 17469" transform="translate(-160 -292)">
      <path id="Trazado_36856" data-name="Trazado 36856" d="M0,0H72V152H0Z" transform="translate(503 3757)" fill="#fec02d"/>
      <path id="Trazado_36704" data-name="Trazado 36704" d="M6458,2154h164.524v77.406H6757" transform="translate(-5797 1318)" fill="none" stroke="#ff8f00" stroke-width="2"/>
      <path id="Trazado_36705" data-name="Trazado 36705" d="M6874,2231h54.332v78.276H7000" transform="translate(-5697 1318)" fill="none" stroke="#ff8f00" stroke-width="2"/>
      <path id="Trazado_36859" data-name="Trazado 36859" d="M0,0H72V152H0Z" transform="translate(422 3757)" fill="#fec02d"/>
      <path id="Trazado_36860" data-name="Trazado 36860" d="M6.982-17.639h3.345V0h-3.5V-14.026L2.771-10.254v-3.613Z" transform="translate(451 3842)" fill="#00223d"/>
      <path id="Trazado_36861" data-name="Trazado 36861" d="M6.14-3.137h7.52V0H1.221V-2.649L8.24-9.814a4.417,4.417,0,0,0,1.526-3.04,2.15,2.15,0,0,0-.629-1.636,2.475,2.475,0,0,0-1.776-.6q-2.5,0-2.5,2.844v1.306l-3.5-.354v-.879a5.5,5.5,0,0,1,1.611-4.242,6.171,6.171,0,0,1,4.37-1.5,6.465,6.465,0,0,1,4.254,1.355,4.567,4.567,0,0,1,1.642,3.723,5.28,5.28,0,0,1-.555,2.417,10.1,10.1,0,0,1-1.764,2.356Z" transform="translate(532 3842)" fill="#00223d"/>
      <path id="Trazado_36862" data-name="Trazado 36862" d="M0,0H72V152H0Z" transform="translate(651 3757)" fill="#7030a0"/>
      <path id="Trazado_36863" data-name="Trazado 36863" d="M0,0H72V152H0Z" transform="translate(730 3757)" fill="#7030a0"/>
      <path id="Trazado_36864" data-name="Trazado 36864" d="M7.434.244q-3.3,0-4.81-1.611A6.988,6.988,0,0,1,1.111-6.3l3.6-.159a12.752,12.752,0,0,0,.055,1.294,4.473,4.473,0,0,0,.22,1,1.791,1.791,0,0,0,.464.751,2.108,2.108,0,0,0,.793.433,3.921,3.921,0,0,0,1.19.159,2.86,2.86,0,0,0,2.081-.708,2.475,2.475,0,0,0,.726-1.855,2.5,2.5,0,0,0-.7-1.91,2.619,2.619,0,0,0-1.868-.653H6.995v-2.734h.635A1.909,1.909,0,0,0,9.088-11.3a2.22,2.22,0,0,0,.58-1.575,1.774,1.774,0,0,0-.635-1.465,2.58,2.58,0,0,0-1.672-.513,2.506,2.506,0,0,0-.952.165,1.776,1.776,0,0,0-.641.421,1.862,1.862,0,0,0-.378.647,3.4,3.4,0,0,0-.183.769A7.679,7.679,0,0,0,5.164-12L1.611-12.17a5.647,5.647,0,0,1,1.514-4.242,5.772,5.772,0,0,1,4.2-1.471,6,6,0,0,1,4.028,1.349,4.224,4.224,0,0,1,1.587,3.351,3.814,3.814,0,0,1-.677,2.271A3.879,3.879,0,0,1,10.718-9.57a4.347,4.347,0,0,1,1.123.5,4.6,4.6,0,0,1,.983.842,3.758,3.758,0,0,1,.726,1.282,5.157,5.157,0,0,1,.269,1.709,4.985,4.985,0,0,1-1.746,3.986A6.885,6.885,0,0,1,7.434.244Z" transform="translate(678 3842)" fill="#fff"/>
      <path id="Trazado_36865" data-name="Trazado 36865" d="M14.294-6.482v3.137H12.17V0H8.655V-3.345H.537V-6.494l6.25-11.145H12.17V-6.482Zm-10.5,0H8.655v-9.045Z" transform="translate(761 3842)" fill="#fff"/>
      <path id="Trazado_36866" data-name="Trazado 36866" d="M0,0H72V152H0Z" transform="translate(871 3757)" fill="#fabf8f"/>
      <path id="Trazado_36867" data-name="Trazado 36867" d="M0,0H72V152H0Z" transform="translate(952 3757)" fill="#fabf8f"/>
      <path id="Trazado_36868" data-name="Trazado 36868" d="M7.117-11.438q6.775,0,6.775,5.566A5.946,5.946,0,0,1,12.183-1.41,6.177,6.177,0,0,1,7.678.256,7.472,7.472,0,0,1,4.523-.4,5.445,5.445,0,0,1,2.234-2.338,5.2,5.2,0,0,1,1.367-5.31a5.488,5.488,0,0,1,.073-.879l3.491-.159a5.16,5.16,0,0,0-.085.781A2.375,2.375,0,0,0,5.64-3.619,2.99,2.99,0,0,0,7.6-2.966a2.709,2.709,0,0,0,2.051-.751,2.8,2.8,0,0,0,.72-2.02A2.515,2.515,0,0,0,9.5-7.8a4.707,4.707,0,0,0-2.954-.72H1.917l.732-9.119H13.062V-14.5H5.811l-.232,3.064Z" transform="translate(900 3842)" fill="#00223d"/>
      <path id="Trazado_36869" data-name="Trazado 36869" d="M13.953-5.92a5.75,5.75,0,0,1-.519,2.478,5.847,5.847,0,0,1-1.428,1.959A6.725,6.725,0,0,1,9.912-.226a6.943,6.943,0,0,1-2.5.458,6.929,6.929,0,0,1-2.545-.47A6.268,6.268,0,0,1,2.8-1.526,5.984,5.984,0,0,1,1.44-3.485a5.968,5.968,0,0,1-.5-2.423A7.331,7.331,0,0,1,2.5-10.217L8-17.639h3.992L7.41-11.67a5.947,5.947,0,0,1,.806-.049,5.75,5.75,0,0,1,2.167.415,5.867,5.867,0,0,1,1.825,1.154A5.338,5.338,0,0,1,13.47-8.313,6.17,6.17,0,0,1,13.953-5.92ZM10.51-6.006a3.013,3.013,0,0,0-.854-2.277,3.108,3.108,0,0,0-2.307-.885,2.979,2.979,0,0,0-2.234.891,3.148,3.148,0,0,0-.891,2.222A3.019,3.019,0,0,0,5.042-3.79a3.032,3.032,0,0,0,2.271.861,3.179,3.179,0,0,0,2.295-.854A2.979,2.979,0,0,0,10.51-6.006Z" transform="translate(981 3842)" fill="#00223d"/>
      <path id="Trazado_36870" data-name="Trazado 36870" d="M0,0H72V152H0Z" transform="translate(1086 3757)" fill="#76923d"/>
      <path id="Trazado_36873" data-name="Trazado 36873" d="M0,0H72V152H0Z" transform="translate(1168 3757)" fill="#76923d"/>
      <path id="Trazado_36874" data-name="Trazado 36874" d="M1.355-17.639H13.77v2.71L5.8,0H1.819l8-14.514H1.355Z" transform="translate(1117 3842)" fill="#00223d"/>
      <path id="Trazado_36875" data-name="Trazado 36875" d="M7.5.244A7.058,7.058,0,0,1,2.887-1.233,4.853,4.853,0,0,1,1.074-5.2a4.944,4.944,0,0,1,.739-2.7A5.062,5.062,0,0,1,3.857-9.729,4.468,4.468,0,0,1,2.4-11.23a3.877,3.877,0,0,1-.531-2A4.137,4.137,0,0,1,3.442-16.6,6.194,6.194,0,0,1,7.5-17.883a6.093,6.093,0,0,1,4,1.288,4.144,4.144,0,0,1,1.569,3.363,3.951,3.951,0,0,1-.513,2,4.505,4.505,0,0,1-1.416,1.508A5.036,5.036,0,0,1,13.159-7.9a4.975,4.975,0,0,1,.732,2.7,5.068,5.068,0,0,1-.842,2.9A5.3,5.3,0,0,1,10.76-.4,7.915,7.915,0,0,1,7.5.244Zm0-11a2.345,2.345,0,0,0,1.672-.659,2.135,2.135,0,0,0,.7-1.611,2.083,2.083,0,0,0-.7-1.587A2.369,2.369,0,0,0,7.5-15.259a2.379,2.379,0,0,0-1.691.647,2.091,2.091,0,0,0-.69,1.587,2.138,2.138,0,0,0,.69,1.617A2.367,2.367,0,0,0,7.5-10.754Zm0,7.849A2.947,2.947,0,0,0,9.558-3.65a2.574,2.574,0,0,0,.818-2,2.5,2.5,0,0,0-.824-1.959A2.968,2.968,0,0,0,7.5-8.35a3,3,0,0,0-2.081.739A2.5,2.5,0,0,0,4.59-5.652a2.565,2.565,0,0,0,.824,2A2.987,2.987,0,0,0,7.5-2.905Z" transform="translate(1197 3842)" fill="#00223d"/>
      <path id="Trazado_36880" data-name="Trazado 36880" d="M0,0H72V152H0Z" transform="translate(1344 3757)" fill="#b6dde7"/>
      <path id="Trazado_36884" data-name="Trazado 36884" d="M0,0H72V152H0Z" transform="translate(1426 3757)" fill="#b6dde7"/>
      <path id="Trazado_36881" data-name="Trazado 36881" d="M7.5-17.871a6.82,6.82,0,0,1,3.29.8,6.019,6.019,0,0,1,2.338,2.209,5.924,5.924,0,0,1,.854,3.131,7.207,7.207,0,0,1-1.575,4.3L6.909,0h-4L7.471-5.969a5.844,5.844,0,0,1-.793.049,5.771,5.771,0,0,1-2.8-.7A5.511,5.511,0,0,1,1.776-8.667a5.782,5.782,0,0,1-.812-3.052,5.656,5.656,0,0,1,1.917-4.4A6.627,6.627,0,0,1,7.5-17.871ZM10.669-11.6a3.014,3.014,0,0,0-.812-2.252,3.011,3.011,0,0,0-2.264-.861,3.172,3.172,0,0,0-2.289.861,2.974,2.974,0,0,0-.909,2.216,3.017,3.017,0,0,0,.854,2.271,3.1,3.1,0,0,0,2.307.891A2.954,2.954,0,0,0,9.79-9.363,3.188,3.188,0,0,0,10.669-11.6Z" transform="translate(1371 3842)" fill="#00223d"/>
      <path id="Trazado_36885" data-name="Trazado 36885" d="M6.982-17.639h3.345V0h-3.5V-14.026L2.771-10.254v-3.613ZM22.412.244A5.5,5.5,0,0,1,17.67-2.039q-1.654-2.283-1.654-6.787t1.648-6.787a5.508,5.508,0,0,1,4.749-2.271,5.5,5.5,0,0,1,4.736,2.271Q28.8-13.342,28.8-8.826T27.142-2.039A5.489,5.489,0,0,1,22.412.244Zm0-3.174A2.319,2.319,0,0,0,24.53-4.376a10.071,10.071,0,0,0,.751-4.449,10,10,0,0,0-.757-4.449,2.324,2.324,0,0,0-2.112-1.447q-2.881,0-2.881,5.9T22.412-2.93Z" transform="translate(1449 3842)" fill="#00223d"/>
      <g id="Grupo_17430" data-name="Grupo 17430" transform="translate(-16.5)">
        <path id="Trazado_36706" data-name="Trazado 36706" d="M6248,2751.188h118.151" transform="translate(-5797 1296)" fill="none" stroke="#272727" stroke-width="2"/>
        <path id="Polígono_9" data-name="Polígono 9" d="M6.5,0,13,12H0Z" transform="translate(581.5 4040.5) rotate(90)" fill="#0a0a0a"/>
        <path id="Polígono_10" data-name="Polígono 10" d="M6.5,0,13,12H0Z" transform="translate(438.5 4053.5) rotate(-90)" fill="#0a0a0a"/>
      </g>
      <path id="Trazado_36876" data-name="Trazado 36876" d="M7.7-14.111A4.247,4.247,0,0,1,10.947-12.8a4.569,4.569,0,0,1,1.23,3.247,4.456,4.456,0,0,1-1.221,3.228A4.324,4.324,0,0,1,7.7-5.059H4.756V0H1.826V-14.111Zm-.488,6.6a2.153,2.153,0,0,0,1.611-.552A2.1,2.1,0,0,0,9.355-9.59,2.081,2.081,0,0,0,8.813-11.1a2.134,2.134,0,0,0-1.606-.562H4.756v4.15ZM22.666,0,21.641-2.91H15.713L14.688,0h-3l5.2-14.111h3.584L25.664,0ZM16.572-5.361h4.209l-2.1-5.986ZM35.234,0,31.563-6.211h-.85V0h-2.93V-14.111H32.9a5.919,5.919,0,0,1,2.051.327,3.546,3.546,0,0,1,1.421.908,3.889,3.889,0,0,1,.8,1.333,4.876,4.876,0,0,1,.269,1.65,3.446,3.446,0,0,1-.771,2.319,3.888,3.888,0,0,1-2.217,1.216L38.7,0ZM30.713-11.68v3.369h1.729q2.2,0,2.2-1.68a1.53,1.53,0,0,0-.537-1.24,2.554,2.554,0,0,0-1.66-.449Zm18.32-2.432v2.578h-3.35V0h-2.9V-11.533H39.414v-2.578ZM51.25,0V-14.111h2.93V0Zm6.572,0V-14.111H62.93a7.962,7.962,0,0,1,2.944.508,5.423,5.423,0,0,1,2.109,1.44,6.266,6.266,0,0,1,1.25,2.222,9.172,9.172,0,0,1,.425,2.881,9.206,9.206,0,0,1-.425,2.891,6.266,6.266,0,0,1-1.25,2.222,5.423,5.423,0,0,1-2.109,1.44A7.962,7.962,0,0,1,62.93,0Zm2.93-2.588h2.031a3.466,3.466,0,0,0,2.852-1.147,5.143,5.143,0,0,0,.938-3.325,5.143,5.143,0,0,0-.937-3.325,3.466,3.466,0,0,0-2.852-1.147H60.752ZM81.143,0,80.117-2.91H74.189L73.164,0h-3l5.2-14.111h3.584L84.141,0ZM75.049-5.361h4.209l-2.1-5.986Z" transform="translate(575 4144)" fill="#fec02d"/>
      <g id="Grupo_17431" data-name="Grupo 17431" transform="translate(-16.5 91)">
        <path id="Trazado_36706-2" data-name="Trazado 36706" d="M6248,2751.188h118.151" transform="translate(-5797 1296)" fill="none" stroke="#272727" stroke-width="2"/>
        <path id="Polígono_10-2" data-name="Polígono 10" d="M6.5,0,13,12H0Z" transform="translate(438.5 4053.5) rotate(-90)" fill="#0a0a0a"/>
      </g>
      <g id="Grupo_17432" data-name="Grupo 17432" transform="translate(230.5 91)">
        <path id="Trazado_36706-3" data-name="Trazado 36706" d="M6248,2751.188h118.151" transform="translate(-5797 1296)" fill="none" stroke="#272727" stroke-width="2"/>
        <path id="Polígono_9-2" data-name="Polígono 9" d="M6.5,0,13,12H0Z" transform="translate(581.5 4040.5) rotate(90)" fill="#0a0a0a"/>
      </g>
      <path id="Trazado_36878" data-name="Trazado 36878" d="M6.514.2A6.818,6.818,0,0,1,2.6-.884a4.328,4.328,0,0,1-1.9-3.022L3.721-4.6a2.571,2.571,0,0,0,.933,1.782,3.1,3.1,0,0,0,1.978.62,2.554,2.554,0,0,0,1.543-.435A1.466,1.466,0,0,0,8.76-3.916a1.37,1.37,0,0,0-.5-1.045,3.254,3.254,0,0,0-.991-.64q-.493-.19-1.587-.522-.146-.049-.215-.068-.557-.176-.9-.293t-.845-.327a5.625,5.625,0,0,1-.82-.41,6.006,6.006,0,0,1-.679-.508,2.66,2.66,0,0,1-.566-.649,3.45,3.45,0,0,1-.342-.811A3.577,3.577,0,0,1,1.182-10.2a3.778,3.778,0,0,1,.659-2.222,4.037,4.037,0,0,1,1.777-1.416,6.469,6.469,0,0,1,2.544-.474A8.036,8.036,0,0,1,8-14.1a6.448,6.448,0,0,1,1.646.63,4.031,4.031,0,0,1,1.313,1.162,4.37,4.37,0,0,1,.747,1.714l-2.832.7a2.294,2.294,0,0,0-2.539-2.021,2.78,2.78,0,0,0-1.572.41,1.39,1.39,0,0,0-.615,1.24q0,.771,1.025,1.25a15.28,15.28,0,0,0,1.963.674q.576.176.938.293t.908.342a6.311,6.311,0,0,1,.889.435,6.576,6.576,0,0,1,.742.542,2.919,2.919,0,0,1,.63.7,3.8,3.8,0,0,1,.386.874,3.653,3.653,0,0,1,.156,1.089A4.278,4.278,0,0,1,11.5-2.471a3.464,3.464,0,0,1-.776,1.2,4.508,4.508,0,0,1-1.167.825A5.661,5.661,0,0,1,8.125.044,8.256,8.256,0,0,1,6.514.2Zm13.2,0a7.3,7.3,0,0,1-2.173-.308A5.114,5.114,0,0,1,15.8-1.035a4.13,4.13,0,0,1-1.177-1.611A5.807,5.807,0,0,1,14.2-4.941v-9.17h2.93v8.77a3.067,3.067,0,0,0,.708,2.236,2.531,2.531,0,0,0,1.88.713,2.555,2.555,0,0,0,1.89-.718,3.043,3.043,0,0,0,.718-2.231v-8.77h2.93v9.17a5.807,5.807,0,0,1-.425,2.295,4.108,4.108,0,0,1-1.182,1.611A5.168,5.168,0,0,1,21.9-.112,7.338,7.338,0,0,1,19.717.2ZM36.191-7.451a3.3,3.3,0,0,1,2.656,3.5,3.789,3.789,0,0,1-1.123,2.9A4.64,4.64,0,0,1,34.424,0H28.613V-14.111h4.57a5.177,5.177,0,0,1,3.452,1.021,3.54,3.54,0,0,1,1.2,2.847,3.32,3.32,0,0,1-.415,1.675A2.733,2.733,0,0,1,36.191-7.451ZM33.213-11.68H31.436v3.32h1.9a1.784,1.784,0,0,0,1.348-.469,1.7,1.7,0,0,0,.449-1.23,1.515,1.515,0,0,0-.488-1.177A2.066,2.066,0,0,0,33.213-11.68Zm.664,9.17a2.25,2.25,0,0,0,1.616-.5,1.694,1.694,0,0,0,.513-1.27,1.774,1.774,0,0,0-.518-1.309,2.29,2.29,0,0,0-1.67-.518H31.436V-2.51Zm13.447-11.6A4.247,4.247,0,0,1,50.576-12.8a4.569,4.569,0,0,1,1.23,3.247,4.456,4.456,0,0,1-1.221,3.228,4.324,4.324,0,0,1-3.262,1.265H44.385V0h-2.93V-14.111Zm-.488,6.6a2.153,2.153,0,0,0,1.611-.552,2.1,2.1,0,0,0,.537-1.528,2.081,2.081,0,0,0-.542-1.509,2.134,2.134,0,0,0-1.606-.562H44.385v4.15ZM62.295,0,61.27-2.91H55.342L54.316,0h-3l5.2-14.111H60.1L65.293,0ZM56.2-5.361H60.41l-2.1-5.986ZM74.863,0,71.191-6.211h-.85V0h-2.93V-14.111h5.117a5.919,5.919,0,0,1,2.051.327A3.546,3.546,0,0,1,76-12.876a3.889,3.889,0,0,1,.8,1.333,4.876,4.876,0,0,1,.269,1.65A3.446,3.446,0,0,1,76.3-7.573a3.888,3.888,0,0,1-2.217,1.216L78.33,0ZM70.342-11.68v3.369H72.07q2.2,0,2.2-1.68a1.53,1.53,0,0,0-.537-1.24,2.554,2.554,0,0,0-1.66-.449Zm18.32-2.432v2.578h-3.35V0h-2.9V-11.533H79.043v-2.578ZM90.879,0V-14.111h2.93V0Zm6.572,0V-14.111h5.107a7.962,7.962,0,0,1,2.944.508,5.423,5.423,0,0,1,2.109,1.44,6.266,6.266,0,0,1,1.25,2.222,9.172,9.172,0,0,1,.425,2.881,9.206,9.206,0,0,1-.425,2.891,6.266,6.266,0,0,1-1.25,2.222A5.423,5.423,0,0,1,105.5-.508,7.962,7.962,0,0,1,102.559,0Zm2.93-2.588h2.031a3.466,3.466,0,0,0,2.852-1.147,5.143,5.143,0,0,0,.938-3.325,5.143,5.143,0,0,0-.937-3.325,3.466,3.466,0,0,0-2.852-1.147h-2.031ZM120.771,0l-1.025-2.91h-5.928L112.793,0h-3l5.2-14.111h3.584L123.77,0Zm-6.094-5.361h4.209l-2.1-5.986Z" transform="translate(669 4198)" fill="#fec02d"/>
      <g id="Grupo_17433" data-name="Grupo 17433" transform="translate(-16.5 145)">
        <path id="Trazado_36706-4" data-name="Trazado 36706" d="M6248,2751.188h214.552" transform="translate(-5797 1296)" fill="none" stroke="#272727" stroke-width="2"/>
        <path id="Polígono_10-3" data-name="Polígono 10" d="M6.5,0,13,12H0Z" transform="translate(438.5 4053.5) rotate(-90)" fill="#0a0a0a"/>
      </g>
      <g id="Grupo_17434" data-name="Grupo 17434" transform="translate(808 4185.5)">
        <path id="Trazado_36706-5" data-name="Trazado 36706" d="M6462.552,2751.188H6248" transform="translate(-6248 -2744.5)" fill="none" stroke="#272727" stroke-width="2"/>
        <path id="Polígono_10-4" data-name="Polígono 10" d="M6.5,0,13,12H0Z" transform="translate(227.052) rotate(90)" fill="#0a0a0a"/>
      </g>
      <path id="Trazado_36882" data-name="Trazado 36882" d="M6.514.2A6.818,6.818,0,0,1,2.6-.884a4.328,4.328,0,0,1-1.9-3.022L3.721-4.6a2.571,2.571,0,0,0,.933,1.782,3.1,3.1,0,0,0,1.978.62,2.554,2.554,0,0,0,1.543-.435A1.466,1.466,0,0,0,8.76-3.916a1.37,1.37,0,0,0-.5-1.045,3.254,3.254,0,0,0-.991-.64q-.493-.19-1.587-.522-.146-.049-.215-.068-.557-.176-.9-.293t-.845-.327a5.625,5.625,0,0,1-.82-.41,6.006,6.006,0,0,1-.679-.508,2.66,2.66,0,0,1-.566-.649,3.45,3.45,0,0,1-.342-.811A3.577,3.577,0,0,1,1.182-10.2a3.778,3.778,0,0,1,.659-2.222,4.037,4.037,0,0,1,1.777-1.416,6.469,6.469,0,0,1,2.544-.474A8.036,8.036,0,0,1,8-14.1a6.448,6.448,0,0,1,1.646.63,4.031,4.031,0,0,1,1.313,1.162,4.37,4.37,0,0,1,.747,1.714l-2.832.7a2.294,2.294,0,0,0-2.539-2.021,2.78,2.78,0,0,0-1.572.41,1.39,1.39,0,0,0-.615,1.24q0,.771,1.025,1.25a15.28,15.28,0,0,0,1.963.674q.576.176.938.293t.908.342a6.311,6.311,0,0,1,.889.435,6.576,6.576,0,0,1,.742.542,2.919,2.919,0,0,1,.63.7,3.8,3.8,0,0,1,.386.874,3.653,3.653,0,0,1,.156,1.089A4.278,4.278,0,0,1,11.5-2.471a3.464,3.464,0,0,1-.776,1.2,4.508,4.508,0,0,1-1.167.825A5.661,5.661,0,0,1,8.125.044,8.256,8.256,0,0,1,6.514.2ZM14.492,0V-14.111h2.93V0Zm11.26.2A6.818,6.818,0,0,1,21.836-.884a4.328,4.328,0,0,1-1.9-3.022L22.959-4.6a2.571,2.571,0,0,0,.933,1.782,3.1,3.1,0,0,0,1.978.62,2.554,2.554,0,0,0,1.543-.435A1.466,1.466,0,0,0,28-3.916a1.37,1.37,0,0,0-.5-1.045,3.254,3.254,0,0,0-.991-.64q-.493-.19-1.587-.522-.146-.049-.215-.068-.557-.176-.9-.293t-.845-.327a5.625,5.625,0,0,1-.82-.41,6.006,6.006,0,0,1-.679-.508,2.66,2.66,0,0,1-.566-.649,3.45,3.45,0,0,1-.342-.811A3.577,3.577,0,0,1,20.42-10.2a3.778,3.778,0,0,1,.659-2.222,4.037,4.037,0,0,1,1.777-1.416,6.469,6.469,0,0,1,2.544-.474,8.036,8.036,0,0,1,1.841.205,6.448,6.448,0,0,1,1.646.63A4.031,4.031,0,0,1,30.2-12.31a4.37,4.37,0,0,1,.747,1.714l-2.832.7a2.294,2.294,0,0,0-2.539-2.021A2.78,2.78,0,0,0,24-11.5a1.39,1.39,0,0,0-.615,1.24q0,.771,1.025,1.25a15.28,15.28,0,0,0,1.963.674q.576.176.938.293t.908.342a6.311,6.311,0,0,1,.889.435,6.576,6.576,0,0,1,.742.542,2.919,2.919,0,0,1,.63.7,3.8,3.8,0,0,1,.386.874,3.653,3.653,0,0,1,.156,1.089,4.278,4.278,0,0,1-.283,1.592,3.464,3.464,0,0,1-.776,1.2A4.508,4.508,0,0,1,28.8-.444a5.661,5.661,0,0,1-1.436.488A8.256,8.256,0,0,1,25.752.2Zm16.1-14.307v2.578h-3.35V0h-2.9V-11.533H32.236v-2.578Zm10.4,2.578H47.021v3.2H51.66v2.549H47.021v3.193h5.234V0H44.072V-14.111h8.184ZM71.445,0h-2.92L67.6-10.635,64.023,0H62.129L58.555-10.635,57.617,0h-2.93l1.182-14.111h4.18l3.008,8.857L66.1-14.111h4.18Zm12.51,0L82.93-2.91H77L75.977,0h-3l5.2-14.111h3.584L86.953,0ZM77.861-5.361H82.07l-2.1-5.986ZM103.711,0l-1.025-2.91H96.758L95.732,0h-3l5.2-14.111h3.584L106.709,0ZM97.617-5.361h4.209l-2.1-5.986ZM116.279,0l-3.672-6.211h-.85V0h-2.93V-14.111h5.117a5.919,5.919,0,0,1,2.051.327,3.546,3.546,0,0,1,1.421.908,3.889,3.889,0,0,1,.8,1.333,4.876,4.876,0,0,1,.269,1.65,3.446,3.446,0,0,1-.771,2.319A3.888,3.888,0,0,1,115.5-6.357L119.746,0Zm-4.521-11.68v3.369h1.729q2.2,0,2.2-1.68a1.53,1.53,0,0,0-.537-1.24,2.554,2.554,0,0,0-1.66-.449ZM138.066,0h-2.92l-.928-10.635L130.645,0H128.75l-3.574-10.635L124.238,0h-2.93l1.182-14.111h4.18l3.008,8.857,3.047-8.857h4.18Zm9.316.2a7.671,7.671,0,0,1-3.706-.884A6.407,6.407,0,0,1,141.1-3.232a7.651,7.651,0,0,1-.937-3.828,7.644,7.644,0,0,1,.938-3.833,6.382,6.382,0,0,1,2.573-2.534,7.705,7.705,0,0,1,3.706-.879,7.677,7.677,0,0,1,3.7.879,6.391,6.391,0,0,1,2.568,2.534,7.644,7.644,0,0,1,.938,3.833,7.651,7.651,0,0,1-.937,3.828,6.407,6.407,0,0,1-2.573,2.544A7.65,7.65,0,0,1,147.383.2ZM144.3-3.721a4.145,4.145,0,0,0,3.086,1.23,4.136,4.136,0,0,0,3.086-1.235,4.558,4.558,0,0,0,1.211-3.335,4.528,4.528,0,0,0-1.211-3.32,4.145,4.145,0,0,0-3.086-1.23,4.145,4.145,0,0,0-3.086,1.23,4.528,4.528,0,0,0-1.211,3.32A4.575,4.575,0,0,0,144.3-3.721Zm22.627-10.391h2.92V0h-3.389l-6.25-10.088V0h-2.92V-14.111h3.35l6.289,10.029ZM173.5,0V-14.111h2.93V0Zm9.141-2.588h6.777V0H179.131V-2.314l6.689-9.219h-6.68v-2.578h10.146V-11.8ZM201.543,0l-1.025-2.91H194.59L193.564,0h-3l5.2-14.111h3.584L204.541,0Zm-6.094-5.361h4.209l-2.1-5.986ZM206.66,0V-14.111h5.107a7.962,7.962,0,0,1,2.944.508,5.423,5.423,0,0,1,2.109,1.44,6.266,6.266,0,0,1,1.25,2.222,9.172,9.172,0,0,1,.425,2.881,9.206,9.206,0,0,1-.425,2.891,6.266,6.266,0,0,1-1.25,2.222,5.423,5.423,0,0,1-2.109,1.44A7.962,7.962,0,0,1,211.768,0Zm2.93-2.588h2.031a3.466,3.466,0,0,0,2.852-1.147,5.143,5.143,0,0,0,.938-3.325,5.143,5.143,0,0,0-.937-3.325,3.466,3.466,0,0,0-2.852-1.147H209.59ZM227.49.2a7.671,7.671,0,0,1-3.706-.884,6.407,6.407,0,0,1-2.573-2.544,7.651,7.651,0,0,1-.937-3.828,7.644,7.644,0,0,1,.938-3.833,6.382,6.382,0,0,1,2.573-2.534,7.705,7.705,0,0,1,3.706-.879,7.677,7.677,0,0,1,3.7.879,6.391,6.391,0,0,1,2.568,2.534,7.644,7.644,0,0,1,.938,3.833,7.651,7.651,0,0,1-.937,3.828,6.407,6.407,0,0,1-2.573,2.544A7.65,7.65,0,0,1,227.49.2ZM224.4-3.721a4.145,4.145,0,0,0,3.086,1.23,4.136,4.136,0,0,0,3.086-1.235,4.558,4.558,0,0,0,1.211-3.335,4.528,4.528,0,0,0-1.211-3.32,4.145,4.145,0,0,0-3.086-1.23,4.145,4.145,0,0,0-3.086,1.23,4.528,4.528,0,0,0-1.211,3.32A4.575,4.575,0,0,0,224.4-3.721Z" transform="translate(634 4258)" fill="#4f81bd"/>
      <g id="Grupo_17435" data-name="Grupo 17435" transform="translate(-16.5 205)">
        <path id="Trazado_36706-6" data-name="Trazado 36706" d="M6248,2751.188h179.927" transform="translate(-5797 1296)" fill="none" stroke="#272727" stroke-width="2"/>
        <path id="Polígono_10-5" data-name="Polígono 10" d="M6.5,0,13,12H0Z" transform="translate(438.5 4053.5) rotate(-90)" fill="#0a0a0a"/>
      </g>
      <g id="Grupo_17436" data-name="Grupo 17436" transform="translate(837 4245.5)">
        <path id="Trazado_36706-7" data-name="Trazado 36706" d="M6375.329,2751.188H6248" transform="translate(-6195.401 -2744.5)" fill="none" stroke="#272727" stroke-width="2"/>
        <path id="Polígono_10-6" data-name="Polígono 10" d="M6.5,0,13,12H0Z" transform="translate(192.427) rotate(90)" fill="#0a0a0a"/>
      </g>
      <path id="Trazado_36883" data-name="Trazado 36883" d="M11.465-14.111h2.92V0H11L4.746-10.088V0H1.826V-14.111h3.35L11.465-4.082ZM27.48,0,26.455-2.91H20.527L19.5,0h-3l5.2-14.111h3.584L30.479,0ZM21.387-5.361H25.6l-2.1-5.986Zm20.85-8.75h2.92V0H41.768l-6.25-10.088V0H32.6V-14.111h3.35L42.236-4.082ZM48.809,0V-14.111h5.107a7.962,7.962,0,0,1,2.944.508,5.423,5.423,0,0,1,2.109,1.44,6.266,6.266,0,0,1,1.25,2.222,9.172,9.172,0,0,1,.425,2.881A9.206,9.206,0,0,1,60.22-4.17a6.266,6.266,0,0,1-1.25,2.222A5.423,5.423,0,0,1,56.86-.508,7.962,7.962,0,0,1,53.916,0Zm2.93-2.588H53.77a3.466,3.466,0,0,0,2.852-1.147,5.143,5.143,0,0,0,.938-3.325,5.143,5.143,0,0,0-.937-3.325,3.466,3.466,0,0,0-2.852-1.147H51.738ZM63.389,0V-14.111h2.93V0ZM79.6-14.111h2.92V0H79.131l-6.25-10.088V0h-2.92V-14.111h3.35L79.6-4.082ZM95.615,0,94.59-2.91H88.662L87.637,0h-3l5.2-14.111h3.584L98.613,0ZM89.521-5.361H93.73l-2.1-5.986Z" transform="translate(669 4318)" fill="#fec02d"/>
      <g id="Grupo_17437" data-name="Grupo 17437" transform="translate(-16.5 265)">
        <path id="Trazado_36706-8" data-name="Trazado 36706" d="M6248,2751.188h214.552" transform="translate(-5797 1296)" fill="none" stroke="#272727" stroke-width="2"/>
        <path id="Polígono_10-7" data-name="Polígono 10" d="M6.5,0,13,12H0Z" transform="translate(438.5 4053.5) rotate(-90)" fill="#0a0a0a"/>
      </g>
      <g id="Grupo_17438" data-name="Grupo 17438" transform="translate(900 4305.5)">
        <path id="Trazado_36706-9" data-name="Trazado 36706" d="M6726.886,2751.188H6248" transform="translate(-6365.459 -2744.5)" fill="none" stroke="#272727" stroke-width="2"/>
        <path id="Polígono_10-8" data-name="Polígono 10" d="M6.5,0,13,12H0Z" transform="translate(373.427) rotate(90)" fill="#0a0a0a"/>
      </g>
      <path id="Trazado_36886" data-name="Trazado 36886" d="M11.27,0,10.244-2.91H4.316L3.291,0h-3l5.2-14.111H9.072L14.268,0ZM5.176-5.361H9.385l-2.1-5.986ZM23.838,0,20.166-6.211h-.85V0h-2.93V-14.111H21.5a5.919,5.919,0,0,1,2.051.327,3.546,3.546,0,0,1,1.421.908,3.889,3.889,0,0,1,.8,1.333,4.876,4.876,0,0,1,.269,1.65,3.446,3.446,0,0,1-.771,2.319,3.888,3.888,0,0,1-2.217,1.216L27.3,0ZM19.316-11.68v3.369h1.729q2.2,0,2.2-1.68a1.53,1.53,0,0,0-.537-1.24,2.554,2.554,0,0,0-1.66-.449ZM39.014,0,37.988-2.91H32.061L31.035,0h-3l5.2-14.111h3.584L42.012,0ZM32.92-5.361h4.209l-2.1-5.986Zm20.85-8.75h2.92V0H53.3l-6.25-10.088V0h-2.92V-14.111h3.35L53.77-4.082ZM66.592.2a7.877,7.877,0,0,1-2.876-.518,6.763,6.763,0,0,1-2.29-1.445,6.515,6.515,0,0,1-1.5-2.295,8,8,0,0,1-.547-3,7.644,7.644,0,0,1,.938-3.833,6.382,6.382,0,0,1,2.573-2.534,7.705,7.705,0,0,1,3.706-.879,7.488,7.488,0,0,1,4.141,1.143,6.255,6.255,0,0,1,2.529,3.145l-2.734,1a3.865,3.865,0,0,0-1.514-1.9,4.323,4.323,0,0,0-2.422-.684,4.145,4.145,0,0,0-3.086,1.23,4.528,4.528,0,0,0-1.211,3.32,4.534,4.534,0,0,0,1.216,3.325A4.14,4.14,0,0,0,66.592-2.5a4.307,4.307,0,0,0,2.417-.688A3.883,3.883,0,0,0,70.527-5.1l2.734,1A6.28,6.28,0,0,1,70.732-.952,7.464,7.464,0,0,1,66.592.2ZM83.848-11.533H78.613v3.2h4.639v2.549H78.613v3.193h5.234V0H75.664V-14.111h8.184Zm5.947,8.945h4.424V0H86.865V-14.111h2.93ZM107.9.2a7.877,7.877,0,0,1-2.876-.518,6.763,6.763,0,0,1-2.29-1.445,6.515,6.515,0,0,1-1.5-2.295,8,8,0,0,1-.547-3,7.644,7.644,0,0,1,.938-3.833,6.383,6.383,0,0,1,2.573-2.534,7.705,7.705,0,0,1,3.706-.879,7.488,7.488,0,0,1,4.141,1.143,6.255,6.255,0,0,1,2.529,3.145l-2.734,1a3.865,3.865,0,0,0-1.514-1.9,4.323,4.323,0,0,0-2.422-.684,4.145,4.145,0,0,0-3.086,1.23,4.528,4.528,0,0,0-1.211,3.32,4.534,4.534,0,0,0,1.216,3.325A4.14,4.14,0,0,0,107.9-2.5a4.307,4.307,0,0,0,2.417-.688A3.883,3.883,0,0,0,111.836-5.1l2.734,1a6.28,6.28,0,0,1-2.529,3.149A7.464,7.464,0,0,1,107.9.2Zm15.322,0a7.671,7.671,0,0,1-3.706-.884,6.407,6.407,0,0,1-2.573-2.544,7.651,7.651,0,0,1-.937-3.828,7.644,7.644,0,0,1,.938-3.833,6.383,6.383,0,0,1,2.573-2.534,7.705,7.705,0,0,1,3.706-.879,7.677,7.677,0,0,1,3.7.879,6.391,6.391,0,0,1,2.568,2.534,7.644,7.644,0,0,1,.938,3.833,7.651,7.651,0,0,1-.937,3.828,6.407,6.407,0,0,1-2.573,2.544A7.65,7.65,0,0,1,123.223.2Zm-3.086-3.916a4.145,4.145,0,0,0,3.086,1.23,4.136,4.136,0,0,0,3.086-1.235,4.558,4.558,0,0,0,1.211-3.335,4.528,4.528,0,0,0-1.211-3.32,4.145,4.145,0,0,0-3.086-1.23,4.145,4.145,0,0,0-3.086,1.23,4.528,4.528,0,0,0-1.211,3.32A4.575,4.575,0,0,0,120.137-3.721Zm15.918,1.133h4.424V0h-7.354V-14.111h2.93ZM148.682.2a7.671,7.671,0,0,1-3.706-.884A6.407,6.407,0,0,1,142.4-3.232a7.651,7.651,0,0,1-.937-3.828,7.644,7.644,0,0,1,.938-3.833,6.382,6.382,0,0,1,2.573-2.534,7.705,7.705,0,0,1,3.706-.879,7.677,7.677,0,0,1,3.7.879,6.391,6.391,0,0,1,2.568,2.534,7.644,7.644,0,0,1,.938,3.833,7.651,7.651,0,0,1-.937,3.828,6.407,6.407,0,0,1-2.573,2.544A7.65,7.65,0,0,1,148.682.2ZM145.6-3.721a4.145,4.145,0,0,0,3.086,1.23,4.136,4.136,0,0,0,3.086-1.235,4.558,4.558,0,0,0,1.211-3.335,4.528,4.528,0,0,0-1.211-3.32,4.145,4.145,0,0,0-3.086-1.23,4.145,4.145,0,0,0-3.086,1.23,4.528,4.528,0,0,0-1.211,3.32A4.575,4.575,0,0,0,145.6-3.721ZM174.756,0h-2.92l-.928-10.635L167.334,0h-1.895l-3.574-10.635L160.928,0H158l1.182-14.111h4.18l3.008,8.857,3.047-8.857h4.18ZM185.4-7.451a3.3,3.3,0,0,1,2.656,3.5,3.789,3.789,0,0,1-1.123,2.9,4.64,4.64,0,0,1-3.3,1.06h-5.811V-14.111h4.57a5.177,5.177,0,0,1,3.452,1.021,3.54,3.54,0,0,1,1.2,2.847,3.32,3.32,0,0,1-.415,1.675A2.733,2.733,0,0,1,185.4-7.451Zm-2.979-4.229h-1.777v3.32h1.9a1.784,1.784,0,0,0,1.348-.469,1.7,1.7,0,0,0,.449-1.23,1.515,1.515,0,0,0-.488-1.177A2.066,2.066,0,0,0,182.422-11.68Zm.664,9.17a2.25,2.25,0,0,0,1.616-.5,1.694,1.694,0,0,0,.513-1.27,1.774,1.774,0,0,0-.518-1.309,2.29,2.29,0,0,0-1.67-.518h-2.383V-2.51ZM190.664,0V-14.111h2.93V0ZM206.68,0l-1.025-2.91h-5.928L198.7,0h-3l5.2-14.111h3.584L209.678,0Zm-6.094-5.361h4.209l-2.1-5.986Zm20.85-8.75h2.92V0h-3.389l-6.25-10.088V0H211.8V-14.111h3.35l6.289,10.029ZM234.258.2a7.671,7.671,0,0,1-3.706-.884,6.407,6.407,0,0,1-2.573-2.544,7.651,7.651,0,0,1-.937-3.828,7.644,7.644,0,0,1,.938-3.833,6.382,6.382,0,0,1,2.573-2.534,7.705,7.705,0,0,1,3.706-.879,7.677,7.677,0,0,1,3.7.879,6.391,6.391,0,0,1,2.568,2.534,7.644,7.644,0,0,1,.938,3.833,7.651,7.651,0,0,1-.937,3.828,6.407,6.407,0,0,1-2.573,2.544A7.65,7.65,0,0,1,234.258.2Zm-3.086-3.916a4.145,4.145,0,0,0,3.086,1.23,4.136,4.136,0,0,0,3.086-1.235,4.558,4.558,0,0,0,1.211-3.335,4.528,4.528,0,0,0-1.211-3.32,4.145,4.145,0,0,0-3.086-1.23,4.145,4.145,0,0,0-3.086,1.23,4.528,4.528,0,0,0-1.211,3.32A4.575,4.575,0,0,0,231.172-3.721Z" transform="translate(669 4378)" fill="#fd0d1b"/>
      <g id="Grupo_17439" data-name="Grupo 17439" transform="translate(-16.5 325)">
        <path id="Trazado_36706-10" data-name="Trazado 36706" d="M6248,2751.188h214.552" transform="translate(-5797 1296)" fill="none" stroke="#272727" stroke-width="2"/>
        <path id="Polígono_10-9" data-name="Polígono 10" d="M6.5,0,13,12H0Z" transform="translate(438.5 4053.5) rotate(-90)" fill="#0a0a0a"/>
      </g>
      <g id="Grupo_17440" data-name="Grupo 17440" transform="translate(1060 4365.5)">
        <path id="Trazado_36706-11" data-name="Trazado 36706" d="M6791.46,2751.188H6248" transform="translate(-6365.459 -2744.5)" fill="none" stroke="#272727" stroke-width="2"/>
        <path id="Polígono_10-10" data-name="Polígono 10" d="M6.5,0,13,12H0Z" transform="translate(438) rotate(90)" fill="#0a0a0a"/>
      </g>
      <rect id="Rectángulo_33846" data-name="Rectángulo 33846" width="264" height="62" rx="20" transform="translate(407 3443)" fill="#fd8f25"/>
      <rect id="Rectángulo_33847" data-name="Rectángulo 33847" width="264" height="62" rx="20" transform="translate(914 3518)" fill="#472ea6"/>
      <rect id="Rectángulo_33848" data-name="Rectángulo 33848" width="234" height="62" rx="20" transform="translate(1264 3596)" fill="#bbabf5"/>
    </g>
    <path id="Trazado_125824" data-name="Trazado 125824" d="M21.581,15.221a1.408,1.408,0,0,0-.532-1.172,6.615,6.615,0,0,0-1.87-.869,17.942,17.942,0,0,1-2.187-.869q-2.764-1.357-2.764-3.73A3.345,3.345,0,0,1,14.916,6.5a4.453,4.453,0,0,1,1.948-1.406,7.582,7.582,0,0,1,2.832-.5,6.632,6.632,0,0,1,2.749.547,4.352,4.352,0,0,1,1.89,1.558A4.068,4.068,0,0,1,25.009,9H21.591a1.719,1.719,0,0,0-.532-1.348,2.075,2.075,0,0,0-1.44-.479,2.339,2.339,0,0,0-1.45.405A1.193,1.193,0,0,0,18.222,9.6a7.389,7.389,0,0,0,2.061.918A12.623,12.623,0,0,1,22.7,11.539a4.07,4.07,0,0,1,2.3,3.662,3.472,3.472,0,0,1-1.406,2.93A6.255,6.255,0,0,1,19.745,19.2a7.653,7.653,0,0,1-3.13-.62,4.719,4.719,0,0,1-2.109-1.7,4.428,4.428,0,0,1-.708-2.485h3.438a2.181,2.181,0,0,0,.591,1.685,2.793,2.793,0,0,0,1.919.542,2.206,2.206,0,0,0,1.343-.366A1.209,1.209,0,0,0,21.581,15.221ZM30.087,19h-3.3V8.434h3.3Zm-3.5-13.3A1.482,1.482,0,0,1,27.1,4.54a2.149,2.149,0,0,1,2.637,0A1.482,1.482,0,0,1,30.243,5.7a1.482,1.482,0,0,1-.508,1.159,2.149,2.149,0,0,1-2.637,0A1.482,1.482,0,0,1,26.591,5.7ZM37.646,16.031a.76.76,0,0,0-.439-.674,6.685,6.685,0,0,0-1.67-.527,7.615,7.615,0,0,1-2.031-.718,3.4,3.4,0,0,1-1.221-1.079,2.577,2.577,0,0,1-.42-1.455,2.92,2.92,0,0,1,1.2-2.4,4.948,4.948,0,0,1,3.145-.942,5.482,5.482,0,0,1,3.359.947,2.962,2.962,0,0,1,1.27,2.49h-3.3q0-1.27-1.338-1.27a1.326,1.326,0,0,0-.869.288.892.892,0,0,0-.352.718.819.819,0,0,0,.43.713,4.06,4.06,0,0,0,1.372.449,11.857,11.857,0,0,1,1.655.42,3.007,3.007,0,0,1,2.383,2.939,2.767,2.767,0,0,1-1.284,2.354,5.632,5.632,0,0,1-3.325.908,5.747,5.747,0,0,1-2.422-.488,4.05,4.05,0,0,1-1.66-1.328,3.007,3.007,0,0,1-.6-1.768h3.076a1.272,1.272,0,0,0,.488,1.069,2.009,2.009,0,0,0,1.2.337,1.58,1.58,0,0,0,1.011-.273A.875.875,0,0,0,37.646,16.031ZM46.19,5.807V8.434h1.738v2.285H46.19v4.834a1.234,1.234,0,0,0,.215.83,1.152,1.152,0,0,0,.85.234,4.828,4.828,0,0,0,.82-.059v2.354a6.074,6.074,0,0,1-1.855.283,3.448,3.448,0,0,1-2.51-.8,3.282,3.282,0,0,1-.811-2.432V10.719H41.552V8.434H42.9V5.807ZM54.335,19.2a5.432,5.432,0,0,1-3.936-1.45,5.008,5.008,0,0,1-1.5-3.774V13.7a6.489,6.489,0,0,1,.6-2.861,4.395,4.395,0,0,1,1.753-1.919,5.292,5.292,0,0,1,2.734-.679A4.574,4.574,0,0,1,57.5,9.62a5.43,5.43,0,0,1,1.289,3.853v1.279H52.245a2.372,2.372,0,0,0,.771,1.4,2.3,2.3,0,0,0,1.543.508A2.958,2.958,0,0,0,57,15.563l1.5,1.777a4.2,4.2,0,0,1-1.743,1.353A5.891,5.891,0,0,1,54.335,19.2Zm-.371-8.418q-1.445,0-1.719,1.914h3.32v-.254a1.63,1.63,0,0,0-.4-1.226A1.593,1.593,0,0,0,53.964,10.777Zm9.258-2.344.107,1.24a3.633,3.633,0,0,1,3.018-1.436A2.675,2.675,0,0,1,69.052,9.83a3.517,3.517,0,0,1,3.105-1.592q3.213,0,3.3,3.887V19h-3.3V12.33a2.014,2.014,0,0,0-.273-1.182,1.164,1.164,0,0,0-1-.371,1.559,1.559,0,0,0-1.455.869l.01.137V19h-3.3V12.35a2.117,2.117,0,0,0-.264-1.2,1.161,1.161,0,0,0-1.006-.371,1.578,1.578,0,0,0-1.445.869V19H60.136V8.434ZM83.29,19a3.716,3.716,0,0,1-.312-.947A3.06,3.06,0,0,1,80.438,19.2a3.749,3.749,0,0,1-2.539-.9,2.875,2.875,0,0,1-1.045-2.271,2.955,2.955,0,0,1,1.27-2.6,6.468,6.468,0,0,1,3.691-.879h1.016v-.559q0-1.462-1.26-1.462A1.03,1.03,0,0,0,80.4,11.681H77.108a2.95,2.95,0,0,1,1.3-2.487,5.479,5.479,0,0,1,3.325-.956,4.8,4.8,0,0,1,3.193.986,3.429,3.429,0,0,1,1.2,2.705v4.678a4.79,4.79,0,0,0,.449,2.227V19Zm-2.061-2.148a1.836,1.836,0,0,0,1.021-.264,1.653,1.653,0,0,0,.581-.6V14.3h-.957q-1.719,0-1.719,1.543a.942.942,0,0,0,.3.728A1.1,1.1,0,0,0,81.229,16.852ZM98.886,19a3.716,3.716,0,0,1-.312-.947A3.06,3.06,0,0,1,96.034,19.2a3.749,3.749,0,0,1-2.539-.9,2.875,2.875,0,0,1-1.045-2.271,2.955,2.955,0,0,1,1.27-2.6,6.468,6.468,0,0,1,3.691-.879h1.016v-.559q0-1.462-1.26-1.462A1.03,1.03,0,0,0,96,11.681H92.7a2.95,2.95,0,0,1,1.3-2.487,5.479,5.479,0,0,1,3.325-.956,4.8,4.8,0,0,1,3.193.986,3.429,3.429,0,0,1,1.2,2.705v4.678a4.79,4.79,0,0,0,.449,2.227V19Zm-2.061-2.148a1.836,1.836,0,0,0,1.021-.264,1.653,1.653,0,0,0,.581-.6V14.3H97.47q-1.719,0-1.719,1.543a.942.942,0,0,0,.3.728A1.1,1.1,0,0,0,96.825,16.852Zm13.115-5.439-1.084-.078a1.947,1.947,0,0,0-1.992.977V19h-3.291V8.434h3.086l.107,1.357a2.548,2.548,0,0,1,2.314-1.553,3.209,3.209,0,0,1,.918.117Zm4.3-2.979.107,1.24a3.633,3.633,0,0,1,3.018-1.436,2.675,2.675,0,0,1,2.705,1.592,3.517,3.517,0,0,1,3.105-1.592q3.213,0,3.3,3.887V19h-3.3V12.33a2.014,2.014,0,0,0-.273-1.182,1.164,1.164,0,0,0-1-.371,1.559,1.559,0,0,0-1.455.869l.01.137V19h-3.3V12.35a2.117,2.117,0,0,0-.264-1.2,1.161,1.161,0,0,0-1.006-.371,1.578,1.578,0,0,0-1.445.869V19h-3.291V8.434Zm13.7,5.186a6.236,6.236,0,0,1,.615-2.817,4.4,4.4,0,0,1,1.768-1.9,5.323,5.323,0,0,1,2.705-.664,4.858,4.858,0,0,1,3.74,1.47,5.64,5.64,0,0,1,1.367,4v.117a5.472,5.472,0,0,1-1.372,3.921,4.871,4.871,0,0,1-3.716,1.45,4.927,4.927,0,0,1-3.623-1.353,5.29,5.29,0,0,1-1.475-3.667Zm3.291.205a3.932,3.932,0,0,0,.459,2.148,1.529,1.529,0,0,0,1.357.684q1.758,0,1.8-2.705v-.332q0-2.842-1.816-2.842-1.65,0-1.787,2.451Zm11.377-5.391.107,1.24a3.583,3.583,0,0,1,3.018-1.436,3.015,3.015,0,0,1,2.466.986,4.7,4.7,0,0,1,.845,2.969V19h-3.3V12.33a1.783,1.783,0,0,0-.322-1.177,1.491,1.491,0,0,0-1.172-.376,1.569,1.569,0,0,0-1.436.762V19h-3.291V8.434ZM154.335,19h-3.3V8.434h3.3Zm-3.5-13.3a1.482,1.482,0,0,1,.508-1.159,2.149,2.149,0,0,1,2.637,0,1.482,1.482,0,0,1,.508,1.159,1.482,1.482,0,0,1-.508,1.159,2.149,2.149,0,0,1-2.637,0A1.482,1.482,0,0,1,150.839,5.7Zm9.4,10.762h4.814V19h-8.975V17.164l4.688-6.191h-4.482V8.434h8.662v1.777ZM172.606,19a3.716,3.716,0,0,1-.312-.947,3.06,3.06,0,0,1-2.539,1.143,3.749,3.749,0,0,1-2.539-.9,2.875,2.875,0,0,1-1.045-2.271,2.955,2.955,0,0,1,1.27-2.6,6.468,6.468,0,0,1,3.691-.879h1.016v-.559q0-1.462-1.26-1.462a1.03,1.03,0,0,0-1.172,1.158h-3.291a2.95,2.95,0,0,1,1.3-2.487,5.479,5.479,0,0,1,3.325-.956,4.8,4.8,0,0,1,3.193.986,3.429,3.429,0,0,1,1.2,2.705v4.678a4.79,4.79,0,0,0,.449,2.227V19Zm-2.061-2.148a1.836,1.836,0,0,0,1.021-.264,1.653,1.653,0,0,0,.581-.6V14.3h-.957q-1.719,0-1.719,1.543a.942.942,0,0,0,.3.728A1.1,1.1,0,0,0,170.546,16.852Zm6.309-3.213a6.455,6.455,0,0,1,1.084-3.955,3.568,3.568,0,0,1,3.027-1.445,3.035,3.035,0,0,1,2.383,1.113V4h3.3V19H183.69l-.166-1.133a3.116,3.116,0,0,1-2.578,1.328,3.562,3.562,0,0,1-2.988-1.445A6.659,6.659,0,0,1,176.854,13.639Zm3.291.205q0,2.813,1.641,2.813a1.62,1.62,0,0,0,1.563-.918V11.715a1.576,1.576,0,0,0-1.543-.937q-1.523,0-1.65,2.461Zm7.959-.225a6.236,6.236,0,0,1,.615-2.817,4.4,4.4,0,0,1,1.768-1.9,5.323,5.323,0,0,1,2.705-.664,4.858,4.858,0,0,1,3.74,1.47,5.64,5.64,0,0,1,1.367,4v.117a5.472,5.472,0,0,1-1.372,3.921,4.871,4.871,0,0,1-3.716,1.45,4.927,4.927,0,0,1-3.623-1.353,5.29,5.29,0,0,1-1.475-3.667Zm3.291.205a3.932,3.932,0,0,0,.459,2.148,1.529,1.529,0,0,0,1.357.684q1.758,0,1.8-2.705v-.332q0-2.842-1.816-2.842-1.65,0-1.787,2.451Z" transform="translate(274 3169)" fill="#fff"/>
    <path id="Trazado_125827" data-name="Trazado 125827" d="M3.173,19V4.781h4.58a6.737,6.737,0,0,1,3.389.854A6.006,6.006,0,0,1,13.49,8.048a7.283,7.283,0,0,1,.854,3.491v.654a7.325,7.325,0,0,1-.825,3.5A6.032,6.032,0,0,1,11.2,18.116,6.589,6.589,0,0,1,7.851,19ZM6.6,7.428v8.936H7.792a2.666,2.666,0,0,0,2.266-1.05,5.145,5.145,0,0,0,.791-3.12v-.615a5.1,5.1,0,0,0-.791-3.105,2.713,2.713,0,0,0-2.3-1.045ZM19.54,19H16.229V8.434H19.54ZM18.31,4.2h3.477L19.071,7.262l-2.686,0Zm2.959,9.443a7.134,7.134,0,0,1,.527-2.832,4.245,4.245,0,0,1,1.514-1.9A3.99,3.99,0,0,1,25.6,8.238a3.173,3.173,0,0,1,2.578,1.113l.117-.918h2.988V18.6a4.455,4.455,0,0,1-.649,2.427,4.167,4.167,0,0,1-1.88,1.582,6.91,6.91,0,0,1-2.852.552,5.961,5.961,0,0,1-2.251-.439,4.063,4.063,0,0,1-1.665-1.143l1.377-1.934a3.018,3.018,0,0,0,2.422,1.084,1.96,1.96,0,0,0,2.188-2.246V18.15A3.09,3.09,0,0,1,25.585,19.2a3.819,3.819,0,0,1-3.125-1.479,6.13,6.13,0,0,1-1.191-3.96Zm3.3.205a3.759,3.759,0,0,0,.488,2.056,1.541,1.541,0,0,0,1.367.757,1.748,1.748,0,0,0,1.553-.713V11.5a1.7,1.7,0,0,0-1.533-.723,1.551,1.551,0,0,0-1.377.786A4.287,4.287,0,0,0,24.569,13.844ZM36.63,19h-3.3V8.434h3.3Zm-3.5-13.3a1.482,1.482,0,0,1,.508-1.159,2.149,2.149,0,0,1,2.637,0A1.482,1.482,0,0,1,36.786,5.7a1.482,1.482,0,0,1-.508,1.159,2.149,2.149,0,0,1-2.637,0A1.482,1.482,0,0,1,33.134,5.7Zm9.355.107V8.434h1.738v2.285H42.489v4.834a1.234,1.234,0,0,0,.215.83,1.152,1.152,0,0,0,.85.234,4.828,4.828,0,0,0,.82-.059v2.354a6.074,6.074,0,0,1-1.855.283,3.448,3.448,0,0,1-2.51-.8,3.282,3.282,0,0,1-.811-2.432V10.719H37.851V8.434H39.2V5.807Zm2.324,7.813a6.236,6.236,0,0,1,.615-2.817A4.4,4.4,0,0,1,47.2,8.9,5.323,5.323,0,0,1,49.9,8.238a4.858,4.858,0,0,1,3.74,1.47,5.64,5.64,0,0,1,1.367,4v.117a5.472,5.472,0,0,1-1.372,3.921,4.871,4.871,0,0,1-3.716,1.45A4.927,4.927,0,0,1,46.3,17.843a5.29,5.29,0,0,1-1.475-3.667Zm3.291.205a3.932,3.932,0,0,0,.459,2.148,1.529,1.529,0,0,0,1.357.684q1.758,0,1.8-2.705v-.332q0-2.842-1.816-2.842-1.65,0-1.787,2.451Zm13.887,2.207a.76.76,0,0,0-.439-.674,6.685,6.685,0,0,0-1.67-.527,7.615,7.615,0,0,1-2.031-.718,3.4,3.4,0,0,1-1.221-1.079,2.577,2.577,0,0,1-.42-1.455,2.92,2.92,0,0,1,1.2-2.4,4.948,4.948,0,0,1,3.145-.942,5.482,5.482,0,0,1,3.359.947,2.962,2.962,0,0,1,1.27,2.49h-3.3q0-1.27-1.338-1.27a1.326,1.326,0,0,0-.869.288.892.892,0,0,0-.352.718.819.819,0,0,0,.43.713,4.06,4.06,0,0,0,1.372.449,11.857,11.857,0,0,1,1.655.42,3.007,3.007,0,0,1,2.383,2.939,2.767,2.767,0,0,1-1.284,2.354,5.632,5.632,0,0,1-3.325.908,5.747,5.747,0,0,1-2.422-.488,4.05,4.05,0,0,1-1.66-1.328,3.007,3.007,0,0,1-.6-1.768h3.076a1.272,1.272,0,0,0,.488,1.069,2.009,2.009,0,0,0,1.2.337,1.58,1.58,0,0,0,1.011-.273A.875.875,0,0,0,61.991,16.031Zm9.277-2.393a6.455,6.455,0,0,1,1.084-3.955A3.568,3.568,0,0,1,75.38,8.238a3.035,3.035,0,0,1,2.383,1.113V4h3.3V19H78.1l-.166-1.133A3.116,3.116,0,0,1,75.36,19.2a3.562,3.562,0,0,1-2.988-1.445A6.659,6.659,0,0,1,71.269,13.639Zm3.291.205q0,2.813,1.641,2.813a1.62,1.62,0,0,0,1.563-.918V11.715a1.576,1.576,0,0,0-1.543-.937q-1.523,0-1.65,2.461ZM88.046,19.2a5.432,5.432,0,0,1-3.936-1.45,5.008,5.008,0,0,1-1.5-3.774V13.7a6.489,6.489,0,0,1,.6-2.861A4.395,4.395,0,0,1,84.96,8.917a5.292,5.292,0,0,1,2.734-.679A4.574,4.574,0,0,1,91.21,9.62,5.43,5.43,0,0,1,92.5,13.473v1.279H85.956a2.372,2.372,0,0,0,.771,1.4,2.3,2.3,0,0,0,1.543.508,2.958,2.958,0,0,0,2.441-1.094l1.5,1.777a4.2,4.2,0,0,1-1.743,1.353A5.891,5.891,0,0,1,88.046,19.2Zm-.371-8.418q-1.445,0-1.719,1.914h3.32v-.254a1.63,1.63,0,0,0-.4-1.226A1.593,1.593,0,0,0,87.675,10.777Zm15.6,5.879a1.464,1.464,0,0,0,1.074-.376,1.379,1.379,0,0,0,.371-1.05H107.8a3.653,3.653,0,0,1-1.245,2.852,4.631,4.631,0,0,1-3.208,1.113,4.689,4.689,0,0,1-3.633-1.445,5.7,5.7,0,0,1-1.328-4v-.137a6.436,6.436,0,0,1,.591-2.827,4.3,4.3,0,0,1,1.7-1.885,5.081,5.081,0,0,1,2.637-.659,4.573,4.573,0,0,1,3.271,1.143,4.053,4.053,0,0,1,1.211,3.1h-3.086a1.806,1.806,0,0,0-.4-1.26,1.382,1.382,0,0,0-1.074-.439q-1.279,0-1.494,1.631a11.508,11.508,0,0,0-.068,1.426,4.52,4.52,0,0,0,.381,2.207A1.319,1.319,0,0,0,103.271,16.656ZM115.146,19a3.716,3.716,0,0,1-.312-.947,3.06,3.06,0,0,1-2.539,1.143,3.749,3.749,0,0,1-2.539-.9,2.875,2.875,0,0,1-1.045-2.271,2.955,2.955,0,0,1,1.27-2.6,6.468,6.468,0,0,1,3.691-.879h1.016v-.559q0-1.462-1.26-1.462a1.03,1.03,0,0,0-1.172,1.158h-3.291a2.95,2.95,0,0,1,1.3-2.487,5.479,5.479,0,0,1,3.325-.956,4.8,4.8,0,0,1,3.193.986,3.429,3.429,0,0,1,1.2,2.705v4.678a4.79,4.79,0,0,0,.449,2.227V19Zm-2.061-2.148a1.836,1.836,0,0,0,1.021-.264,1.653,1.653,0,0,0,.581-.6V14.3h-.957q-1.719,0-1.719,1.543a.942.942,0,0,0,.3.728A1.1,1.1,0,0,0,113.085,16.852Zm6.309-3.213a6.455,6.455,0,0,1,1.084-3.955A3.568,3.568,0,0,1,123.5,8.238a3.035,3.035,0,0,1,2.383,1.113V4h3.3V19h-2.959l-.166-1.133a3.116,3.116,0,0,1-2.578,1.328A3.562,3.562,0,0,1,120.5,17.75,6.659,6.659,0,0,1,119.394,13.639Zm3.291.205q0,2.813,1.641,2.813a1.62,1.62,0,0,0,1.563-.918V11.715a1.576,1.576,0,0,0-1.543-.937q-1.523,0-1.65,2.461ZM137.011,19a3.716,3.716,0,0,1-.312-.947,3.06,3.06,0,0,1-2.539,1.143,3.749,3.749,0,0,1-2.539-.9,2.875,2.875,0,0,1-1.045-2.271,2.955,2.955,0,0,1,1.27-2.6,6.468,6.468,0,0,1,3.691-.879h1.016v-.559q0-1.462-1.26-1.462a1.03,1.03,0,0,0-1.172,1.158h-3.291a2.95,2.95,0,0,1,1.3-2.487,5.479,5.479,0,0,1,3.325-.956,4.8,4.8,0,0,1,3.193.986,3.429,3.429,0,0,1,1.2,2.705v4.678a4.79,4.79,0,0,0,.449,2.227V19Zm-2.061-2.148a1.836,1.836,0,0,0,1.021-.264,1.653,1.653,0,0,0,.581-.6V14.3h-.957q-1.719,0-1.719,1.543a.942.942,0,0,0,.3.728A1.1,1.1,0,0,0,134.95,16.852Zm21.514-3.057a6.372,6.372,0,0,1-1.108,3.931,3.554,3.554,0,0,1-2.993,1.47,3.046,3.046,0,0,1-2.393-1.064v4.932h-3.291V8.434h3.076l.1.977a3.046,3.046,0,0,1,2.49-1.172,3.582,3.582,0,0,1,3.037,1.44,6.45,6.45,0,0,1,1.084,3.96Zm-3.291-.205q0-2.812-1.641-2.812a1.549,1.549,0,0,0-1.562.84v4.16a1.6,1.6,0,0,0,1.582.879q1.572,0,1.621-2.715ZM163.866,19a3.716,3.716,0,0,1-.312-.947,3.06,3.06,0,0,1-2.539,1.143,3.749,3.749,0,0,1-2.539-.9,2.875,2.875,0,0,1-1.045-2.271,2.955,2.955,0,0,1,1.27-2.6,6.468,6.468,0,0,1,3.691-.879h1.016v-.559q0-1.462-1.26-1.462a1.03,1.03,0,0,0-1.172,1.158h-3.291a2.95,2.95,0,0,1,1.3-2.487,5.479,5.479,0,0,1,3.325-.956,4.8,4.8,0,0,1,3.193.986,3.429,3.429,0,0,1,1.2,2.705v4.678a4.79,4.79,0,0,0,.449,2.227V19Zm-2.061-2.148a1.836,1.836,0,0,0,1.021-.264,1.653,1.653,0,0,0,.581-.6V14.3h-.957q-1.719,0-1.719,1.543a.942.942,0,0,0,.3.728A1.1,1.1,0,0,0,161.806,16.852Zm13.115-5.439-1.084-.078a1.947,1.947,0,0,0-1.992.977V19h-3.291V8.434h3.086l.107,1.357a2.548,2.548,0,0,1,2.314-1.553,3.209,3.209,0,0,1,.918.117Zm5.508-5.605V8.434h1.738v2.285h-1.738v4.834a1.234,1.234,0,0,0,.215.83,1.152,1.152,0,0,0,.85.234,4.828,4.828,0,0,0,.82-.059v2.354a6.074,6.074,0,0,1-1.855.283,3.448,3.448,0,0,1-2.51-.8,3.282,3.282,0,0,1-.811-2.432V10.719H175.79V8.434h1.348V5.807ZM186.933,19h-3.3V8.434h3.3Zm-3.5-13.3a1.482,1.482,0,0,1,.508-1.159,2.149,2.149,0,0,1,2.637,0,1.482,1.482,0,0,1,.508,1.159,1.482,1.482,0,0,1-.508,1.159,2.149,2.149,0,0,1-2.637,0A1.482,1.482,0,0,1,183.437,5.7Zm5.107,7.939a6.455,6.455,0,0,1,1.084-3.955,3.568,3.568,0,0,1,3.027-1.445,3.035,3.035,0,0,1,2.383,1.113V4h3.3V19H195.38l-.166-1.133a3.116,3.116,0,0,1-2.578,1.328,3.562,3.562,0,0,1-2.988-1.445A6.659,6.659,0,0,1,188.544,13.639Zm3.291.205q0,2.813,1.641,2.813a1.62,1.62,0,0,0,1.563-.918V11.715a1.576,1.576,0,0,0-1.543-.937q-1.523,0-1.65,2.461ZM206.161,19a3.716,3.716,0,0,1-.312-.947A3.06,3.06,0,0,1,203.31,19.2a3.749,3.749,0,0,1-2.539-.9,2.875,2.875,0,0,1-1.045-2.271,2.955,2.955,0,0,1,1.27-2.6,6.468,6.468,0,0,1,3.691-.879H205.7v-.559q0-1.462-1.26-1.462a1.03,1.03,0,0,0-1.172,1.158h-3.291a2.95,2.95,0,0,1,1.3-2.487,5.479,5.479,0,0,1,3.325-.956,4.8,4.8,0,0,1,3.193.986A3.429,3.429,0,0,1,209,11.93v4.678a4.79,4.79,0,0,0,.449,2.227V19ZM204.1,16.852a1.836,1.836,0,0,0,1.021-.264,1.653,1.653,0,0,0,.581-.6V14.3h-.957q-1.719,0-1.719,1.543a.942.942,0,0,0,.3.728A1.1,1.1,0,0,0,204.1,16.852Z" transform="translate(256 3400)" fill="#12263f"/>
    <path id="Trazado_125828" data-name="Trazado 125828" d="M24.633,19H21.225l-5.039-8.848V19H12.758V4.781h3.428l5.029,8.848V4.781h3.418Zm1.6-5.381A6.236,6.236,0,0,1,26.85,10.8a4.4,4.4,0,0,1,1.768-1.9,5.323,5.323,0,0,1,2.705-.664,4.858,4.858,0,0,1,3.74,1.47,5.64,5.64,0,0,1,1.367,4v.117a5.472,5.472,0,0,1-1.372,3.921,4.871,4.871,0,0,1-3.716,1.45,4.927,4.927,0,0,1-3.623-1.353,5.29,5.29,0,0,1-1.475-3.667Zm3.291.205a3.932,3.932,0,0,0,.459,2.148,1.529,1.529,0,0,0,1.357.684q1.758,0,1.8-2.705v-.332q0-2.842-1.816-2.842-1.65,0-1.787,2.451Zm9.512,9-1.66-.781.332-.664a5.416,5.416,0,0,0,.713-2.422V16.52h2.637l-.01,2.119a5.3,5.3,0,0,1-.576,2.285A5.806,5.806,0,0,1,39.037,22.828Zm8.8-9.189A6.455,6.455,0,0,1,48.92,9.684a3.568,3.568,0,0,1,3.027-1.445A3.035,3.035,0,0,1,54.33,9.352V4h3.3V19H54.672l-.166-1.133A3.116,3.116,0,0,1,51.928,19.2a3.562,3.562,0,0,1-2.988-1.445A6.659,6.659,0,0,1,47.836,13.639Zm3.291.205q0,2.813,1.641,2.813a1.62,1.62,0,0,0,1.563-.918V11.715a1.576,1.576,0,0,0-1.543-.937q-1.523,0-1.65,2.461ZM64.613,19.2a5.432,5.432,0,0,1-3.936-1.45,5.008,5.008,0,0,1-1.5-3.774V13.7a6.489,6.489,0,0,1,.6-2.861,4.395,4.395,0,0,1,1.753-1.919,5.292,5.292,0,0,1,2.734-.679A4.574,4.574,0,0,1,67.777,9.62a5.43,5.43,0,0,1,1.289,3.853v1.279H62.523a2.372,2.372,0,0,0,.771,1.4,2.3,2.3,0,0,0,1.543.508,2.958,2.958,0,0,0,2.441-1.094l1.5,1.777a4.2,4.2,0,0,1-1.743,1.353A5.891,5.891,0,0,1,64.613,19.2Zm-.371-8.418q-1.445,0-1.719,1.914h3.32v-.254a1.63,1.63,0,0,0-.4-1.226A1.593,1.593,0,0,0,64.242,10.777ZM73.861,19h-3.3V4h3.3Zm18.662-4.814a5.193,5.193,0,0,1-.8,2.622,4.833,4.833,0,0,1-2.056,1.763,7,7,0,0,1-3.022.625,5.584,5.584,0,0,1-4.414-1.826,7.54,7.54,0,0,1-1.611-5.156v-.7a8.607,8.607,0,0,1,.728-3.657,5.513,5.513,0,0,1,2.095-2.422,5.844,5.844,0,0,1,3.164-.854,6.129,6.129,0,0,1,4.16,1.362,5.383,5.383,0,0,1,1.787,3.755H89.135a2.547,2.547,0,0,0-.654-1.865,2.691,2.691,0,0,0-1.875-.566,2.048,2.048,0,0,0-1.875.957,6.151,6.151,0,0,0-.625,3.057v1.006a6.806,6.806,0,0,0,.571,3.252,2.091,2.091,0,0,0,1.968.977,2.632,2.632,0,0,0,1.807-.557,2.363,2.363,0,0,0,.664-1.768ZM99.945,19a3.716,3.716,0,0,1-.312-.947A3.06,3.06,0,0,1,97.094,19.2a3.749,3.749,0,0,1-2.539-.9,2.875,2.875,0,0,1-1.045-2.271,2.955,2.955,0,0,1,1.27-2.6,6.468,6.468,0,0,1,3.691-.879h1.016v-.559q0-1.462-1.26-1.462a1.03,1.03,0,0,0-1.172,1.158H93.764a2.95,2.95,0,0,1,1.3-2.487,5.479,5.479,0,0,1,3.325-.956,4.8,4.8,0,0,1,3.193.986,3.429,3.429,0,0,1,1.2,2.705v4.678a4.79,4.79,0,0,0,.449,2.227V19Zm-2.061-2.148a1.836,1.836,0,0,0,1.021-.264,1.653,1.653,0,0,0,.581-.6V14.3h-.957q-1.719,0-1.719,1.543a.942.942,0,0,0,.3.728A1.1,1.1,0,0,0,97.885,16.852Zm16.533-3.057a6.372,6.372,0,0,1-1.108,3.931,3.554,3.554,0,0,1-2.993,1.47,3.046,3.046,0,0,1-2.393-1.064v4.932h-3.291V8.434h3.076l.1.977a3.046,3.046,0,0,1,2.49-1.172,3.582,3.582,0,0,1,3.037,1.44,6.45,6.45,0,0,1,1.084,3.96Zm-3.291-.205q0-2.812-1.641-2.812a1.549,1.549,0,0,0-1.562.84v4.16a1.6,1.6,0,0,0,1.582.879q1.572,0,1.621-2.715ZM119.34,19h-3.3V8.434h3.3Zm-3.5-13.3a1.482,1.482,0,0,1,.508-1.159,2.149,2.149,0,0,1,2.637,0A1.482,1.482,0,0,1,119.5,5.7a1.482,1.482,0,0,1-.508,1.159,2.149,2.149,0,0,1-2.637,0A1.482,1.482,0,0,1,115.844,5.7Zm9.355.107V8.434h1.738v2.285H125.2v4.834a1.234,1.234,0,0,0,.215.83,1.152,1.152,0,0,0,.85.234,4.828,4.828,0,0,0,.82-.059v2.354a6.074,6.074,0,0,1-1.855.283,3.448,3.448,0,0,1-2.51-.8,3.282,3.282,0,0,1-.811-2.432V10.719h-1.348V8.434h1.348V5.807Zm9.326,12.051A3.393,3.393,0,0,1,131.7,19.2a3.328,3.328,0,0,1-2.632-1.011,4.251,4.251,0,0,1-.894-2.905V8.434h3.291V15.3a1.183,1.183,0,0,0,1.318,1.357,1.72,1.72,0,0,0,1.611-.811V8.434h3.311V19h-3.086ZM142.982,19h-3.3V4h3.3Zm1.611-5.381a6.236,6.236,0,0,1,.615-2.817,4.4,4.4,0,0,1,1.768-1.9,5.323,5.323,0,0,1,2.705-.664,4.858,4.858,0,0,1,3.74,1.47,5.64,5.64,0,0,1,1.367,4v.117a5.472,5.472,0,0,1-1.372,3.921A4.871,4.871,0,0,1,149.7,19.2a4.927,4.927,0,0,1-3.623-1.353,5.29,5.29,0,0,1-1.475-3.667Zm3.291.205a3.932,3.932,0,0,0,.459,2.148,1.529,1.529,0,0,0,1.357.684q1.758,0,1.8-2.705v-.332q0-2.842-1.816-2.842-1.65,0-1.787,2.451Z" transform="translate(256 3697)" fill="#12263f"/>
    <path id="Trazado_125829" data-name="Trazado 125829" d="M12.227,4.781v9.307a5.349,5.349,0,0,1-.674,2.739A4.365,4.365,0,0,1,9.619,18.59a6.812,6.812,0,0,1-2.979.605,5.885,5.885,0,0,1-4.092-1.348,4.806,4.806,0,0,1-1.523-3.691V4.781H4.473v9.443q.059,2.334,2.168,2.334a2.1,2.1,0,0,0,1.611-.586,2.739,2.739,0,0,0,.547-1.9V4.781Zm11.8,9.023A6.44,6.44,0,0,1,22.949,17.8a3.6,3.6,0,0,1-3.027,1.4,3.122,3.122,0,0,1-2.6-1.279L17.188,19H14.238V4h3.291V9.283A3.013,3.013,0,0,1,19.9,8.238a3.6,3.6,0,0,1,3.047,1.416,6.473,6.473,0,0,1,1.074,3.984Zm-3.3-.21a4.3,4.3,0,0,0-.405-2.169,1.366,1.366,0,0,0-1.245-.648,1.576,1.576,0,0,0-1.543.848v4.192a1.585,1.585,0,0,0,1.563.838,1.4,1.4,0,0,0,1.475-1.131A8.121,8.121,0,0,0,20.723,13.595ZM28.945,19h-3.3V8.434h3.3Zm-3.5-13.3a1.482,1.482,0,0,1,.508-1.159,2.149,2.149,0,0,1,2.637,0A1.482,1.482,0,0,1,29.1,5.7a1.482,1.482,0,0,1-.508,1.159,2.149,2.149,0,0,1-2.637,0A1.482,1.482,0,0,1,25.449,5.7Zm9.99,10.957a1.464,1.464,0,0,0,1.074-.376,1.379,1.379,0,0,0,.371-1.05h3.086a3.653,3.653,0,0,1-1.245,2.852A4.631,4.631,0,0,1,35.518,19.2a4.689,4.689,0,0,1-3.633-1.445,5.7,5.7,0,0,1-1.328-4v-.137a6.436,6.436,0,0,1,.591-2.827,4.3,4.3,0,0,1,1.7-1.885,5.081,5.081,0,0,1,2.637-.659A4.573,4.573,0,0,1,38.76,9.381a4.053,4.053,0,0,1,1.211,3.1H36.885a1.807,1.807,0,0,0-.4-1.26,1.382,1.382,0,0,0-1.074-.439q-1.279,0-1.494,1.631a11.507,11.507,0,0,0-.068,1.426,4.52,4.52,0,0,0,.381,2.207A1.319,1.319,0,0,0,35.439,16.656ZM47.314,19A3.716,3.716,0,0,1,47,18.053,3.06,3.06,0,0,1,44.463,19.2a3.749,3.749,0,0,1-2.539-.9,2.875,2.875,0,0,1-1.045-2.271,2.955,2.955,0,0,1,1.27-2.6,6.468,6.468,0,0,1,3.691-.879h1.016v-.559q0-1.462-1.26-1.462a1.03,1.03,0,0,0-1.172,1.158H41.133a2.95,2.95,0,0,1,1.3-2.487,5.479,5.479,0,0,1,3.325-.956,4.8,4.8,0,0,1,3.193.986,3.429,3.429,0,0,1,1.2,2.705v4.678a4.79,4.79,0,0,0,.449,2.227V19Zm-2.061-2.148a1.836,1.836,0,0,0,1.021-.264,1.653,1.653,0,0,0,.581-.6V14.3H45.9q-1.719,0-1.719,1.543a.942.942,0,0,0,.3.728A1.1,1.1,0,0,0,45.254,16.852Zm11.191-.2a1.464,1.464,0,0,0,1.074-.376,1.379,1.379,0,0,0,.371-1.05h3.086a3.653,3.653,0,0,1-1.245,2.852A4.631,4.631,0,0,1,56.523,19.2a4.689,4.689,0,0,1-3.633-1.445,5.7,5.7,0,0,1-1.328-4v-.137a6.436,6.436,0,0,1,.591-2.827,4.3,4.3,0,0,1,1.7-1.885,5.081,5.081,0,0,1,2.637-.659,4.573,4.573,0,0,1,3.271,1.143,4.053,4.053,0,0,1,1.211,3.1H57.891a1.807,1.807,0,0,0-.4-1.26,1.382,1.382,0,0,0-1.074-.439q-1.279,0-1.494,1.631a11.507,11.507,0,0,0-.068,1.426,4.52,4.52,0,0,0,.381,2.207A1.319,1.319,0,0,0,56.445,16.656ZM65.84,19h-3.3V8.434h3.3Zm-3.5-13.3a1.482,1.482,0,0,1,.508-1.159,2.149,2.149,0,0,1,2.637,0A1.482,1.482,0,0,1,66,5.7a1.482,1.482,0,0,1-.508,1.159,2.149,2.149,0,0,1-2.637,0A1.482,1.482,0,0,1,62.344,5.7Zm5.107,7.92a6.236,6.236,0,0,1,.615-2.817,4.4,4.4,0,0,1,1.768-1.9,5.323,5.323,0,0,1,2.705-.664,4.858,4.858,0,0,1,3.74,1.47,5.64,5.64,0,0,1,1.367,4v.117a5.472,5.472,0,0,1-1.372,3.921,4.871,4.871,0,0,1-3.716,1.45,4.927,4.927,0,0,1-3.623-1.353,5.29,5.29,0,0,1-1.475-3.667Zm3.291.205a3.932,3.932,0,0,0,.459,2.148,1.529,1.529,0,0,0,1.357.684q1.758,0,1.8-2.705v-.332q0-2.842-1.816-2.842-1.65,0-1.787,2.451ZM72.988,4h3.477L73.75,7.066l-2.686,0Zm9.131,4.434.107,1.24a3.583,3.583,0,0,1,3.018-1.436,3.015,3.015,0,0,1,2.466.986,4.7,4.7,0,0,1,.845,2.969V19h-3.3V12.33a1.783,1.783,0,0,0-.322-1.177,1.491,1.491,0,0,0-1.172-.376,1.569,1.569,0,0,0-1.436.762V19H79.033V8.434Zm12.822,5.205a6.455,6.455,0,0,1,1.084-3.955,3.568,3.568,0,0,1,3.027-1.445,3.035,3.035,0,0,1,2.383,1.113V4h3.3V19h-2.959l-.166-1.133A3.116,3.116,0,0,1,99.033,19.2a3.562,3.562,0,0,1-2.988-1.445A6.659,6.659,0,0,1,94.941,13.639Zm3.291.205q0,2.813,1.641,2.813a1.62,1.62,0,0,0,1.563-.918V11.715a1.576,1.576,0,0,0-1.543-.937q-1.523,0-1.65,2.461ZM111.719,19.2a5.432,5.432,0,0,1-3.936-1.45,5.008,5.008,0,0,1-1.5-3.774V13.7a6.489,6.489,0,0,1,.6-2.861,4.395,4.395,0,0,1,1.753-1.919,5.292,5.292,0,0,1,2.734-.679,4.574,4.574,0,0,1,3.516,1.382,5.43,5.43,0,0,1,1.289,3.853v1.279h-6.543a2.372,2.372,0,0,0,.771,1.4,2.3,2.3,0,0,0,1.543.508,2.958,2.958,0,0,0,2.441-1.094l1.5,1.777a4.2,4.2,0,0,1-1.743,1.353A5.891,5.891,0,0,1,111.719,19.2Zm-.371-8.418q-1.445,0-1.719,1.914h3.32v-.254a1.63,1.63,0,0,0-.4-1.226A1.593,1.593,0,0,0,111.348,10.777ZM125.947,19h-3.3V4h3.3Zm7.979,0a3.716,3.716,0,0,1-.312-.947,3.06,3.06,0,0,1-2.539,1.143,3.749,3.749,0,0,1-2.539-.9,2.875,2.875,0,0,1-1.045-2.271,2.955,2.955,0,0,1,1.27-2.6,6.468,6.468,0,0,1,3.691-.879h1.016v-.559q0-1.462-1.26-1.462a1.03,1.03,0,0,0-1.172,1.158h-3.291a2.95,2.95,0,0,1,1.3-2.487,5.479,5.479,0,0,1,3.325-.956,4.8,4.8,0,0,1,3.193.986,3.429,3.429,0,0,1,1.2,2.705v4.678a4.79,4.79,0,0,0,.449,2.227V19Zm-2.061-2.148a1.836,1.836,0,0,0,1.021-.264,1.653,1.653,0,0,0,.581-.6V14.3h-.957q-1.719,0-1.719,1.543a.942.942,0,0,0,.3.728A1.1,1.1,0,0,0,131.865,16.852ZM4.5,41.176V46H1.074V31.781H6.748a6.608,6.608,0,0,1,2.886.6,4.526,4.526,0,0,1,1.943,1.709,4.667,4.667,0,0,1,.688,2.515,4.114,4.114,0,0,1-1.489,3.325,6.179,6.179,0,0,1-4.087,1.245Zm0-2.646H6.748a2.118,2.118,0,0,0,1.519-.5,1.85,1.85,0,0,0,.522-1.406,2.287,2.287,0,0,0-.537-1.592,1.9,1.9,0,0,0-1.465-.605H4.5ZM19.785,46a3.716,3.716,0,0,1-.312-.947A3.06,3.06,0,0,1,16.934,46.2a3.749,3.749,0,0,1-2.539-.9,2.875,2.875,0,0,1-1.045-2.271,2.955,2.955,0,0,1,1.27-2.6,6.468,6.468,0,0,1,3.691-.879h1.016v-.559q0-1.462-1.26-1.462a1.03,1.03,0,0,0-1.172,1.158H13.6a2.95,2.95,0,0,1,1.3-2.487,5.479,5.479,0,0,1,3.325-.956,4.8,4.8,0,0,1,3.193.986,3.429,3.429,0,0,1,1.2,2.705v4.678a4.79,4.79,0,0,0,.449,2.227V46Zm-2.061-2.148a1.836,1.836,0,0,0,1.021-.264,1.653,1.653,0,0,0,.581-.6V41.3h-.957q-1.719,0-1.719,1.543a.942.942,0,0,0,.3.728A1.1,1.1,0,0,0,17.725,43.852ZM30.84,38.412l-1.084-.078a1.947,1.947,0,0,0-1.992.977V46H24.473V35.434h3.086l.107,1.357a2.548,2.548,0,0,1,2.314-1.553,3.209,3.209,0,0,1,.918.117Zm5.508-5.605v2.627h1.738v2.285H36.348v4.834a1.234,1.234,0,0,0,.215.83,1.152,1.152,0,0,0,.85.234,4.828,4.828,0,0,0,.82-.059v2.354a6.074,6.074,0,0,1-1.855.283,3.448,3.448,0,0,1-2.51-.8,3.282,3.282,0,0,1-.811-2.432V37.719H31.709V35.434h1.348V32.807ZM42.852,46h-3.3V35.434h3.3Zm-3.5-13.3a1.482,1.482,0,0,1,.508-1.159,2.149,2.149,0,0,1,2.637,0,1.577,1.577,0,0,1,0,2.319,2.149,2.149,0,0,1-2.637,0A1.482,1.482,0,0,1,39.355,32.7Zm5.107,7.939a6.455,6.455,0,0,1,1.084-3.955,3.568,3.568,0,0,1,3.027-1.445,3.035,3.035,0,0,1,2.383,1.113V31h3.3V46H51.3l-.166-1.133A3.116,3.116,0,0,1,48.555,46.2a3.562,3.562,0,0,1-2.988-1.445A6.659,6.659,0,0,1,44.463,40.639Zm3.291.205q0,2.813,1.641,2.813a1.62,1.62,0,0,0,1.563-.918V38.715a1.576,1.576,0,0,0-1.543-.937q-1.523,0-1.65,2.461ZM62.08,46a3.716,3.716,0,0,1-.312-.947A3.06,3.06,0,0,1,59.229,46.2a3.749,3.749,0,0,1-2.539-.9,2.875,2.875,0,0,1-1.045-2.271,2.955,2.955,0,0,1,1.27-2.6,6.468,6.468,0,0,1,3.691-.879h1.016v-.559q0-1.462-1.26-1.462a1.03,1.03,0,0,0-1.172,1.158H55.9a2.95,2.95,0,0,1,1.3-2.487,5.479,5.479,0,0,1,3.325-.956,4.8,4.8,0,0,1,3.193.986,3.429,3.429,0,0,1,1.2,2.705v4.678a4.79,4.79,0,0,0,.449,2.227V46ZM60.02,43.852a1.836,1.836,0,0,0,1.021-.264,1.653,1.653,0,0,0,.581-.6V41.3h-.957q-1.719,0-1.719,1.543a.942.942,0,0,0,.3.728A1.1,1.1,0,0,0,60.02,43.852ZM76.836,46.2a5.432,5.432,0,0,1-3.936-1.45,5.008,5.008,0,0,1-1.5-3.774V40.7a6.489,6.489,0,0,1,.6-2.861,4.395,4.395,0,0,1,1.753-1.919,5.292,5.292,0,0,1,2.734-.679A4.574,4.574,0,0,1,80,36.62a5.43,5.43,0,0,1,1.289,3.853v1.279H74.746a2.372,2.372,0,0,0,.771,1.4,2.3,2.3,0,0,0,1.543.508A2.958,2.958,0,0,0,79.5,42.563l1.5,1.777a4.2,4.2,0,0,1-1.743,1.353A5.891,5.891,0,0,1,76.836,46.2Zm-.371-8.418q-1.445,0-1.719,1.914h3.32v-.254a1.63,1.63,0,0,0-.4-1.226A1.593,1.593,0,0,0,76.465,37.777Zm9.17-2.344.107,1.24a3.583,3.583,0,0,1,3.018-1.436,3.015,3.015,0,0,1,2.466.986,4.7,4.7,0,0,1,.845,2.969V46h-3.3V39.33a1.783,1.783,0,0,0-.322-1.177,1.491,1.491,0,0,0-1.172-.376,1.569,1.569,0,0,0-1.436.762V46H82.549V35.434ZM103.984,46.2a5.432,5.432,0,0,1-3.936-1.45,5.008,5.008,0,0,1-1.5-3.774V40.7a6.489,6.489,0,0,1,.6-2.861,4.395,4.395,0,0,1,1.753-1.919,5.292,5.292,0,0,1,2.734-.679,4.574,4.574,0,0,1,3.516,1.382,5.43,5.43,0,0,1,1.289,3.853v1.279h-6.543a2.372,2.372,0,0,0,.771,1.4,2.3,2.3,0,0,0,1.543.508,2.958,2.958,0,0,0,2.441-1.094l1.5,1.777a4.2,4.2,0,0,1-1.743,1.353A5.891,5.891,0,0,1,103.984,46.2Zm-.371-8.418q-1.445,0-1.719,1.914h3.32v-.254a1.63,1.63,0,0,0-.4-1.226A1.593,1.593,0,0,0,103.613,37.777ZM113.232,46h-3.3V31h3.3ZM12.578,68.186a5.193,5.193,0,0,1-.8,2.622A4.833,4.833,0,0,1,9.722,72.57,7,7,0,0,1,6.7,73.2a5.584,5.584,0,0,1-4.414-1.826A7.54,7.54,0,0,1,.674,66.213v-.7A8.607,8.607,0,0,1,1.4,61.853,5.513,5.513,0,0,1,3.5,59.431a5.844,5.844,0,0,1,3.164-.854,6.129,6.129,0,0,1,4.16,1.362,5.383,5.383,0,0,1,1.787,3.755H9.189a2.547,2.547,0,0,0-.654-1.865,2.691,2.691,0,0,0-1.875-.566,2.048,2.048,0,0,0-1.875.957,6.151,6.151,0,0,0-.625,3.057v1.006a6.806,6.806,0,0,0,.571,3.252A2.091,2.091,0,0,0,6.7,70.51a2.632,2.632,0,0,0,1.807-.557,2.363,2.363,0,0,0,.664-1.768ZM20,73a3.716,3.716,0,0,1-.312-.947A3.06,3.06,0,0,1,17.148,73.2a3.749,3.749,0,0,1-2.539-.9,2.875,2.875,0,0,1-1.045-2.271,2.955,2.955,0,0,1,1.27-2.6,6.468,6.468,0,0,1,3.691-.879h1.016v-.559q0-1.462-1.26-1.462a1.03,1.03,0,0,0-1.172,1.158H13.818a2.95,2.95,0,0,1,1.3-2.487,5.479,5.479,0,0,1,3.325-.956,4.8,4.8,0,0,1,3.193.986,3.429,3.429,0,0,1,1.2,2.705v4.678a4.79,4.79,0,0,0,.449,2.227V73Zm-2.061-2.148a1.836,1.836,0,0,0,1.021-.264,1.653,1.653,0,0,0,.581-.6V68.3h-.957q-1.719,0-1.719,1.543a.942.942,0,0,0,.3.728A1.1,1.1,0,0,0,17.939,70.852Zm16.533-3.057a6.372,6.372,0,0,1-1.108,3.931,3.554,3.554,0,0,1-2.993,1.47,3.046,3.046,0,0,1-2.393-1.064v4.932H24.688V62.434h3.076l.1.977a3.046,3.046,0,0,1,2.49-1.172,3.582,3.582,0,0,1,3.037,1.44,6.45,6.45,0,0,1,1.084,3.96Zm-3.291-.205q0-2.812-1.641-2.812a1.549,1.549,0,0,0-1.562.84v4.16a1.6,1.6,0,0,0,1.582.879q1.572,0,1.621-2.715ZM39.395,73h-3.3V62.434h3.3ZM35.9,59.7a1.482,1.482,0,0,1,.508-1.159,2.149,2.149,0,0,1,2.637,0,1.577,1.577,0,0,1,0,2.319,2.149,2.149,0,0,1-2.637,0A1.482,1.482,0,0,1,35.9,59.7Zm9.355.107v2.627h1.738v2.285H45.254v4.834a1.234,1.234,0,0,0,.215.83,1.152,1.152,0,0,0,.85.234,4.828,4.828,0,0,0,.82-.059v2.354a6.074,6.074,0,0,1-1.855.283,3.448,3.448,0,0,1-2.51-.8,3.282,3.282,0,0,1-.811-2.432V64.719H40.615V62.434h1.348V59.807ZM54.58,71.857A3.393,3.393,0,0,1,51.758,73.2a3.328,3.328,0,0,1-2.632-1.011,4.251,4.251,0,0,1-.894-2.905V62.434h3.291V69.3a1.183,1.183,0,0,0,1.318,1.357,1.72,1.72,0,0,0,1.611-.811V62.434h3.311V73H54.678ZM63.037,73h-3.3V58h3.3Zm1.611-5.381a6.236,6.236,0,0,1,.615-2.817,4.4,4.4,0,0,1,1.768-1.9,5.323,5.323,0,0,1,2.705-.664,4.858,4.858,0,0,1,3.74,1.47,5.64,5.64,0,0,1,1.367,4v.117a5.472,5.472,0,0,1-1.372,3.921,4.871,4.871,0,0,1-3.716,1.45,4.927,4.927,0,0,1-3.623-1.353,5.29,5.29,0,0,1-1.475-3.667Zm3.291.205a3.932,3.932,0,0,0,.459,2.148,1.529,1.529,0,0,0,1.357.684q1.758,0,1.8-2.705v-.332q0-2.842-1.816-2.842-1.65,0-1.787,2.451Z" transform="translate(486 3697)" fill="#472ea6"/>
    <path id="Trazado_125825" data-name="Trazado 125825" d="M81.659,19H78.251l-5.039-8.848V19H69.784V4.781h3.428l5.029,8.848V4.781h3.418Zm7.969,0a3.716,3.716,0,0,1-.312-.947A3.06,3.06,0,0,1,86.776,19.2a3.749,3.749,0,0,1-2.539-.9,2.875,2.875,0,0,1-1.045-2.271,2.955,2.955,0,0,1,1.27-2.6,6.468,6.468,0,0,1,3.691-.879h1.016v-.559q0-1.462-1.26-1.462a1.03,1.03,0,0,0-1.172,1.158H83.446a2.95,2.95,0,0,1,1.3-2.487,5.479,5.479,0,0,1,3.325-.956,4.8,4.8,0,0,1,3.193.986,3.429,3.429,0,0,1,1.2,2.705v4.678a4.79,4.79,0,0,0,.449,2.227V19Zm-2.061-2.148a1.836,1.836,0,0,0,1.021-.264,1.653,1.653,0,0,0,.581-.6V14.3h-.957q-1.719,0-1.719,1.543a.942.942,0,0,0,.3.728A1.1,1.1,0,0,0,87.567,16.852Zm9.746-8.418.107,1.24a3.583,3.583,0,0,1,3.018-1.436,3.015,3.015,0,0,1,2.466.986,4.7,4.7,0,0,1,.845,2.969V19h-3.3V12.33a1.783,1.783,0,0,0-.322-1.177,1.491,1.491,0,0,0-1.172-.376,1.569,1.569,0,0,0-1.436.762V19H94.228V8.434Zm7.842,5.205a6.455,6.455,0,0,1,1.084-3.955,3.568,3.568,0,0,1,3.027-1.445,3.035,3.035,0,0,1,2.383,1.113V4h3.3V19h-2.959l-.166-1.133a3.116,3.116,0,0,1-2.578,1.328,3.562,3.562,0,0,1-2.988-1.445A6.659,6.659,0,0,1,105.155,13.639Zm3.291.205q0,2.813,1.641,2.813a1.62,1.62,0,0,0,1.563-.918V11.715a1.576,1.576,0,0,0-1.543-.937q-1.523,0-1.65,2.461ZM120.292,19h-3.3V8.434h3.3ZM116.8,5.7A1.482,1.482,0,0,1,117.3,4.54a2.149,2.149,0,0,1,2.637,0,1.482,1.482,0,0,1,.508,1.159,1.482,1.482,0,0,1-.508,1.159,2.149,2.149,0,0,1-2.637,0A1.482,1.482,0,0,1,116.8,5.7Zm8.545,2.734.107,1.24a3.583,3.583,0,0,1,3.018-1.436,3.015,3.015,0,0,1,2.466.986,4.7,4.7,0,0,1,.845,2.969V19h-3.3V12.33a1.783,1.783,0,0,0-.322-1.177,1.491,1.491,0,0,0-1.172-.376,1.569,1.569,0,0,0-1.436.762V19h-3.291V8.434ZM139.55,19a3.716,3.716,0,0,1-.312-.947A3.06,3.06,0,0,1,136.7,19.2a3.749,3.749,0,0,1-2.539-.9,2.875,2.875,0,0,1-1.045-2.271,2.955,2.955,0,0,1,1.27-2.6,6.468,6.468,0,0,1,3.691-.879h1.016v-.559q0-1.462-1.26-1.462a1.03,1.03,0,0,0-1.172,1.158h-3.291a2.95,2.95,0,0,1,1.3-2.487A5.479,5.479,0,0,1,138,8.238a4.8,4.8,0,0,1,3.193.986,3.429,3.429,0,0,1,1.2,2.705v4.678a4.79,4.79,0,0,0,.449,2.227V19Zm-2.061-2.148a1.836,1.836,0,0,0,1.021-.264,1.653,1.653,0,0,0,.581-.6V14.3h-.957q-1.719,0-1.719,1.543a.942.942,0,0,0,.3.728A1.1,1.1,0,0,0,137.489,16.852Z" transform="translate(781 3244)" fill="#fff"/>
    <path id="Trazado_125826" data-name="Trazado 125826" d="M10.469,16.344h-4.7L4.951,19H1.289L6.5,4.781H9.727L14.98,19H11.3ZM6.592,13.7H9.648L8.115,8.766Zm15.664-2.285-1.084-.078a1.947,1.947,0,0,0-1.992.977V19H15.889V8.434h3.086l.107,1.357A2.548,2.548,0,0,1,21.4,8.238a3.209,3.209,0,0,1,.918.117ZM29.1,19a3.716,3.716,0,0,1-.312-.947A3.06,3.06,0,0,1,26.25,19.2a3.749,3.749,0,0,1-2.539-.9,2.875,2.875,0,0,1-1.045-2.271,2.955,2.955,0,0,1,1.27-2.6,6.468,6.468,0,0,1,3.691-.879h1.016v-.559q0-1.462-1.26-1.462a1.03,1.03,0,0,0-1.172,1.158H22.92a2.95,2.95,0,0,1,1.3-2.487,5.479,5.479,0,0,1,3.325-.956,4.8,4.8,0,0,1,3.193.986,3.429,3.429,0,0,1,1.2,2.705v4.678a4.79,4.79,0,0,0,.449,2.227V19Zm-2.061-2.148a1.836,1.836,0,0,0,1.021-.264,1.653,1.653,0,0,0,.581-.6V14.3h-.957q-1.719,0-1.719,1.543a.942.942,0,0,0,.3.728A1.1,1.1,0,0,0,27.041,16.852Zm9.746-8.418.107,1.24a3.583,3.583,0,0,1,3.018-1.436,3.015,3.015,0,0,1,2.466.986,4.7,4.7,0,0,1,.845,2.969V19h-3.3V12.33a1.783,1.783,0,0,0-.322-1.177,1.491,1.491,0,0,0-1.172-.376,1.569,1.569,0,0,0-1.436.762V19H33.7V8.434Zm12.725,8.223a1.464,1.464,0,0,0,1.074-.376,1.379,1.379,0,0,0,.371-1.05h3.086A3.653,3.653,0,0,1,52.8,18.082,4.631,4.631,0,0,1,49.59,19.2a4.689,4.689,0,0,1-3.633-1.445,5.7,5.7,0,0,1-1.328-4v-.137a6.436,6.436,0,0,1,.591-2.827,4.3,4.3,0,0,1,1.7-1.885,5.081,5.081,0,0,1,2.637-.659,4.573,4.573,0,0,1,3.271,1.143,4.053,4.053,0,0,1,1.211,3.1H50.957a1.807,1.807,0,0,0-.4-1.26,1.382,1.382,0,0,0-1.074-.439q-1.279,0-1.494,1.631a11.507,11.507,0,0,0-.068,1.426,4.52,4.52,0,0,0,.381,2.207A1.319,1.319,0,0,0,49.512,16.656ZM60.547,19.2a5.432,5.432,0,0,1-3.936-1.45,5.008,5.008,0,0,1-1.5-3.774V13.7a6.489,6.489,0,0,1,.6-2.861,4.395,4.395,0,0,1,1.753-1.919A5.292,5.292,0,0,1,60.2,8.238,4.574,4.574,0,0,1,63.711,9.62,5.43,5.43,0,0,1,65,13.473v1.279H58.457a2.372,2.372,0,0,0,.771,1.4,2.3,2.3,0,0,0,1.543.508,2.958,2.958,0,0,0,2.441-1.094l1.5,1.777a4.2,4.2,0,0,1-1.743,1.353A5.891,5.891,0,0,1,60.547,19.2Zm-.371-8.418q-1.445,0-1.719,1.914h3.32v-.254a1.63,1.63,0,0,0-.4-1.226A1.593,1.593,0,0,0,60.176,10.777ZM69.795,19h-3.3V4h3.3Zm6.592-5.361a6.455,6.455,0,0,1,1.084-3.955A3.568,3.568,0,0,1,80.5,8.238a3.035,3.035,0,0,1,2.383,1.113V4h3.3V19H83.223l-.166-1.133A3.116,3.116,0,0,1,80.479,19.2,3.562,3.562,0,0,1,77.49,17.75,6.659,6.659,0,0,1,76.387,13.639Zm3.291.205q0,2.813,1.641,2.813a1.62,1.62,0,0,0,1.563-.918V11.715a1.576,1.576,0,0,0-1.543-.937q-1.523,0-1.65,2.461ZM93.164,19.2a5.432,5.432,0,0,1-3.936-1.45,5.008,5.008,0,0,1-1.5-3.774V13.7a6.489,6.489,0,0,1,.6-2.861,4.395,4.395,0,0,1,1.753-1.919,5.292,5.292,0,0,1,2.734-.679A4.574,4.574,0,0,1,96.328,9.62a5.43,5.43,0,0,1,1.289,3.853v1.279H91.074a2.372,2.372,0,0,0,.771,1.4,2.3,2.3,0,0,0,1.543.508,2.958,2.958,0,0,0,2.441-1.094l1.5,1.777a4.2,4.2,0,0,1-1.743,1.353A5.891,5.891,0,0,1,93.164,19.2Zm-.371-8.418q-1.445,0-1.719,1.914h3.32v-.254a1.63,1.63,0,0,0-.4-1.226A1.593,1.593,0,0,0,92.793,10.777Zm22.783,3.408a5.193,5.193,0,0,1-.8,2.622,4.833,4.833,0,0,1-2.056,1.763,7,7,0,0,1-3.022.625,5.584,5.584,0,0,1-4.414-1.826,7.54,7.54,0,0,1-1.611-5.156v-.7a8.607,8.607,0,0,1,.728-3.657,5.513,5.513,0,0,1,2.095-2.422,5.844,5.844,0,0,1,3.164-.854,6.129,6.129,0,0,1,4.16,1.362,5.383,5.383,0,0,1,1.787,3.755h-3.418a2.547,2.547,0,0,0-.654-1.865,2.691,2.691,0,0,0-1.875-.566,2.048,2.048,0,0,0-1.875.957,6.151,6.151,0,0,0-.625,3.057v1.006a6.806,6.806,0,0,0,.571,3.252,2.091,2.091,0,0,0,1.968.977,2.632,2.632,0,0,0,1.807-.557,2.363,2.363,0,0,0,.664-1.768Zm1.055-.566a6.236,6.236,0,0,1,.615-2.817,4.4,4.4,0,0,1,1.768-1.9,5.323,5.323,0,0,1,2.705-.664,4.858,4.858,0,0,1,3.74,1.47,5.64,5.64,0,0,1,1.367,4v.117a5.472,5.472,0,0,1-1.372,3.921,4.871,4.871,0,0,1-3.716,1.45,4.927,4.927,0,0,1-3.623-1.353,5.29,5.29,0,0,1-1.475-3.667Zm3.291.205a3.932,3.932,0,0,0,.459,2.148,1.529,1.529,0,0,0,1.357.684q1.758,0,1.8-2.705v-.332q0-2.842-1.816-2.842-1.65,0-1.787,2.451ZM131.748,19h-3.3V4h3.3Zm1.611-5.381a6.236,6.236,0,0,1,.615-2.817,4.4,4.4,0,0,1,1.768-1.9,5.323,5.323,0,0,1,2.705-.664,4.858,4.858,0,0,1,3.74,1.47,5.64,5.64,0,0,1,1.367,4v.117a5.472,5.472,0,0,1-1.372,3.921,4.871,4.871,0,0,1-3.716,1.45,4.927,4.927,0,0,1-3.623-1.353,5.29,5.29,0,0,1-1.475-3.667Zm3.291.205a3.932,3.932,0,0,0,.459,2.148,1.529,1.529,0,0,0,1.357.684q1.758,0,1.8-2.705v-.332q0-2.842-1.816-2.842-1.65,0-1.787,2.451Zm11.465-5.391.107,1.24a3.633,3.633,0,0,1,3.018-1.436,2.675,2.675,0,0,1,2.705,1.592,3.516,3.516,0,0,1,3.105-1.592q3.213,0,3.3,3.887V19h-3.3V12.33a2.014,2.014,0,0,0-.273-1.182,1.164,1.164,0,0,0-1-.371,1.559,1.559,0,0,0-1.455.869l.01.137V19h-3.3V12.35a2.117,2.117,0,0,0-.264-1.2,1.161,1.161,0,0,0-1.006-.371,1.578,1.578,0,0,0-1.445.869V19h-3.291V8.434ZM172.041,13.8a6.44,6.44,0,0,1-1.074,3.994,3.6,3.6,0,0,1-3.027,1.4,3.122,3.122,0,0,1-2.6-1.279L165.205,19h-2.949V4h3.291V9.283a3.013,3.013,0,0,1,2.373-1.045,3.6,3.6,0,0,1,3.047,1.416,6.473,6.473,0,0,1,1.074,3.984Zm-3.3-.21a4.3,4.3,0,0,0-.405-2.169,1.366,1.366,0,0,0-1.245-.648,1.576,1.576,0,0,0-1.543.848v4.192a1.585,1.585,0,0,0,1.563.838,1.4,1.4,0,0,0,1.475-1.131A8.121,8.121,0,0,0,168.74,13.595ZM176.963,19h-3.3V8.434h3.3Zm-3.5-13.3a1.482,1.482,0,0,1,.508-1.159,2.149,2.149,0,0,1,2.637,0,1.482,1.482,0,0,1,.508,1.159,1.482,1.482,0,0,1-.508,1.159,2.149,2.149,0,0,1-2.637,0A1.482,1.482,0,0,1,173.467,5.7ZM184.941,19a3.716,3.716,0,0,1-.312-.947A3.06,3.06,0,0,1,182.09,19.2a3.749,3.749,0,0,1-2.539-.9,2.875,2.875,0,0,1-1.045-2.271,2.955,2.955,0,0,1,1.27-2.6,6.468,6.468,0,0,1,3.691-.879h1.016v-.559q0-1.462-1.26-1.462a1.03,1.03,0,0,0-1.172,1.158H178.76a2.95,2.95,0,0,1,1.3-2.487,5.479,5.479,0,0,1,3.325-.956,4.8,4.8,0,0,1,3.193.986,3.429,3.429,0,0,1,1.2,2.705v4.678a4.79,4.79,0,0,0,.449,2.227V19Zm-2.061-2.148a1.836,1.836,0,0,0,1.021-.264,1.653,1.653,0,0,0,.581-.6V14.3h-.957q-1.719,0-1.719,1.543a.942.942,0,0,0,.3.728A1.1,1.1,0,0,0,182.881,16.852Z" transform="translate(1126 3322)" fill="#fff"/>
  </g>
</svg>
