<svg xmlns="http://www.w3.org/2000/svg" xmlns:xlink="http://www.w3.org/1999/xlink" width="502.568" height="506.916" viewBox="0 0 502.568 506.916">
  <defs>
    <linearGradient id="linear-gradient" x1="1.13" y1="1.295" x2="0.236" y2="0.19" gradientUnits="objectBoundingBox">
      <stop offset="0" stop-color="#dae3fe"/>
      <stop offset="1" stop-color="#e9effd"/>
    </linearGradient>
    <linearGradient id="linear-gradient-2" x1="-9.973" y1="-0.057" x2="-10.465" y2="0.791" gradientUnits="objectBoundingBox">
      <stop offset="0" stop-color="#febbba"/>
      <stop offset="1" stop-color="#ff928e"/>
    </linearGradient>
    <linearGradient id="linear-gradient-3" x1="-9.055" y1="0.5" x2="-8.055" y2="0.5" xlink:href="#linear-gradient-2"/>
    <linearGradient id="linear-gradient-4" x1="-18.46" y1="-5.594" x2="-19.663" y2="0.571" gradientUnits="objectBoundingBox">
      <stop offset="0" stop-color="#4f52ff"/>
      <stop offset="1" stop-color="#4042e2"/>
    </linearGradient>
    <linearGradient id="linear-gradient-5" x1="-16.788" y1="-14.744" x2="-17.647" y2="-0.838" xlink:href="#linear-gradient-4"/>
    <linearGradient id="linear-gradient-6" x1="-18.462" y1="0.5" x2="-17.462" y2="0.5" xlink:href="#linear-gradient-2"/>
    <linearGradient id="linear-gradient-7" x1="-11.142" y1="0.5" x2="-10.142" y2="0.5" xlink:href="#linear-gradient-2"/>
    <linearGradient id="linear-gradient-8" x1="2.986" y1="-0.4" x2="1.969" y2="-0.031" gradientUnits="objectBoundingBox">
      <stop offset="0" stop-color="#e1473d"/>
      <stop offset="1" stop-color="#e9605a"/>
    </linearGradient>
    <linearGradient id="linear-gradient-9" x1="-10.096" y1="-0.039" x2="-8.36" y2="1.172" gradientUnits="objectBoundingBox">
      <stop offset="0" stop-color="#09005d"/>
      <stop offset="1" stop-color="#1a0f91"/>
    </linearGradient>
    <linearGradient id="linear-gradient-10" x1="-29.837" y1="0.5" x2="-28.837" y2="0.5" xlink:href="#linear-gradient-2"/>
    <linearGradient id="linear-gradient-11" x1="-15.065" y1="0.531" x2="-11.084" y2="0.806" xlink:href="#linear-gradient-2"/>
    <linearGradient id="linear-gradient-12" x1="-6.903" y1="0.163" x2="-7.626" y2="1.097" xlink:href="#linear-gradient-9"/>
    <linearGradient id="linear-gradient-13" x1="-112.046" y1="-5.021" x2="-114.569" y2="16.605" xlink:href="#linear-gradient-9"/>
    <linearGradient id="linear-gradient-14" x1="56.214" y1="0.94" x2="58.467" y2="-0.506" xlink:href="#linear-gradient-4"/>
    <linearGradient id="linear-gradient-15" x1="11.278" y1="-0.843" x2="10.772" y2="2.39" gradientUnits="objectBoundingBox">
      <stop offset="0" stop-color="#a22b25"/>
      <stop offset="1" stop-color="#c0423c"/>
    </linearGradient>
    <linearGradient id="linear-gradient-16" x1="6.743" y1="-5.311" x2="4.225" y2="17.457" xlink:href="#linear-gradient-9"/>
    <linearGradient id="linear-gradient-17" x1="5.71" y1="0.79" x2="7.792" y2="-0.611" xlink:href="#linear-gradient-4"/>
    <linearGradient id="linear-gradient-18" x1="19.882" y1="-0.225" x2="19.368" y2="2.54" xlink:href="#linear-gradient-15"/>
    <linearGradient id="linear-gradient-19" x1="2.609" y1="0.137" x2="2.496" y2="1.425" xlink:href="#linear-gradient-9"/>
    <linearGradient id="linear-gradient-20" x1="-64.409" y1="-225.728" x2="-64.327" y2="-227.433" xlink:href="#linear-gradient-2"/>
    <linearGradient id="linear-gradient-21" x1="-3825.115" y1="-13362.957" x2="-3825.026" y2="-13364.713" xlink:href="#linear-gradient-2"/>
    <linearGradient id="linear-gradient-22" x1="0.469" y1="1.1" x2="0.535" y2="-0.095" xlink:href="#linear-gradient-15"/>
    <linearGradient id="linear-gradient-23" x1="2.156" y1="-4.971" x2="2.248" y2="-7.691" gradientUnits="objectBoundingBox">
      <stop offset="0" stop-color="#fdf53f"/>
      <stop offset="1" stop-color="#d93c65"/>
    </linearGradient>
    <linearGradient id="linear-gradient-24" x1="1.693" y1="-0.683" x2="1.068" y2="-0.033" xlink:href="#linear-gradient-4"/>
    <linearGradient id="linear-gradient-25" x1="-6.08" y1="10.039" x2="-6.045" y2="9.387" xlink:href="#linear-gradient-15"/>
    <linearGradient id="linear-gradient-26" x1="3.778" y1="-0.158" x2="7.659" y2="-0.963" xlink:href="#linear-gradient-4"/>
    <linearGradient id="linear-gradient-27" x1="0.297" y1="1.153" x2="0.765" y2="-0.532" gradientUnits="objectBoundingBox">
      <stop offset="0" stop-color="#2b3582"/>
      <stop offset="1" stop-color="#150e42"/>
    </linearGradient>
    <linearGradient id="linear-gradient-28" x1="0.585" y1="0.983" x2="0.29" y2="0.017" xlink:href="#linear-gradient-15"/>
    <linearGradient id="linear-gradient-29" x1="0.5" y1="-1.355" x2="0.5" y2="2.548" xlink:href="#linear-gradient-15"/>
    <linearGradient id="linear-gradient-30" x1="0.5" y1="-0.199" x2="0.5" y2="1.048" xlink:href="#linear-gradient-15"/>
    <linearGradient id="linear-gradient-31" x1="-0.373" y1="1.838" x2="1.489" y2="-1.477" xlink:href="#linear-gradient-27"/>
    <linearGradient id="linear-gradient-32" x1="-0.001" y1="0.499" x2="1" y2="0.499" xlink:href="#linear-gradient"/>
    <linearGradient id="linear-gradient-33" x1="0" y1="0.5" x2="1" y2="0.5" xlink:href="#linear-gradient"/>
    <linearGradient id="linear-gradient-34" x1="0" y1="0.502" x2="1" y2="0.502" xlink:href="#linear-gradient"/>
    <linearGradient id="linear-gradient-35" x1="-0.001" y1="0.5" x2="0.999" y2="0.5" xlink:href="#linear-gradient"/>
    <linearGradient id="linear-gradient-36" x1="0" y1="0.5" x2="1" y2="0.5" xlink:href="#linear-gradient"/>
    <linearGradient id="linear-gradient-37" x1="0" y1="0.51" x2="0.995" y2="0.51" xlink:href="#linear-gradient"/>
    <linearGradient id="linear-gradient-38" x1="0.296" y1="1.585" x2="1.864" y2="4.351" gradientUnits="objectBoundingBox">
      <stop offset="0" stop-color="#4042e2"/>
      <stop offset="1" stop-color="#4f52ff"/>
    </linearGradient>
    <linearGradient id="linear-gradient-39" x1="0" y1="0.5" x2="1" y2="0.5" xlink:href="#linear-gradient"/>
    <linearGradient id="linear-gradient-40" x1="0" y1="0.5" x2="1" y2="0.5" xlink:href="#linear-gradient"/>
    <linearGradient id="linear-gradient-41" x1="0.002" y1="0.499" x2="1.002" y2="0.499" xlink:href="#linear-gradient"/>
    <linearGradient id="linear-gradient-42" x1="0" y1="0.496" x2="1" y2="0.496" xlink:href="#linear-gradient"/>
    <linearGradient id="linear-gradient-44" x1="0" y1="0.499" x2="1" y2="0.499" xlink:href="#linear-gradient"/>
    <linearGradient id="linear-gradient-45" x1="0.5" y1="-1.446" x2="0.5" y2="0.3" xlink:href="#linear-gradient-38"/>
    <linearGradient id="linear-gradient-46" x1="0" y1="0.5" x2="1" y2="0.5" xlink:href="#linear-gradient"/>
    <linearGradient id="linear-gradient-47" x1="0" y1="0.5" x2="1" y2="0.5" xlink:href="#linear-gradient"/>
    <linearGradient id="linear-gradient-48" x1="0.003" y1="0.494" x2="1.002" y2="0.494" xlink:href="#linear-gradient"/>
    <linearGradient id="linear-gradient-49" x1="0" y1="0.507" x2="0.983" y2="0.507" xlink:href="#linear-gradient"/>
    <linearGradient id="linear-gradient-50" x1="0" y1="0.5" x2="1" y2="0.5" xlink:href="#linear-gradient"/>
    <linearGradient id="linear-gradient-51" x1="-0.001" y1="0.499" x2="1" y2="0.499" xlink:href="#linear-gradient"/>
    <linearGradient id="linear-gradient-52" x1="0.422" y1="-5.578" x2="0.482" y2="-0.934" xlink:href="#linear-gradient-38"/>
  </defs>
  <g id="Illustration" transform="translate(-466.18 -455.668)">
    <path id="Trazado_122391" data-name="Trazado 122391" d="M912.87,887.461c-10.269,10.811-19.986,17.782-27.664,23.291C794.961,975.5,688.175,956.63,665.48,952.021c-33.513-6.807-98.293-19.964-145.127-75.041-70.858-83.326-59.825-214.6-4.862-301.263,10.052-15.852,63.157-103.83,171.092-117.94,65.321-8.538,141.465,8.683,196.605,54.879C998.934,609.628,990.695,805.529,912.87,887.461Z" transform="translate(-3.711 0)" fill="url(#linear-gradient)"/>
    <ellipse id="Elipse_4128" data-name="Elipse 4128" cx="210.61" cy="227.333" rx="210.61" ry="227.333" transform="translate(476.087 913.656) rotate(-87.49)" fill="#7d97f4"/>
    <g id="Grupo_56514" data-name="Grupo 56514" transform="translate(521.757 529.515)" opacity="0.33">
      <ellipse id="Elipse_4129" data-name="Elipse 4129" cx="178.386" cy="168.517" rx="178.386" ry="168.517" transform="translate(0 0)" fill="#bdd0fb"/>
    </g>
    <g id="Grupo_56515" data-name="Grupo 56515" transform="translate(505.72 508.196)" opacity="0.68">
      <path id="Trazado_122392" data-name="Trazado 122392" d="M1621.756,956.836c-.054,37.133-2.591,74.341-9.105,110.947-1.65,9.145-3.562,18.244-5.842,27.257a260.336,260.336,0,0,1-8.167,26.672,124.176,124.176,0,0,1-12.185,25.124,50.006,50.006,0,0,1-9.134,10.673,25.978,25.978,0,0,1-5.976,3.852A17.843,17.843,0,0,1,1564.4,1163a17.534,17.534,0,0,1-7.028-1.3,24.424,24.424,0,0,1-6.1-3.64,47.537,47.537,0,0,1-9.331-10.5,94.993,94.993,0,0,1-6.9-12.178c-2.032-4.2-3.821-8.5-5.46-12.857a256.758,256.758,0,0,1-8.254-26.643c-2.309-9-4.236-18.108-5.9-27.244-3.319-18.289-5.578-36.749-7.1-55.263s-2.258-37.09-2.338-55.667c-.038-9.288.192-18.574.516-27.854s.84-18.556,1.512-27.818c1.354-18.523,3.386-37,6.416-55.334,1.521-9.163,3.3-18.29,5.433-27.331a261.421,261.421,0,0,1,7.723-26.782c1.554-4.382,3.259-8.717,5.192-12.951a94.066,94.066,0,0,1,6.648-12.285,45.316,45.316,0,0,1,9.136-10.584,23.316,23.316,0,0,1,6.034-3.622,17.048,17.048,0,0,1,6.934-1.239,18.357,18.357,0,0,1,6.854,1.613,26.785,26.785,0,0,1,5.96,3.729,50.948,50.948,0,0,1,9.335,10.405,99.667,99.667,0,0,1,7.093,12.029c2.1,4.152,3.984,8.415,5.712,12.73a255.147,255.147,0,0,1,8.768,26.46c2.476,8.956,4.556,18.02,6.363,27.132C1618.761,882.483,1621.66,919.7,1621.756,956.836Zm-2.2,0q.04-27.773-2.231-55.488a533.356,533.356,0,0,0-7.291-55.039c-1.719-9.094-3.721-18.138-6.1-27.079a250.562,250.562,0,0,0-8.495-26.406c-1.682-4.3-3.509-8.554-5.561-12.694a98.536,98.536,0,0,0-6.921-11.975,50.164,50.164,0,0,0-9.091-10.322,26.074,26.074,0,0,0-5.771-3.676,17.29,17.29,0,0,0-6.588-1.6,16.173,16.173,0,0,0-6.649,1.244,22.623,22.623,0,0,0-5.813,3.562,44.934,44.934,0,0,0-8.873,10.474,92.07,92.07,0,0,0-6.474,12.218c-1.883,4.214-3.537,8.538-5.043,12.908a261.2,261.2,0,0,0-7.452,26.721c-2.054,9.023-3.739,18.132-5.174,27.277-2.861,18.29-4.724,36.74-5.912,55.231s-1.63,37.006-1.606,55.524q-.052,27.775,1.992,55.5c1.4,18.471,3.54,36.876,6.734,55.109,1.6,9.116,3.468,18.183,5.706,27.163a253.9,253.9,0,0,0,8.038,26.529c1.6,4.333,3.355,8.605,5.331,12.774a93.083,93.083,0,0,0,6.727,12.046,45.966,45.966,0,0,0,9.007,10.276,23.162,23.162,0,0,0,5.776,3.5,16.012,16.012,0,0,0,6.548,1.241,16.673,16.673,0,0,0,6.481-1.579,24.793,24.793,0,0,0,5.657-3.709,48.8,48.8,0,0,0,8.822-10.452,125.4,125.4,0,0,0,11.881-24.912,250.891,250.891,0,0,0,7.944-26.558c2.218-8.978,4.058-18.054,5.644-27.172,3.169-18.239,5.282-36.655,6.684-55.117s2.075-37,2.07-55.517Z" transform="translate(-1357.226 -750.788)" fill="#fff"/>
      <path id="Trazado_122393" data-name="Trazado 122393" d="M1237.677,951.789a270.354,270.354,0,0,1-9.572,70.844,228.057,228.057,0,0,1-29.582,64.984,187.121,187.121,0,0,1-22.61,27.742,158.462,158.462,0,0,1-27.847,22.454,133.251,133.251,0,0,1-32.506,14.874,121.234,121.234,0,0,1-70.685.025,134.451,134.451,0,0,1-32.528-14.849,156.8,156.8,0,0,1-27.876-22.447,187.33,187.33,0,0,1-22.648-27.742,228.614,228.614,0,0,1-29.644-65.009,266.267,266.267,0,0,1,.038-141.76,228.364,228.364,0,0,1,29.676-64.969,187.076,187.076,0,0,1,22.648-27.706,158.094,158.094,0,0,1,27.871-22.409,134.787,134.787,0,0,1,32.506-14.813,120.925,120.925,0,0,1,70.6,0A134.137,134.137,0,0,1,1148,765.856a156.962,156.962,0,0,1,27.836,22.427,186.953,186.953,0,0,1,22.616,27.724,228.149,228.149,0,0,1,29.615,64.95A270.489,270.489,0,0,1,1237.677,951.789Zm-2.522,0a268.053,268.053,0,0,0-9.264-70.228,227.418,227.418,0,0,0-28.825-64.629,185.6,185.6,0,0,0-22.2-27.675,154.623,154.623,0,0,0-27.451-22.454,133.187,133.187,0,0,0-32.181-14.829,117.85,117.85,0,0,0-70.025,0,132.57,132.57,0,0,0-32.152,14.874,154.909,154.909,0,0,0-27.418,22.474A185.19,185.19,0,0,0,963.47,817a227.137,227.137,0,0,0-28.763,64.609,258.875,258.875,0,0,0-6.923,34.788,269.544,269.544,0,0,0,.018,70.791,258.72,258.72,0,0,0,6.941,34.781,227.187,227.187,0,0,0,28.792,64.573A185.374,185.374,0,0,0,985.7,1114.2a154.712,154.712,0,0,0,27.411,22.442,133.2,133.2,0,0,0,32.133,14.829,117.526,117.526,0,0,0,69.946.025,132.977,132.977,0,0,0,32.153-14.811,154.519,154.519,0,0,0,27.442-22.429,185.346,185.346,0,0,0,22.2-27.65,227.343,227.343,0,0,0,28.859-64.595A267.979,267.979,0,0,0,1235.154,951.789Z" transform="translate(-879.481 -745.74)" fill="#fff"/>
      <path id="Trazado_122394" data-name="Trazado 122394" d="M775.705,1430.167l47.381-.306,47.381-.181,94.761-.139,94.761.154,47.381.181,47.381.33a.112.112,0,0,1,0,.223l-47.381.331-47.381.19-94.761.154-94.762-.14-47.381-.181-47.381-.306a.167.167,0,0,1,0-.331Z" transform="translate(-759.073 -1305.714)" fill="#fff"/>
      <path id="Trazado_122395" data-name="Trazado 122395" d="M1079.261,991.9l33.64-.306,33.638-.181c11.213-.074,22.426-.067,33.638-.089l33.64-.053,67.278.154,33.638.19,33.633.331a.112.112,0,0,1,0,.223l-33.64.331-33.638.181-67.267.17-33.64-.052c-11.213-.022-22.426-.015-33.638-.089l-33.638-.181-33.64-.306a.167.167,0,0,1,0-.331Z" transform="translate(-1007.662 -946.808)" fill="#fff"/>
      <path id="Trazado_122396" data-name="Trazado 122396" d="M684.7,1868.395l51.5-.3,51.5-.181,103-.139,102.994.154,51.5.181,51.5.329a.112.112,0,0,1,.111.112.111.111,0,0,1-.111.11l-51.5.332-51.5.19-102.994.154-103-.139-51.5-.181-51.5-.3a.167.167,0,1,1,0-.333Z" transform="translate(-684.53 -1664.588)" fill="#fff"/>
      <path id="Trazado_122397" data-name="Trazado 122397" d="M775.68,2306.628l47.381-.306,47.381-.181,94.765-.141,94.761.154,47.381.19,47.381.332a.112.112,0,0,1,0,.223l-47.381.33-47.381.181-94.761.154-94.761-.139-47.39-.156-47.381-.306a.167.167,0,0,1,0-.332Z" transform="translate(-759.047 -2023.461)" fill="#fff"/>
      <path id="Trazado_122398" data-name="Trazado 122398" d="M1383.844,2746.583H1114.731a.581.581,0,0,1,0-1.163h269.113a.581.581,0,0,1,0,1.163Z" transform="translate(-1036.353 -2383.309)" fill="#fff"/>
    </g>
    <rect id="Rectángulo_33855" data-name="Rectángulo 33855" width="111.716" height="126.281" rx="26.38" transform="translate(629.808 706.491)" fill="#f7931e"/>
    <g id="Grupo_56516" data-name="Grupo 56516" transform="translate(648.911 755.989)" opacity="0.71">
      <path id="Trazado_122399" data-name="Trazado 122399" d="M1487.419,2131.328l-11.662-17.2h8.236a2.871,2.871,0,0,1,1.385.259,2.292,2.292,0,0,1,.8.847l7.441,11.87a9.64,9.64,0,0,1,.431-1.177,8.686,8.686,0,0,1,.641-1.177l5.987-9.342a3.3,3.3,0,0,1,.866-.969,1.89,1.89,0,0,1,1.107-.312h7.855l-11.7,16.818,12.18,18.686h-8.238a2.243,2.243,0,0,1-1.506-.485,4.561,4.561,0,0,1-.951-1.107l-7.544-12.353a6.6,6.6,0,0,1-.866,2.075l-6.644,10.278a5.486,5.486,0,0,1-.934,1.087,1.981,1.981,0,0,1-1.384.5h-7.647Z" transform="translate(-1475.27 -2114.123)" fill="#fff"/>
      <path id="Trazado_122400" data-name="Trazado 122400" d="M1693.807,2131.328l-11.662-17.2h8.236a2.859,2.859,0,0,1,1.383.259,2.292,2.292,0,0,1,.8.847L1700,2127.1a9.954,9.954,0,0,1,.433-1.177,8.47,8.47,0,0,1,.641-1.177l5.985-9.342a3.3,3.3,0,0,1,.866-.969,1.9,1.9,0,0,1,1.108-.312h7.854l-11.694,16.818,12.18,18.686h-8.236a2.241,2.241,0,0,1-1.5-.485,4.566,4.566,0,0,1-.953-1.107l-7.542-12.353a6.642,6.642,0,0,1-.866,2.075l-6.644,10.278a5.544,5.544,0,0,1-.934,1.087,1.992,1.992,0,0,1-1.385.5h-7.647Z" transform="translate(-1644.286 -2114.123)" fill="#fff"/>
    </g>
    <rect id="Rectángulo_33856" data-name="Rectángulo 33856" width="111.716" height="126.281" rx="26.38" transform="translate(745.175 707.968)" fill="#472ea6"/>
    <g id="Grupo_56517" data-name="Grupo 56517" transform="translate(764.493 757.476)" opacity="0.71">
      <path id="Trazado_122401" data-name="Trazado 122401" d="M2125.7,2139.548l-11.662-17.2h8.236a2.85,2.85,0,0,1,1.385.259,2.273,2.273,0,0,1,.795.848l7.441,11.87a9.3,9.3,0,0,1,.433-1.177,8.357,8.357,0,0,1,.639-1.177l5.987-9.342a3.276,3.276,0,0,1,.866-.969,1.887,1.887,0,0,1,1.106-.312h7.855l-11.7,16.818,12.18,18.686h-8.234a2.241,2.241,0,0,1-1.507-.486,4.556,4.556,0,0,1-.951-1.106l-7.544-12.354a6.64,6.64,0,0,1-.866,2.075l-6.644,10.278a5.535,5.535,0,0,1-.934,1.086,1.993,1.993,0,0,1-1.384.5h-7.647Z" transform="translate(-2113.55 -2122.342)" fill="#fff"/>
      <path id="Trazado_122402" data-name="Trazado 122402" d="M2332.1,2139.54l-11.662-17.2h8.235a2.841,2.841,0,0,1,1.384.259,2.282,2.282,0,0,1,.8.848l7.438,11.868a9.973,9.973,0,0,1,.433-1.177,8.358,8.358,0,0,1,.641-1.177l5.976-9.342a3.3,3.3,0,0,1,.865-.969,1.9,1.9,0,0,1,1.109-.312h7.854l-11.695,16.818,12.18,18.686h-8.236a2.242,2.242,0,0,1-1.5-.485,4.57,4.57,0,0,1-.953-1.106l-7.542-12.354a6.688,6.688,0,0,1-.866,2.075l-6.628,10.286a5.58,5.58,0,0,1-.934,1.086,1.991,1.991,0,0,1-1.385.5h-7.647Z" transform="translate(-2282.582 -2122.334)" fill="#fff"/>
    </g>
    <rect id="Rectángulo_33857" data-name="Rectángulo 33857" width="111.716" height="126.281" rx="26.38" transform="translate(513.579 703.749)" fill="#472ea6"/>
    <g id="Grupo_56518" data-name="Grupo 56518" transform="translate(532.627 754.055)" opacity="0.71">
      <path id="Trazado_122403" data-name="Trazado 122403" d="M845.265,2120.647l-11.662-17.2h8.236a2.867,2.867,0,0,1,1.385.259,2.285,2.285,0,0,1,.795.847l7.441,11.87a9.351,9.351,0,0,1,.433-1.177,8.443,8.443,0,0,1,.639-1.177l5.987-9.343a3.3,3.3,0,0,1,.866-.969,1.888,1.888,0,0,1,1.106-.312h7.855l-11.7,16.817,12.182,18.686H860.6a2.256,2.256,0,0,1-1.507-.484,4.606,4.606,0,0,1-.951-1.108L850.595,2125a6.6,6.6,0,0,1-.866,2.075l-6.644,10.278a5.486,5.486,0,0,1-.934,1.087,1.974,1.974,0,0,1-1.384.5H833.12Z" transform="translate(-833.12 -2103.443)" fill="#fff"/>
      <path id="Trazado_122404" data-name="Trazado 122404" d="M1051.637,2120.648l-11.662-17.2h8.236a2.857,2.857,0,0,1,1.384.259,2.29,2.29,0,0,1,.8.847l7.439,11.87a9.951,9.951,0,0,1,.433-1.177,8.47,8.47,0,0,1,.641-1.177l5.987-9.342a3.3,3.3,0,0,1,.864-.969,1.9,1.9,0,0,1,1.108-.312h7.85l-11.7,16.818,12.18,18.686h-8.236a2.249,2.249,0,0,1-1.5-.484,4.612,4.612,0,0,1-.952-1.108l-7.537-12.348a6.6,6.6,0,0,1-.866,2.075l-6.644,10.278a5.5,5.5,0,0,1-.934,1.086,1.991,1.991,0,0,1-1.383.5h-7.649Z" transform="translate(-1002.12 -2103.443)" fill="#fff"/>
    </g>
    <rect id="Rectángulo_33858" data-name="Rectángulo 33858" width="122.775" height="138.781" rx="26.38" transform="translate(466.18 615.485)" fill="#f7931e"/>
    <path id="Trazado_122405" data-name="Trazado 122405" d="M577.871,1587.848a52.383,52.383,0,0,1-1.789,14.516,29.775,29.775,0,0,1-4.949,10.192,20.072,20.072,0,0,1-7.468,5.976,22.146,22.146,0,0,1-9.3,1.966,21.84,21.84,0,0,1-9.259-1.966,19.9,19.9,0,0,1-7.4-5.987,29.739,29.739,0,0,1-4.906-10.186,60.59,60.59,0,0,1,0-29.055,29.667,29.667,0,0,1,4.906-10.162,19.9,19.9,0,0,1,7.4-5.989,21.84,21.84,0,0,1,9.259-1.967,22.145,22.145,0,0,1,9.3,1.967,20.017,20.017,0,0,1,7.468,5.989,29.748,29.748,0,0,1,4.949,10.162A52.3,52.3,0,0,1,577.871,1587.848Zm-11.269,0a54.061,54.061,0,0,0-1.016-11.49,23.059,23.059,0,0,0-2.716-7.243,9.926,9.926,0,0,0-3.91-3.779,10.341,10.341,0,0,0-4.6-1.087,10.111,10.111,0,0,0-4.527,1.087,9.857,9.857,0,0,0-3.866,3.779,23.13,23.13,0,0,0-2.673,7.243,66.894,66.894,0,0,0,0,22.98,23.131,23.131,0,0,0,2.673,7.243,9.858,9.858,0,0,0,3.866,3.779,10.089,10.089,0,0,0,4.527,1.087,10.322,10.322,0,0,0,4.6-1.087,9.96,9.96,0,0,0,3.91-3.779,23.025,23.025,0,0,0,2.716-7.243,54.062,54.062,0,0,0,1.016-11.49Z" transform="translate(-53.107 -900.411)" fill="#fff"/>
    <path id="Trazado_122406" data-name="Trazado 122406" d="M843.121,1620.541a29.169,29.169,0,0,1-9.036-1.325,20.863,20.863,0,0,1-7-3.756,16.825,16.825,0,0,1-4.527-5.878,17.888,17.888,0,0,1-1.614-7.689,16.074,16.074,0,0,1,2.783-9.567q2.783-3.911,8.66-5.809a14.792,14.792,0,0,1-7-5.523,16.718,16.718,0,0,1-.838-15.378,16.592,16.592,0,0,1,4.13-5.458,19.255,19.255,0,0,1,6.338-3.622,25.868,25.868,0,0,1,16.218,0,19.257,19.257,0,0,1,6.338,3.622,16.6,16.6,0,0,1,4.13,5.458,15.644,15.644,0,0,1,1.481,6.76,15.4,15.4,0,0,1-2.341,8.618,14.932,14.932,0,0,1-6.983,5.523q5.874,1.9,8.661,5.811a16.035,16.035,0,0,1,2.783,9.567,17.928,17.928,0,0,1-1.612,7.689,16.85,16.85,0,0,1-4.527,5.878,20.8,20.8,0,0,1-7,3.756A29.2,29.2,0,0,1,843.121,1620.541Zm0-8.527a13.264,13.264,0,0,0,4.728-.773,9.737,9.737,0,0,0,3.424-2.144,8.854,8.854,0,0,0,2.1-3.271,11.7,11.7,0,0,0,.706-4.109q0-5.251-2.917-7.955t-8.042-2.694q-5.125,0-8.042,2.694t-2.917,7.955a11.658,11.658,0,0,0,.708,4.109,8.827,8.827,0,0,0,2.1,3.27,9.735,9.735,0,0,0,3.424,2.144A13.312,13.312,0,0,0,843.121,1612.014Zm0-29.517a10.586,10.586,0,0,0,4.464-.84,7.858,7.858,0,0,0,2.915-2.231,8.494,8.494,0,0,0,1.57-3.182,14.63,14.63,0,0,0,.464-3.691,10.339,10.339,0,0,0-.574-3.44,8.382,8.382,0,0,0-1.724-2.9,8.238,8.238,0,0,0-2.917-2.01,12.1,12.1,0,0,0-8.4,0,8.463,8.463,0,0,0-2.939,2.01,7.969,7.969,0,0,0-1.724,2.9,10.71,10.71,0,0,0-.543,3.44,14.634,14.634,0,0,0,.465,3.691,8.467,8.467,0,0,0,1.568,3.182,7.858,7.858,0,0,0,2.915,2.231,10.541,10.541,0,0,0,4.455.838Z" transform="translate(-290.518 -900.45)" fill="#fff"/>
    <path id="Trazado_122407" data-name="Trazado 122407" d="M629.79,2087.836s22.092,28.285-3.113,57.053l-9.476-.882s18.241-29.291,10.115-52.637l-13.422.98-7.424-4.839Z" transform="translate(-114.886 -1336.34)" fill="url(#linear-gradient-2)"/>
    <path id="Trazado_122408" data-name="Trazado 122408" d="M517.091,2820.285s-17.9,39.013-27.289,55.171c0,0-1.865,10.166,0,13.364l1.59.706-7.424-.221s-.659-13.675-.145-14.439a1.888,1.888,0,0,1,1.545-.714s3.182-25.2,12.393-30.58l8.931-30.743Z" transform="translate(-14.287 -1930.316)" fill="url(#linear-gradient-3)"/>
    <path id="Trazado_122409" data-name="Trazado 122409" d="M481.729,3168.482c.013.181-5.795.1-8.946.04a2.508,2.508,0,0,1-2.4-1.977L468,3154.035a2.249,2.249,0,0,1,1.708-2.613l1.329-.3s1.9,2.6,1.3,5.049-1.128,8.79.38,9.531,5.847.867,5.847.867S481.631,3166.869,481.729,3168.482Z" transform="translate(-1.457 -2207.347)" fill="url(#linear-gradient-4)"/>
    <path id="Trazado_122410" data-name="Trazado 122410" d="M676.445,3218.751a.656.656,0,0,1-.331,1.224c-5.275-.053-17.1-.219-18.148-.657-1.356-.563.494-5.433,2.441-7.088l10.755,3.511Z" transform="translate(-156.675 -2257.391)" fill="url(#linear-gradient-5)"/>
    <path id="Trazado_122411" data-name="Trazado 122411" d="M692.926,2840.3s-11.566,55.955-14.838,66.873l7.74,4.857s-3.879-.659-6.755-.867-5.523-3.511-5.523-3.511l.929-1.478s2.9-55.653,2.193-61.97Z" transform="translate(-169.819 -1952.812)" fill="url(#linear-gradient-6)"/>
    <path id="Trazado_122412" data-name="Trazado 122412" d="M826.484,2044.89s1.6,29.107-24.9,43.982l6.38,14.552s23.994-14.512,23.106-54.094a4.6,4.6,0,0,1,1.126-3.1l5.1-5.914a9.155,9.155,0,0,0,1.947-8.2l-.672-2.682a1.391,1.391,0,0,0-2.048-.866l-.534.309a9.359,9.359,0,0,0-3.843,4.272l-2.5,5.6a5.38,5.38,0,0,1-5.375,3.164l-1.548-.134Z" transform="translate(-274.664 -1287.918)" fill="url(#linear-gradient-7)"/>
    <path id="Trazado_122413" data-name="Trazado 122413" d="M676.29,2350.159c-4.433,1.229-19.454,5.181-28.83,5.02l5.758,32.489-.46,5.3,18.771-.085s5.284-12.272,9.454-18.389c1.2-1.768.308-3.875-.375-5.9l.938-.625a2.552,2.552,0,0,0,1.01-2.917l-4.578-13.985A1.4,1.4,0,0,0,676.29,2350.159Z" transform="translate(-148.453 -1551.388)" fill="url(#linear-gradient-8)"/>
    <path id="Trazado_122414" data-name="Trazado 122414" d="M633.071,2568.06l-.362,3.21s5.3,15.887-2.653,52.991c0,0-17.232,4.889-31.4-6.8,0,0,3.995-35.02,5.087-36.651,5.433-8.125,9.054-9.891,9.054-9.891l.165-3.508S628.108,2570.148,633.071,2568.06Z" transform="translate(-108.49 -1729.338)" fill="url(#linear-gradient-9)"/>
    <path id="Trazado_122415" data-name="Trazado 122415" d="M694.536,2310.439c.067-.087-3.919-12.029-3.919-12.029l-5.7.518-2.229,13.549S691.619,2314.282,694.536,2310.439Z" transform="translate(-177.303 -1509.05)" fill="url(#linear-gradient-10)"/>
    <path id="Trazado_122416" data-name="Trazado 122416" d="M649.754,2191.763c.38.237,12.2,5.119,9.657,17.384a2.306,2.306,0,0,1-1.309,1.641,20.04,20.04,0,0,1-9.932,1.644c-6.19-.63-10.246-11.432-10.074-14.576S645.982,2189.414,649.754,2191.763Z" transform="translate(-140.781 -1421.237)" fill="url(#linear-gradient-11)"/>
    <path id="Trazado_122417" data-name="Trazado 122417" d="M545.925,2166.774c.31.042,6.829,2.311,3.6,7.033s-4.446,7.5-2.915,9.578c1.393,1.89,4.476.813,4.208,4.744a2.2,2.2,0,0,0,.94,1.992c2.9,1.968,10,8.026,2.972,16.66a2.2,2.2,0,0,0-.248,2.461c2.059,3.692,6.383,14.509-9.27,20.508-15.468,5.929-21.053-4.183-22.614-8.223a2.155,2.155,0,0,0-2.133-1.365c-1.7.08-4.109-.2-4-2.473a5.679,5.679,0,0,1,1.945-3.607,2.155,2.155,0,0,0-.413-3.393,4.22,4.22,0,0,1-2.086-2.622c-.938-3.473.934-13.86,10.889-15.62a2.35,2.35,0,0,0,1.822-1.758v-.038a2.153,2.153,0,0,0-.8-2.117,5.592,5.592,0,0,1-1.972-7.278,8.162,8.162,0,0,1,6.376-4.826,2.173,2.173,0,0,0,1.778-2.592C533.3,2170.521,533.918,2165.2,545.925,2166.774Z" transform="translate(-40.548 -1401.018)" fill="url(#linear-gradient-12)"/>
    <path id="Trazado_122418" data-name="Trazado 122418" d="M3102.219,3243.382c3.566-.107,5.409-.556,6.362-.972,0,.378,0,.764-.011,1.165a.749.749,0,0,1-.672.766l-19.572-.134a.965.965,0,0,1-.724-1.392A138.224,138.224,0,0,0,3102.219,3243.382Z" transform="translate(-2146.651 -2282.106)" fill="url(#linear-gradient-13)"/>
    <path id="Trazado_122419" data-name="Trazado 122419" d="M3107.436,3190.734a3.627,3.627,0,0,0-3.569-2.8l-1.63.056c-8.692,2.233-13.1,7.379-14.829,9.959a.985.985,0,0,0-.078.158,137.889,137.889,0,0,0,14.612.57c3.566-.107,5.409-.556,6.362-.974a28.072,28.072,0,0,0-.867-6.966Z" transform="translate(-2146.501 -2237.49)" fill="url(#linear-gradient-14)"/>
    <path id="Trazado_122420" data-name="Trazado 122420" d="M3174.807,3150.42l-1.463,7.044a1.151,1.151,0,0,1-.985.947,9.65,9.65,0,0,1-2.267-.036,1.446,1.446,0,0,1-1.146-1.7l1.018-6.254Z" transform="translate(-2213.319 -2206.774)" fill="url(#linear-gradient-15)"/>
    <path id="Trazado_122421" data-name="Trazado 122421" d="M2966.033,3238.744c3.765-.107,5.713-.556,6.72-.974,0,.38,0,.766-.013,1.166a.748.748,0,0,1-.709.766l-20.674-.136a.956.956,0,0,1-.759-1.393A153.271,153.271,0,0,0,2966.033,3238.744Z" transform="translate(-2034.45 -2278.306)" fill="url(#linear-gradient-16)"/>
    <path id="Trazado_122422" data-name="Trazado 122422" d="M2951,3193.608a1.025,1.025,0,0,1,.082-.158c1.825-2.586,6.476-7.732,15.666-9.959l4.407-.141s1.963,3.457,2,9.86c-1.007.418-2.955.867-6.72.974C2960.619,3194.343,2953.716,3193.836,2951,3193.608Z" transform="translate(-2034.858 -2233.74)" fill="url(#linear-gradient-17)"/>
    <path id="Trazado_122423" data-name="Trazado 122423" d="M3038.791,3141.076c-.05.333-.662,5.393-.905,7.356a.971.971,0,0,1-.818.876,9.966,9.966,0,0,1-3.07-.047,1.322,1.322,0,0,1-1-1.326V3140Z" transform="translate(-2102.005 -2198.241)" fill="url(#linear-gradient-18)"/>
    <path id="Trazado_122424" data-name="Trazado 122424" d="M3036.917,2636s-10.774,40.945-10.579,92.467a1.992,1.992,0,0,0,1.583,1.945,23.369,23.369,0,0,0,4.994.578,1.852,1.852,0,0,0,1.764-1.545c1.51-8.861,10.179-58.766,15.119-66.869,0,0,3.249,44.449,2.211,67.51a1.087,1.087,0,0,0,.963,1.137,18.4,18.4,0,0,0,4.009-.011,1.467,1.467,0,0,0,1.3-1.242c1.076-7.5,7.269-52.125,7.006-84.275-.014-1.811-4.8-9.7-4.8-9.7Z" transform="translate(-2096.551 -1785.507)" fill="url(#linear-gradient-19)"/>
    <path id="Trazado_122425" data-name="Trazado 122425" d="M2862.716,2547.681c-.118-1.6-4.165-2.354-7.244-2.046-1.059.108-2.124.46-2.354,1s.237,1.014,1.224,1.231c.154.034.56.181.139.022.125.049.261.091.384.14l.112.047c.13.073.4.067.543.138-.07-.046-.286.261.212-.06l.018.013c.015,0-.038.123-.027.125s-.063.049-.076.047a2.529,2.529,0,0,1,.241.21,4.462,4.462,0,0,0,1.76.813C2859.866,2549.945,2862.8,2548.795,2862.716,2547.681Z" transform="translate(-1954.654 -1711.451)" fill="url(#linear-gradient-20)"/>
    <path id="Trazado_122426" data-name="Trazado 122426" d="M2866.32,2560.77a.544.544,0,0,0,.163.067h0C2866.443,2560.812,2866.383,2560.8,2866.32,2560.77Z" transform="translate(-1965.512 -1723.9)" fill="url(#linear-gradient-21)"/>
    <path id="Trazado_122427" data-name="Trazado 122427" d="M2795.429,2458.348a2.326,2.326,0,0,0-3.225-.109c-2.392,1.981-4.136,4.234-7.149,5.264-2.986,1.02-10.8,5.333-18.856,5.711-2.461-1.267-5.082-.226-7.756.111-1.653.208-.888,1.686.854,1.789a5.275,5.275,0,0,1,2.242.313l-.1.076c-1.421,2.832-2.28,2.412-6.04,4.156s.013,2.662,1.746,2.662c11.7-.929,7.857-2.419,15.03-4.4a88.076,88.076,0,0,1,8.971-2.231c6.5-1.421,12.207-4.29,16.006-9.959A2.212,2.212,0,0,0,2795.429,2458.348Z" transform="translate(-1873.358 -1639.448)" fill="url(#linear-gradient-22)"/>
    <path id="Trazado_122428" data-name="Trazado 122428" d="M2973.885,2354.777c.236-1.521.391-3.057.489-4.594.089-1.425.342-3.156-.212-4.527a2.8,2.8,0,0,0-3.156-1.849c-3.6.268-5.566,3.819-7.158,6.742q-1.716,3.151-3.44,6.306c-1,1.845-2.427,3.9-2.954,5.932-.165.643,3.147,3.28,4.391,3.919,1.5.771,2.99,1.651,4.54,2.316,3.156,1.353,3.156,1.353,5.021-4.85A48.186,48.186,0,0,0,2973.885,2354.777Z" transform="translate(-2040.138 -1546.188)" fill="url(#linear-gradient-23)"/>
    <path id="Trazado_122429" data-name="Trazado 122429" d="M3036.048,2360.855c-.5-17.245-11.807-38.767-11.807-38.767-4.036-4.8-8.657-7.062-13.116-6.023-.1.045-.181.094-.279.143-3.156.612-6.219,3.079-8.873,4.989a20.647,20.647,0,0,0-3.547,5.706c-1.34,3.332-1.288,7.279-1.338,10.162-.087,4.826,12.341,35.1,11.975,40.121-.047.652,7.932,7.8,27.845-2.4C3036.911,2374.792,3036.677,2365.179,3036.048,2360.855Z" transform="translate(-2072.6 -1523.305)" fill="url(#linear-gradient-24)"/>
    <rect id="Rectángulo_33859" data-name="Rectángulo 33859" width="118.071" height="133.463" rx="26.38" transform="translate(815.84 706.188)" fill="#f7931e"/>
    <path id="Trazado_122430" data-name="Trazado 122430" d="M2862.621,2459.135s-1.686,7.062-11.99,10.112c-5.418,1.6-11,3.958-16.676,4.878-2.619.426-3.8.46-6.17,1.811-.552.315-3.509,2.385-4.391,2.782-2.763,1.24-6.144,1.123-3.918,2.758,2.937,2.158,7.511,1.776,10.55.391,2.675-1.218,2.193-1.7,4.444-1.939a95.65,95.65,0,0,0,17.649-3.517c5.773-1.829,7.5-1.449,12.143-4.319s7.243-11.285,10-14.534C2875.116,2456.538,2862.621,2459.135,2862.621,2459.135Z" transform="translate(-1926.56 -1639.183)" fill="url(#linear-gradient-25)"/>
    <path id="Trazado_122431" data-name="Trazado 122431" d="M3068.08,2343.742c-2.8-2.658-7.372-2.691-9.458.826a1.393,1.393,0,0,0-.145.333c-1.38,1.992-1.82,4.924-2.506,7.108-.543,1.726-1.219,3.488-1.811,5.26q-1.516,3.346-3.024,6.7c-.7,1.556,6.186,4.971,8.565,5.3,2.1.293,4.833,1.068,6.606-.445,1.617-1.384,2.492-3.933,3.26-5.865a27.162,27.162,0,0,0,1.836-6.7C3071.935,2352.083,3071.31,2346.811,3068.08,2343.742Z" transform="translate(-2116.82 -1544.607)" fill="url(#linear-gradient-26)"/>
    <path id="Trazado_122432" data-name="Trazado 122432" d="M2972.155,2149.232c-1.64-3.111-4.527-3.033-7.187-3.089-6.122-.127-13.581-.761-18.612,4.518a7.532,7.532,0,0,0-2.144,4.527c-.161,1.63,10.684,8.256,11.5,10,2.037,4.38,11.267,11.8,12.777,9.612a30.445,30.445,0,0,0,5.2-16.946C2973.7,2155.023,2973.433,2151.656,2972.155,2149.232Z" transform="translate(-2029.297 -1384.282)" fill="url(#linear-gradient-27)"/>
    <path id="Trazado_122433" data-name="Trazado 122433" d="M3031.3,2270.671c-.525-.918-1-1.724-2.1-1.8a6.917,6.917,0,0,0-3.539.92,1.134,1.134,0,0,0-.478,1.237c.047.119.089.239.132.362.04,1.329.114,2.653.2,3.984.022.362,0,.835.034,1.293a3.67,3.67,0,0,0-.284.493,2.621,2.621,0,0,0-.134.353,3.826,3.826,0,0,0-.505,3.344,4.086,4.086,0,0,0,4.889,2.173,7.238,7.238,0,0,0,4.232-3.663C3034.668,2277.5,3031.834,2271.605,3031.3,2270.671Z" transform="translate(-2094.985 -1484.854)" fill="url(#linear-gradient-28)"/>
    <path id="Trazado_122434" data-name="Trazado 122434" d="M3070.681,2229.285a4.146,4.146,0,0,0-2.421-3.87,1.715,1.715,0,0,0-1.66.438l-.163.132c-.587.469-.273,4.018-.272,5.02,0,1.7.982,3.2,2.705,2.293C3070.23,2232.583,3070.757,2230.718,3070.681,2229.285Z" transform="translate(-2129.098 -1449.204)" fill="url(#linear-gradient-29)"/>
    <path id="Trazado_122435" data-name="Trazado 122435" d="M2987.761,2197.229a8.2,8.2,0,0,0-3.75-3.44c-.8-.371-.181-.724-1.123-.951a17.087,17.087,0,0,0-4.927-.818,6.209,6.209,0,0,0-4.786,2.423c-2.28,2.736-2.414,4.929-1.934,8.187.512,3.47,1.945,11.839,5.071,13.9s5.72,1.248,7.2.123c1-.757,6.934-5.795,6.266-10.664C2989.3,2202.6,2989.484,2200.345,2987.761,2197.229Z" transform="translate(-2051.249 -1421.925)" fill="url(#linear-gradient-30)"/>
    <path id="Trazado_122436" data-name="Trazado 122436" d="M3038.957,2191.342a1.136,1.136,0,0,0-2.093-.165,8.143,8.143,0,0,0-1.086-1.63c-.764-.889-4.087-1.831-3.939-1.494,1.22,2.765,3.24,5.251,3.553,7.7s-.2,5.393-.032,6.611,2.191-.478,2.457-1.141a24.919,24.919,0,0,0,.755-3.714C3039.043,2195.673,3039.562,2193.177,3038.957,2191.342Z" transform="translate(-2101.053 -1418.62)" fill="url(#linear-gradient-31)"/>
    <path id="Trazado_122437" data-name="Trazado 122437" d="M2503.8,2117.092h7.62v5.99a2.093,2.093,0,0,1-.543,1.449,2.036,2.036,0,0,1-1.592.607H2503.8v14.789h-9.054v-14.789H2469.2a2.917,2.917,0,0,1-2.848-2.262l-1.047-5.241L2494,2079.3h9.8Zm-9.054-19.818q0-1.338.085-2.9t.293-3.227l-18.809,25.942h18.435Z" transform="translate(-1637.11 -1329.617)" fill="#fff"/>
    <path id="Trazado_122438" data-name="Trazado 122438" d="M2770.961,2131.962h12.276V2096.65q0-2.054.125-4.315l-8.7,7.283a3.094,3.094,0,0,1-1.11.628,3.87,3.87,0,0,1-1.11.167,3.3,3.3,0,0,1-1.53-.362,2.869,2.869,0,0,1-1.027-.818l-3.26-4.482,18.47-15.711h8.511v52.915h10.892v7.751h-33.533Z" transform="translate(-1883.866 -1329.404)" fill="#fff"/>
    <path id="Trazado_122439" data-name="Trazado 122439" d="M1794.036,1049.836a1.389,1.389,0,0,1,.308-1.63q.831-.762,1.688-1.5a1.39,1.39,0,0,1,1.822,2.1q-.826.724-1.63,1.449a1.391,1.391,0,0,1-1.965-.083A1.5,1.5,0,0,1,1794.036,1049.836Z" transform="translate(-1087.287 -483.728)" fill="url(#linear-gradient-32)"/>
    <path id="Trazado_122440" data-name="Trazado 122440" d="M1834.078,955.862a1.391,1.391,0,0,1,.437-1.74c1.2-.866,2.446-1.711,3.7-2.51a1.39,1.39,0,1,1,1.5,2.341c-1.208.771-2.408,1.588-3.571,2.425a1.391,1.391,0,0,1-1.939-.317A1.481,1.481,0,0,1,1834.078,955.862Zm9.811-6.034a1.392,1.392,0,0,1,.608-1.847q.788-.409,1.592-.8c.8-.393,1.615-.779,2.427-1.144a1.391,1.391,0,0,1,1.144,2.535c-.784.362-1.573.724-2.354,1.106-.516.254-1.029.514-1.537.777a1.389,1.389,0,0,1-1.874-.592Zm10.575-4.563a1.363,1.363,0,0,1-.065-.156,1.391,1.391,0,0,1,.853-1.771c1.4-.489,2.832-.945,4.255-1.356a1.389,1.389,0,1,1,.771,2.669c-1.374.4-2.756.838-4.109,1.313a1.393,1.393,0,0,1-1.706-.7Zm11.115-3.006a1.394,1.394,0,0,1,.983-1.977c1.449-.283,2.937-.529,4.408-.724a1.391,1.391,0,0,1,.377,2.754c-1.42.194-2.852.431-4.255.7a1.391,1.391,0,0,1-1.512-.755Zm11.434-1.365a1.392,1.392,0,0,1,1.184-1.992c1.483-.069,2.988-.094,4.474-.08a1.389,1.389,0,1,1-.027,2.778c-1.434-.013-2.9.013-4.319.078A1.389,1.389,0,0,1,1877.014,940.894Zm11.521.313a1.391,1.391,0,0,1,1.387-1.992c1.474.147,2.966.339,4.435.569a1.391,1.391,0,0,1-.429,2.747c-1.418-.223-2.859-.407-4.283-.543a1.387,1.387,0,0,1-1.11-.782Zm11.35,1.977a1.389,1.389,0,0,1,1.585-1.961c1.449.362,2.9.764,4.3,1.2a1.391,1.391,0,0,1-.82,2.656c-1.367-.422-2.765-.813-4.165-1.161a1.389,1.389,0,0,1-.9-.735Zm10.946,3.589a1.389,1.389,0,0,1,1.773-1.9c1.371.561,2.745,1.168,4.085,1.811a1.389,1.389,0,0,1-1.192,2.51c-1.295-.614-2.622-1.2-3.946-1.744A1.386,1.386,0,0,1,1910.831,946.773Zm10.322,5.123a1.389,1.389,0,0,1,1.952-1.811c1.278.753,2.552,1.552,3.781,2.372a1.389,1.389,0,0,1-1.541,2.312c-1.188-.791-2.417-1.563-3.652-2.293a1.363,1.363,0,0,1-.545-.588Zm39.085,71.038a1.358,1.358,0,0,1-.139-.657c.045-1.427.051-2.879.018-4.313a1.389,1.389,0,1,1,2.778-.065c.034,1.487.029,2.99-.02,4.469a1.389,1.389,0,0,1-2.637.567Zm-29.616-64.488a1.389,1.389,0,0,1,2.117-1.7c1.157.929,2.3,1.9,3.4,2.9a1.391,1.391,0,1,1-1.86,2.066c-1.059-.954-2.164-1.892-3.281-2.792a1.358,1.358,0,0,1-.38-.474Zm29.155,52.98a1.419,1.419,0,0,1-.134-.456c-.161-1.418-.362-2.856-.608-4.27a1.391,1.391,0,1,1,2.74-.469c.25,1.467.464,2.955.63,4.424a1.391,1.391,0,0,1-2.627.771Zm-20.729-45.135a1.391,1.391,0,0,1,2.267-1.559c1.01,1.087,1.992,2.22,2.946,3.359a1.39,1.39,0,0,1-2.14,1.773c-.905-1.1-1.869-2.189-2.843-3.241a1.4,1.4,0,0,1-.243-.331Zm18.581,33.817a1.388,1.388,0,0,1-.1-.259c-.362-1.38-.777-2.772-1.22-4.14a1.389,1.389,0,1,1,2.642-.858c.46,1.414.885,2.856,1.268,4.284a1.391,1.391,0,0,1-2.59.972Zm-11.394-24.828a1.389,1.389,0,0,1,2.392-1.4c.842,1.222,1.659,2.486,2.426,3.75a1.391,1.391,0,0,1-2.374,1.449c-.742-1.221-1.53-2.439-2.343-3.622a1.592,1.592,0,0,1-.105-.179Zm7.645,13.933c-.011-.022-.022-.045-.031-.069-.543-1.268-1.126-2.55-1.733-3.788l-.067-.136a1.389,1.389,0,0,1,2.32-1.5l.092.1.085.181c.652,1.324,1.277,2.687,1.86,4.055a1.391,1.391,0,0,1-2.526,1.159Z" transform="translate(-1120.077 -395.659)" fill="url(#linear-gradient-33)"/>
    <path id="Trazado_122441" data-name="Trazado 122441" d="M2526,1435.99a1.391,1.391,0,0,1-.125-.822q.163-1.086.3-2.162a1.39,1.39,0,0,1,2.758.341q-.14,1.121-.308,2.24a1.391,1.391,0,0,1-2.622.4Z" transform="translate(-1686.704 -799.358)" fill="url(#linear-gradient-34)"/>
    <path id="Trazado_122442" data-name="Trazado 122442" d="M2350.356,1729.654a1.389,1.389,0,0,1,.429-1.735q.885-.645,1.747-1.309a1.39,1.39,0,0,1,1.7,2.2q-.893.69-1.811,1.356a1.389,1.389,0,0,1-1.941-.306A1.187,1.187,0,0,1,2350.356,1729.654Z" transform="translate(-1542.865 -1040.556)" fill="url(#linear-gradient-35)"/>
    <path id="Trazado_122443" data-name="Trazado 122443" d="M1661.164,1389.485a1.39,1.39,0,1,1,2.474-1.267c.663,1.242,1.369,2.484,2.1,3.69a1.389,1.389,0,0,1-2.378,1.438c-.755-1.248-1.487-2.535-2.173-3.821Zm-3.027-6.338-.033-.071q-.234-.543-.458-1.1c-.4-.989-.793-1.992-1.155-2.99a1.39,1.39,0,0,1,2.611-.951c.349.962.724,1.934,1.117,2.9.145.362.294.71.442,1.061a1.389,1.389,0,1,1-2.524,1.159Zm9.054,15.936a1.391,1.391,0,0,1,2.369-1.434c.835,1.139,1.709,2.267,2.6,3.354a1.389,1.389,0,1,1-2.147,1.764c-.926-1.126-1.833-2.294-2.7-3.473a1.311,1.311,0,0,1-.123-.214Zm-12.756-26.645a1.416,1.416,0,0,1-.1-.255c-.378-1.416-.724-2.856-1.021-4.279a1.389,1.389,0,1,1,2.716-.571c.29,1.375.621,2.765.987,4.131a1.391,1.391,0,0,1-2.589.974Zm20.1,35.279a1.389,1.389,0,0,1,2.238-1.586c.985,1,2.012,1.992,3.051,2.943a1.389,1.389,0,1,1-1.874,2.052c-1.076-.983-2.139-2.008-3.16-3.046a1.4,1.4,0,0,1-.259-.366ZM1652.3,1361.3a1.34,1.34,0,0,1-.132-.451c-.181-1.449-.308-2.926-.4-4.38a1.391,1.391,0,0,1,2.774-.181c.089,1.4.219,2.827.384,4.228a1.389,1.389,0,0,1-2.626.779Zm30.721,53.905a1.391,1.391,0,0,1,2.09-1.72c1.121.855,2.278,1.689,3.441,2.481a1.39,1.39,0,0,1-1.563,2.3c-1.2-.819-2.4-1.682-3.564-2.568A1.376,1.376,0,0,1,1683.022,1415.208Zm-31.253-65.235a1.381,1.381,0,0,1-.141-.647c.038-1.449.116-2.933.232-4.391a1.39,1.39,0,0,1,2.771.221c-.112,1.409-.181,2.836-.224,4.241a1.389,1.389,0,0,1-2.637.576Zm40.728,71.449a1.389,1.389,0,0,1,1.934-1.829c1.23.686,2.493,1.349,3.759,1.968a1.391,1.391,0,0,1-1.222,2.5c-1.309-.643-2.62-1.327-3.893-2.039a1.383,1.383,0,0,1-.576-.6Zm10.26,4.811a1.389,1.389,0,0,1,1.746-1.91c1.313.507,2.66.985,4,1.42a1.391,1.391,0,0,1-.858,2.644c-1.389-.451-2.783-.945-4.143-1.469a1.381,1.381,0,0,1-.743-.684Zm10.838,3.316a1.389,1.389,0,0,1,1.557-1.967c1.376.317,2.778.6,4.165.838a1.391,1.391,0,1,1-.476,2.74c-1.436-.25-2.9-.543-4.311-.87a1.384,1.384,0,0,1-.933-.739Zm11.2,1.747a1.389,1.389,0,0,1,1.364-1.992c1.407.118,2.834.2,4.243.239a1.39,1.39,0,1,1-.079,2.778c-1.449-.042-2.937-.125-4.395-.248a1.386,1.386,0,0,1-1.13-.777Zm11.34.132a1.42,1.42,0,0,1-.14-.529,1.389,1.389,0,0,1,1.3-1.47c1.405-.085,2.828-.21,4.228-.362a1.391,1.391,0,0,1,.318,2.762c-1.448.167-2.924.3-4.38.384a1.392,1.392,0,0,1-1.329-.784Zm11.227-1.488a1.292,1.292,0,0,1-.114-.333,1.389,1.389,0,0,1,1.086-1.643c1.378-.284,2.769-.61,4.132-.971a1.389,1.389,0,0,1,.708,2.687c-1.411.373-2.85.71-4.279,1.005a1.389,1.389,0,0,1-1.523-.746Zm10.907-3.078a1.259,1.259,0,0,1-.061-.145,1.389,1.389,0,0,1,.837-1.778c1.05-.379,2.108-.784,3.144-1.208.27-.11.543-.223.811-.337a1.391,1.391,0,1,1,1.087,2.561l-.837.348c-1.074.44-2.173.86-3.259,1.251a1.389,1.389,0,0,1-1.709-.688Zm10.367-4.581a1.389,1.389,0,0,1,.6-1.842c1.246-.657,2.49-1.358,3.7-2.084a1.389,1.389,0,1,1,1.429,2.383c-1.251.752-2.535,1.478-3.83,2.159a1.389,1.389,0,0,1-1.878-.579Z" transform="translate(-970.781 -727.186)" fill="url(#linear-gradient-36)"/>
    <path id="Trazado_122444" data-name="Trazado 122444" d="M1657.894,1296.544a1.384,1.384,0,0,1-.123-.846q.181-1.114.411-2.222a1.389,1.389,0,1,1,2.716.543c-.141.712-.273,1.429-.4,2.146a1.389,1.389,0,0,1-2.617.378Z" transform="translate(-975.796 -685.096)" fill="url(#linear-gradient-37)"/>
    <path id="Trazado_122445" data-name="Trazado 122445" d="M1772.678,1094.9a.956.956,0,0,0,.208,1.087l8.419,8.02a50.616,50.616,0,0,0-.607,16.4l-8.974,7.379a.954.954,0,0,0-.288,1.072l4.862,13.071a.956.956,0,0,0,.918.623l11.617-.281a50.64,50.64,0,0,0,11.175,12.017l-1.128,11.573a.951.951,0,0,0,.554.96l12.676,5.806a.953.953,0,0,0,1.087-.21l8.022-8.417a50.663,50.663,0,0,0,16.4.6l7.379,8.974a.958.958,0,0,0,1.072.29l13.071-4.862a.96.96,0,0,0,.623-.92l-.281-11.617a50.637,50.637,0,0,0,12.017-11.175l11.571,1.128a.956.956,0,0,0,.962-.552l5.795-12.676a.955.955,0,0,0-.208-1.086l-8.419-8.02a50.627,50.627,0,0,0,.607-16.4l8.974-7.381a.956.956,0,0,0,.29-1.07l-4.864-13.073a.953.953,0,0,0-.918-.621l-11.616.279a50.663,50.663,0,0,0-11.175-12.015l1.128-11.573a.957.957,0,0,0-.554-.962l-12.676-5.8a.953.953,0,0,0-1.086.21l-8.022,8.417a50.616,50.616,0,0,0-16.4-.6l-7.379-8.976a.954.954,0,0,0-1.072-.288l-13.071,4.862a.958.958,0,0,0-.623.918l.281,11.617a50.6,50.6,0,0,0-12.015,11.176l-11.573-1.128a.955.955,0,0,0-.962.543Z" transform="translate(-1068.845 -490.118)" fill="url(#linear-gradient-38)"/>
    <path id="Trazado_122446" data-name="Trazado 122446" d="M2028.884,1329.641a13.505,13.505,0,1,1,1,1.709A13.505,13.505,0,0,1,2028.884,1329.641Zm22.242-10.917a11.4,11.4,0,0,0-.838-1.429,11.264,11.264,0,1,0,.838,1.429Z" transform="translate(-1278.584 -699.765)" fill="#7d97f4"/>
    <path id="Trazado_122447" data-name="Trazado 122447" d="M1919.7,1245.774a34.727,34.727,0,0,1-1.375-3.194h0a34.425,34.425,0,0,1-1.811-7.062.556.556,0,1,1,1.1-.159,33.129,33.129,0,0,0,44.3,26.308q1.608-.6,3.129-1.347a33.1,33.1,0,1,0-40.5-50.372.553.553,0,1,1-.86-.7,34.212,34.212,0,1,1,41.861,52.063,34.662,34.662,0,0,1-3.234,1.393A34.249,34.249,0,0,1,1919.7,1245.774Z" transform="translate(-1187.693 -606.625)" fill="#7d97f4"/>
    <path id="Trazado_122448" data-name="Trazado 122448" d="M1450.19,877.565a.625.625,0,0,1,.138-.735q.585-.543,1.19-1.048a.625.625,0,1,1,.808.954q-.587.5-1.152,1.014a.625.625,0,0,1-.882-.036A.615.615,0,0,1,1450.19,877.565Z" transform="translate(-805.769 -343.916)" fill="url(#linear-gradient-39)"/>
    <path id="Trazado_122449" data-name="Trazado 122449" d="M1470.542,833.188a.627.627,0,0,1,.2-.784c.875-.625,1.787-1.219,2.716-1.767a.625.625,0,1,1,.641,1.072c-.895.532-1.778,1.108-2.624,1.713a.628.628,0,0,1-.873-.147A.6.6,0,0,1,1470.542,833.188Zm5.467-3.26h0a.623.623,0,0,1,.286-.835c.795-.389,1.615-.757,2.439-1.086l.52-.208a.625.625,0,0,1,.458,1.163l-.507.2c-.8.326-1.592.683-2.354,1.059a.625.625,0,0,1-.846-.29Zm5.922-2.323a.658.658,0,0,1-.038-.1.623.623,0,0,1,.418-.777c1.029-.311,2.083-.583,3.131-.808a.625.625,0,1,1,.261,1.222c-1.016.217-2.035.48-3.031.781a.623.623,0,0,1-.741-.32Zm6.218-1.329a.643.643,0,0,1-.058-.2.625.625,0,0,1,.543-.7c1.067-.138,2.15-.232,3.222-.279a.625.625,0,1,1,.056,1.248c-1.038.047-2.086.138-3.118.272a.63.63,0,0,1-.645-.339Zm6.354-.29a.607.607,0,0,1-.062-.3.623.623,0,0,1,.647-.6c1.075.04,2.16.125,3.225.253a.625.625,0,1,1-.148,1.241c-1.032-.125-2.083-.207-3.124-.246a.625.625,0,0,1-.538-.344Zm6.318.76a.625.625,0,0,1,.686-.887c1.052.215,2.108.478,3.14.779a.625.625,0,1,1-.349,1.2c-1-.292-2.023-.543-3.041-.753a.623.623,0,0,1-.443-.331Zm6.108,1.782a.625.625,0,0,1,.784-.858c1,.384,2,.813,2.972,1.278a.625.625,0,0,1-.543,1.126c-.938-.451-1.9-.867-2.877-1.239a.62.62,0,0,1-.335-.3Zm5.737,2.751a.618.618,0,0,1,.02-.59.625.625,0,0,1,.855-.225c.929.543,1.845,1.13,2.716,1.744a.628.628,0,0,1-.724,1.025c-.849-.6-1.737-1.164-2.637-1.69a.612.612,0,0,1-.23-.259Zm19.179,34.477a.6.6,0,0,1-.063-.292c.027-1.039.013-2.092-.045-3.133a.625.625,0,1,1,1.248-.069c.06,1.074.076,2.162.045,3.236a.625.625,0,0,1-1.184.257Zm-13.969-30.83a.625.625,0,0,1,.96-.755c.826.685,1.63,1.414,2.4,2.173a.625.625,0,1,1-.875.891c-.743-.724-1.523-1.432-2.325-2.1a.6.6,0,0,1-.159-.206Zm13.614,24.479a.557.557,0,0,1-.058-.181c-.145-1.029-.333-2.066-.562-3.078a.625.625,0,0,1,1.219-.275c.235,1.049.431,2.121.579,3.184a.625.625,0,0,1-1.179.362Zm-9.074-20.028a.625.625,0,0,1,1.034-.685c.7.815,1.38,1.666,2.012,2.535a.625.625,0,0,1-1.01.737c-.61-.838-1.268-1.662-1.948-2.452a.76.76,0,0,1-.087-.136Zm7.676,13.82a.945.945,0,0,1-.036-.089c-.308-.989-.663-1.981-1.056-2.95a.625.625,0,0,1,1.159-.469c.4,1,.772,2.025,1.087,3.046a.625.625,0,0,1-1.157.462Zm-3.93-8.692a.625.625,0,0,1,1.087-.6c.56.918,1.086,1.869,1.568,2.828h0a.625.625,0,1,1-1.119.556c-.467-.927-.978-1.849-1.519-2.738a.257.257,0,0,1-.013-.033Z" transform="translate(-822.435 -302.523)" fill="url(#linear-gradient-40)"/>
    <path id="Trazado_122450" data-name="Trazado 122450" d="M1806.716,1064.963a.624.624,0,0,1-.056-.362c.076-.505.141-1.012.2-1.523a.625.625,0,1,1,1.242.139c-.06.525-.129,1.05-.206,1.572a.625.625,0,0,1-1.179.181Z" transform="translate(-1097.735 -496.963)" fill="url(#linear-gradient-41)"/>
    <path id="Trazado_122451" data-name="Trazado 122451" d="M1719,1210.443a.625.625,0,0,1,.2-.784q.626-.445,1.235-.905a.625.625,0,1,1,.762.99q-.625.484-1.268.944a.625.625,0,0,1-.871-.149A.7.7,0,0,1,1719,1210.443Z" transform="translate(-1025.905 -616.607)" fill="url(#linear-gradient-42)"/>
    <path id="Trazado_122452" data-name="Trazado 122452" d="M1384.841,1044.2c-.273-.554-.543-1.121-.782-1.686a.625.625,0,0,1,1.146-.5c.409.94.862,1.874,1.342,2.774a.609.609,0,0,1-.255.846.625.625,0,0,1-.846-.255Q1385.134,1044.793,1384.841,1044.2Zm2.173,3.861a.625.625,0,0,1,1.087-.612c.543.858,1.146,1.706,1.769,2.521a.625.625,0,1,1-.992.759c-.643-.842-1.259-1.719-1.827-2.606a.417.417,0,0,1-.029-.062Zm-4.083-8.44a.5.5,0,0,1-.031-.073c-.346-1-.652-2.03-.905-3.051a.625.625,0,0,1,1.21-.31c.253.989.543,1.992.884,2.955a.625.625,0,0,1-1.15.478Zm7.884,13.413a.625.625,0,0,1,1.023-.693c.686.759,1.413,1.5,2.155,2.2a.625.625,0,1,1-.856.905c-.768-.724-1.516-1.488-2.225-2.273a.565.565,0,0,1-.089-.139Zm-9.431-19.477a.614.614,0,0,1-.054-.181c-.181-1.045-.315-2.106-.409-3.158a.625.625,0,1,1,1.246-.109c.089,1.016.223,2.045.395,3.057a.625.625,0,0,1-1.177.382Zm13.992,23.766a.625.625,0,0,1,.951-.764c.8.638,1.63,1.251,2.483,1.825a.625.625,0,0,1-.7,1.036c-.878-.592-1.74-1.228-2.564-1.885A.638.638,0,0,1,1395.376,1057.317Zm-14.541-30a.618.618,0,0,1-.065-.272c0-1.052.031-2.122.109-3.182a.626.626,0,0,1,1.248.092c-.078,1.027-.112,2.063-.107,3.078a.625.625,0,0,1-1.184.279Zm19.729,33.5a.625.625,0,0,1,.867-.822c.889.5,1.811.974,2.743,1.4a.625.625,0,1,1-.525,1.135c-.96-.444-1.912-.931-2.832-1.449a.621.621,0,0,1-.253-.263Zm5.682,2.622a.625.625,0,0,1,.777-.862c.956.362,1.943.672,2.932.947a.625.625,0,1,1-.335,1.2c-1.021-.286-2.041-.614-3.03-.978a.627.627,0,0,1-.344-.306Zm6.03,1.682a.625.625,0,0,1,.679-.889c1.005.194,2.03.351,3.046.464a.625.625,0,0,1-.136,1.242c-1.052-.118-2.11-.279-3.147-.48a.622.622,0,0,1-.442-.331Zm6.222.688a.614.614,0,0,1-.063-.293.623.623,0,0,1,.643-.6c1.021.029,2.057.018,3.078-.036a.625.625,0,1,1,.065,1.248c-1.057.056-2.129.067-3.185.036a.625.625,0,0,1-.538-.344Zm6.253-.324a.683.683,0,0,1-.06-.194.626.626,0,0,1,.543-.7c1.01-.134,2.032-.315,3.033-.532a.625.625,0,1,1,.266,1.221c-1.036.226-2.09.411-3.135.543a.621.621,0,0,1-.648-.33Zm6.114-1.333a.587.587,0,0,1-.036-.094.625.625,0,0,1,.415-.781c.98-.3,1.958-.639,2.91-1.014a.625.625,0,1,1,.458,1.162c-.983.386-1.992.739-3,1.047a.625.625,0,0,1-.743-.315Zm5.824-2.3a.623.623,0,0,1,.284-.835l.072-.036c.906-.442,1.786-.923,2.642-1.431a.625.625,0,1,1,.637,1.076c-.884.523-1.811,1.019-2.727,1.476l-.073.036a.625.625,0,0,1-.837-.281Z" transform="translate(-748.972 -464.826)" fill="url(#linear-gradient-40)"/>
    <path id="Trazado_122453" data-name="Trazado 122453" d="M1383.453,999.85a.633.633,0,0,1-.056-.373c.083-.522.181-1.043.279-1.561a.625.625,0,0,1,1.226.244c-.1.5-.181,1.007-.27,1.512a.625.625,0,0,1-1.179.181Z" transform="translate(-751.117 -443.643)" fill="url(#linear-gradient-44)"/>
    <path id="Trazado_122454" data-name="Trazado 122454" d="M1439.506,900.715a.465.465,0,0,0,.1.531l4.1,3.906a24.666,24.666,0,0,0-.3,7.988l-4.371,3.594a.465.465,0,0,0-.141.521l2.369,6.367a.469.469,0,0,0,.447.3l5.659-.136a24.718,24.718,0,0,0,5.444,5.853l-.543,5.635a.466.466,0,0,0,.268.469l6.179,2.827a.465.465,0,0,0,.531-.1l3.906-4.1a24.671,24.671,0,0,0,7.988.3l3.595,4.371a.462.462,0,0,0,.521.139l6.369-2.367a.469.469,0,0,0,.3-.449l-.136-5.657a24.714,24.714,0,0,0,5.853-5.443l5.637.543a.463.463,0,0,0,.467-.27l2.827-6.177a.465.465,0,0,0-.1-.531l-4.105-3.891a24.667,24.667,0,0,0,.3-7.988l4.372-3.6a.465.465,0,0,0,.141-.521l-2.369-6.369a.468.468,0,0,0-.447-.3l-5.659.136a24.715,24.715,0,0,0-5.447-5.854l.543-5.635a.465.465,0,0,0-.268-.469l-6.179-2.827a.465.465,0,0,0-.531.1l-3.888,4.1a24.672,24.672,0,0,0-7.988-.3l-3.6-4.371a.465.465,0,0,0-.522-.141l-6.36,2.369a.469.469,0,0,0-.3.447l.136,5.659a24.717,24.717,0,0,0-5.852,5.443l-5.635-.543a.465.465,0,0,0-.469.268Z" transform="translate(-796.551 -348.204)" fill="url(#linear-gradient-45)"/>
    <path id="Trazado_122455" data-name="Trazado 122455" d="M1563.886,1014.669a6.668,6.668,0,1,1,.5.844h0A6.876,6.876,0,0,1,1563.886,1014.669Zm1.01.489Zm9.82-5.807a5.407,5.407,0,1,0-9.306,5.452h0a5.407,5.407,0,0,0,9.306-5.452Z" transform="translate(-898.365 -449.899)" fill="#7d97f4"/>
    <path id="Trazado_122456" data-name="Trazado 122456" d="M1509.23,972.937a17.355,17.355,0,0,1-.692-1.606,17.055,17.055,0,0,1-.871-3.328l-.027-.181a.623.623,0,0,1,.342-.65.607.607,0,0,1,.181-.058.625.625,0,0,1,.708.529,15.773,15.773,0,0,0,.833,3.26h0a.175.175,0,0,0,.02.056,15.767,15.767,0,0,0,20.254,9.224,16.006,16.006,0,0,0,1.49-.641,15.769,15.769,0,1,0-19.293-24,.625.625,0,1,1-.976-.78,17.006,17.006,0,1,1,20.823,25.9q-.782.384-1.608.692a17.022,17.022,0,0,1-21.187-8.41Z" transform="translate(-852.862 -403.513)" fill="#7d97f4"/>
    <path id="Trazado_122457" data-name="Trazado 122457" d="M2457.467,1068.076a.6.6,0,0,1,.132-.706c.371-.342.76-.679,1.157-1a.6.6,0,1,1,.761.927c-.378.312-.751.634-1.106.962a.6.6,0,0,1-.847-.036A.587.587,0,0,1,2457.467,1068.076Z" transform="translate(-1630.645 -499.997)" fill="url(#linear-gradient-46)"/>
    <path id="Trazado_122458" data-name="Trazado 122458" d="M2477.253,1037.494a.6.6,0,0,1,.212-.768,28.025,28.025,0,0,1,2.695-1.536.6.6,0,0,1,.8.27h0a.6.6,0,0,1-.27.8,26.778,26.778,0,0,0-2.578,1.469.6.6,0,0,1-.83-.181c-.012-.018-.022-.037-.032-.056Zm5.424-2.7a.564.564,0,0,1-.025-.058.6.6,0,0,1,.362-.771,28.045,28.045,0,0,1,2.964-.905.6.6,0,1,1,.284,1.164,26.909,26.909,0,0,0-2.836.865A.6.6,0,0,1,2482.677,1034.792Zm5.882-1.449a.537.537,0,0,1-.056-.181.6.6,0,0,1,.518-.67,27.569,27.569,0,0,1,3.095-.223.6.6,0,1,1,.018,1.2,26.512,26.512,0,0,0-2.961.214.6.6,0,0,1-.606-.333Zm6.059-.092a.609.609,0,0,1-.058-.322.6.6,0,0,1,.656-.543,28.266,28.266,0,0,1,3.064.474.6.6,0,0,1-.25,1.173,26.662,26.662,0,0,0-2.932-.453.605.605,0,0,1-.48-.324Zm5.927,1.268a.6.6,0,0,1,.725-.835,28.537,28.537,0,0,1,2.883,1.141.6.6,0,0,1-.5,1.086,26.394,26.394,0,0,0-2.76-1.086.6.6,0,0,1-.344-.308Zm5.5,2.535a.6.6,0,0,1,.849-.777,28.013,28.013,0,0,1,2.559,1.747.6.6,0,0,1-.725.951,26.871,26.871,0,0,0-2.448-1.673A.6.6,0,0,1,2506.044,1037.054Zm13.069,22.679a.59.59,0,0,1-.062-.254,26.048,26.048,0,0,0-.223-2.957.6.6,0,0,1,1.19-.158,27.14,27.14,0,0,1,.232,3.093.6.6,0,0,1-1.137.275Zm-8.274-18.989a.6.6,0,0,1,.954-.7,27.84,27.84,0,0,1,2.106,2.276.6.6,0,1,1-.924.762,26.966,26.966,0,0,0-2.015-2.173A.54.54,0,0,1,2510.839,1040.744Zm7.475,12.984a.55.55,0,0,1-.045-.121,26.439,26.439,0,0,0-.876-2.836.6.6,0,0,1,1.126-.417,28.636,28.636,0,0,1,.905,2.963.6.6,0,0,1-1.119.411Zm-3.622-8.314a.6.6,0,0,1,1.039-.592,27.453,27.453,0,0,1,1.545,2.689h0a.6.6,0,1,1-1.074.543,26.061,26.061,0,0,0-1.478-2.571.684.684,0,0,1-.024-.069Z" transform="translate(-1646.849 -472.188)" fill="url(#linear-gradient-47)"/>
    <path id="Trazado_122459" data-name="Trazado 122459" d="M2706.721,1198.558a.611.611,0,0,1-.054-.362c.074-.485.134-.974.181-1.449a.6.6,0,0,1,1.2.114c-.049.5-.112,1.014-.181,1.519a.6.6,0,0,1-1.132.181Z" transform="translate(-1834.763 -606.462)" fill="url(#linear-gradient-48)"/>
    <path id="Trazado_122460" data-name="Trazado 122460" d="M2643.57,1302.045a.6.6,0,0,1,.2-.759c.4-.272.8-.563,1.184-.862a.6.6,0,1,1,.724.949c-.407.313-.824.617-1.239.905a.6.6,0,0,1-.833-.156A.564.564,0,0,1,2643.57,1302.045Z" transform="translate(-1783.047 -691.654)" fill="url(#linear-gradient-49)"/>
    <path id="Trazado_122461" data-name="Trazado 122461" d="M2411.783,1191.253c-.192-.387-.373-.782-.543-1.181a.6.6,0,0,1,.31-.789.594.594,0,0,1,.79.31,27.267,27.267,0,0,0,1.311,2.608.606.606,0,0,1-.223.818.6.6,0,0,1-.818-.221C2412.316,1192.283,2412.039,1191.765,2411.783,1191.253Zm-1.577-3.953a.653.653,0,0,1-.036-.087,28.165,28.165,0,0,1-.746-2.959.6.6,0,0,1,1.177-.228,26.641,26.641,0,0,0,.725,2.83.6.6,0,0,1-1.11.444Zm4,7.968a.6.6,0,0,1,1.023-.619,26.289,26.289,0,0,0,1.847,2.258.6.6,0,1,1-.883.811,27.7,27.7,0,0,1-1.933-2.354.6.6,0,0,1-.054-.1Zm-5.141-13.82a.613.613,0,0,1-.06-.215,27.724,27.724,0,0,1-.076-3.051.6.6,0,0,1,1.2.036,26.2,26.2,0,0,0,.072,2.917.6.6,0,0,1-1.135.313Zm9.166,18.215a.6.6,0,0,1,.933-.724,26.813,26.813,0,0,0,2.3,1.8.6.6,0,1,1-.685.983,27.625,27.625,0,0,1-2.4-1.876.615.615,0,0,1-.143-.188Zm4.889,3.4a.6.6,0,0,1,.824-.793,26.59,26.59,0,0,0,2.637,1.253.6.6,0,1,1-.456,1.11,28.385,28.385,0,0,1-2.755-1.309.6.6,0,0,1-.25-.27Zm5.514,2.258a.6.6,0,0,1,.7-.84,26.965,26.965,0,0,0,2.845.65.6.6,0,1,1-.2,1.181,27.538,27.538,0,0,1-2.975-.679.592.592,0,0,1-.373-.321Zm5.874,1.005a.6.6,0,0,1,.574-.862,27.1,27.1,0,0,0,2.919.011.6.6,0,1,1,.062,1.2,27.6,27.6,0,0,1-3.051-.011.6.6,0,0,1-.5-.344Zm5.954-.308a.591.591,0,0,1-.052-.169.6.6,0,0,1,.494-.688,26.692,26.692,0,0,0,2.848-.632.6.6,0,0,1,.324,1.153,27.265,27.265,0,0,1-2.979.661.6.6,0,0,1-.636-.335Zm5.739-1.608c0-.013-.013-.025-.018-.04a.6.6,0,0,1,.331-.781l.143-.058c.572-.233,1.142-.491,1.693-.762.273-.134.543-.273.811-.415a.6.6,0,0,1,.812.246.585.585,0,0,1-.246.811q-.419.223-.848.435c-.576.282-1.17.543-1.768.795l-.148.06a.6.6,0,0,1-.762-.3Z" transform="translate(-1590.94 -591.2)" fill="url(#linear-gradient-50)"/>
    <path id="Trazado_122462" data-name="Trazado 122462" d="M2410.476,1155.152a.6.6,0,0,1-.054-.349c.07-.5.157-1,.257-1.508a.6.6,0,1,1,1.177.234c-.1.483-.181.97-.248,1.449a.6.6,0,0,1-1.132.181Z" transform="translate(-1592.164 -570.901)" fill="url(#linear-gradient-51)"/>
    <path id="Trazado_122463" data-name="Trazado 122463" d="M2450.885,1086.114a.324.324,0,0,0,.071.362l2.866,2.733a17.262,17.262,0,0,0-.206,5.585l-3.055,2.513a.324.324,0,0,0-.1.362l1.657,4.453a.324.324,0,0,0,.312.21l3.957-.094a17.269,17.269,0,0,0,3.8,4.093l-.384,3.94a.324.324,0,0,0,.181.328l4.317,1.975a.326.326,0,0,0,.362-.071l2.733-2.867a17.253,17.253,0,0,0,5.584.207l2.513,3.057a.322.322,0,0,0,.362.1l4.451-1.657a.322.322,0,0,0,.212-.312l-.094-3.957a17.211,17.211,0,0,0,4.091-3.8l3.942.386a.329.329,0,0,0,.328-.181l1.976-4.319a.326.326,0,0,0-.071-.362l-2.847-2.743a17.254,17.254,0,0,0,.207-5.585l3.053-2.513a.322.322,0,0,0,.1-.362l-1.657-4.451a.322.322,0,0,0-.311-.212l-3.957.094a17.208,17.208,0,0,0-3.8-4.091l.386-3.942a.325.325,0,0,0-.181-.326l-4.319-1.978a.326.326,0,0,0-.371.071l-2.733,2.867a17.2,17.2,0,0,0-5.584-.2l-2.514-3.057a.324.324,0,0,0-.362-.1l-4.451,1.657a.326.326,0,0,0-.212.313l.094,3.955a17.281,17.281,0,0,0-4.091,3.8l-3.942-.384a.325.325,0,0,0-.328.181Z" transform="translate(-1624.943 -504.921)" fill="url(#linear-gradient-52)"/>
    <path id="Trazado_122464" data-name="Trazado 122464" d="M2536.923,1165.085a4.828,4.828,0,1,1,.362.618h0A4.58,4.58,0,0,1,2536.923,1165.085Zm7.579-3.707a3.545,3.545,0,0,0-.272-.462,3.622,3.622,0,1,0-5.958,4.105h0a3.622,3.622,0,0,0,6.229-3.643Z" transform="translate(-1695.358 -575.257)" fill="#7d97f4"/>
    <path id="Trazado_122465" data-name="Trazado 122465" d="M2498.756,1135.894q-.271-.551-.485-1.126h0a12.107,12.107,0,0,1-.61-2.318.081.081,0,0,0,0-.022l-.022-.147a.6.6,0,0,1,1.186-.181,11.012,11.012,0,0,0,.574,2.24c.009.024.018.047.025.071a10.865,10.865,0,0,0,13.762,6.39l.181-.069a10.188,10.188,0,0,0,1.016-.436,10.865,10.865,0,0,0-8.589-19.919,10.469,10.469,0,0,0-1.012.436,10.8,10.8,0,0,0-3.676,2.95.587.587,0,0,1-.2.163.6.6,0,0,1-.733-.905,12.029,12.029,0,0,1,4.089-3.279,11.783,11.783,0,0,1,1.119-.482,12.06,12.06,0,0,1,9.525,22.121,11.61,11.61,0,0,1-1.126.485A12.079,12.079,0,0,1,2498.756,1135.894Z" transform="translate(-1663.587 -542.816)" fill="#7d97f4"/>
  </g>
</svg>
