<svg xmlns="http://www.w3.org/2000/svg" width="96" height="96" viewBox="0 0 96 96">
  <g id="Grupo_56297" data-name="Grupo 56297" transform="translate(-336 -390)">
    <g id="Elipse_4085" data-name="Elipse 4085" transform="translate(336 390)" fill="#472ea6" stroke="#2cffe2" stroke-width="3">
      <circle cx="48" cy="48" r="48" stroke="none"/>
      <circle cx="48" cy="48" r="46.5" fill="none"/>
    </g>
    <g id="market" transform="translate(335.885 360)">
      <path id="Trazado_117727" data-name="Trazado 117727" d="M63.7,48.568A1.941,1.941,0,0,0,62.329,48H55.646a1.137,1.137,0,0,0-.8,1.94l2.136,2.136L40.4,68.657,32.911,61.17a2.274,2.274,0,0,0-3.215,0L13.781,77.085A2.273,2.273,0,1,0,17,80.3L31.3,65.993l7.487,7.487a2.274,2.274,0,0,0,3.215,0L60.193,55.291l2.136,2.136a1.137,1.137,0,0,0,1.941-.8V49.94a1.941,1.941,0,0,0-.568-1.372Z" transform="translate(0)" fill="#5f78be"/>
      <g id="Grupo_56283" data-name="Grupo 56283" transform="translate(13.115 93.47)">
        <g id="Grupo_56281" data-name="Grupo 56281">
          <path id="Trazado_117728" data-name="Trazado 117728" d="M13.116,381.641H29.031V370.273A2.273,2.273,0,0,0,26.757,368H15.39a2.273,2.273,0,0,0-2.274,2.274Z" transform="translate(-13.116 -368)" fill="#f5871e"/>
        </g>
        <g id="Grupo_56282" data-name="Grupo 56282">
          <path id="Trazado_117729" data-name="Trazado 117729" d="M13.116,381.641H24.484V370.273A2.273,2.273,0,0,0,22.21,368H15.39a2.273,2.273,0,0,0-2.274,2.274Z" transform="translate(-13.116 -368)" fill="#fabe19"/>
        </g>
      </g>
      <g id="Grupo_56286" data-name="Grupo 56286" transform="translate(29.03 84.376)">
        <g id="Grupo_56284" data-name="Grupo 56284" transform="translate(0 0)">
          <path id="Trazado_117730" data-name="Trazado 117730" d="M125.116,326.735h15.915V306.273A2.273,2.273,0,0,0,138.757,304H127.389a2.273,2.273,0,0,0-2.274,2.274Z" transform="translate(-125.116 -304)" fill="#5f78be"/>
        </g>
        <g id="Grupo_56285" data-name="Grupo 56285" transform="translate(0 0)">
          <path id="Trazado_117731" data-name="Trazado 117731" d="M125.116,326.735h11.368V306.273A2.273,2.273,0,0,0,134.21,304h-6.821a2.273,2.273,0,0,0-2.274,2.274Z" transform="translate(-125.116 -304)" fill="#73cddc"/>
        </g>
      </g>
      <g id="Grupo_56289" data-name="Grupo 56289" transform="translate(44.944 75.282)">
        <g id="Grupo_56287" data-name="Grupo 56287">
          <path id="Trazado_117732" data-name="Trazado 117732" d="M237.116,271.829h15.915V242.273A2.273,2.273,0,0,0,250.757,240H239.389a2.273,2.273,0,0,0-2.273,2.273Z" transform="translate(-237.116 -240)" fill="#f5871e"/>
        </g>
        <g id="Grupo_56288" data-name="Grupo 56288">
          <path id="Trazado_117733" data-name="Trazado 117733" d="M237.116,271.829h11.368V242.273A2.273,2.273,0,0,0,246.21,240h-6.821a2.273,2.273,0,0,0-2.273,2.273Z" transform="translate(-237.116 -240)" fill="#fabe19"/>
        </g>
      </g>
      <g id="Grupo_56292" data-name="Grupo 56292" transform="translate(60.859 86.65)">
        <g id="Grupo_56290" data-name="Grupo 56290">
          <path id="Trazado_117734" data-name="Trazado 117734" d="M349.116,340.462h15.915V322.273A2.273,2.273,0,0,0,362.757,320H351.389a2.273,2.273,0,0,0-2.273,2.274Z" transform="translate(-349.116 -320)" fill="#5f78be"/>
        </g>
        <g id="Grupo_56291" data-name="Grupo 56291">
          <path id="Trazado_117735" data-name="Trazado 117735" d="M349.116,340.462h11.368V322.273A2.273,2.273,0,0,0,358.21,320h-6.821a2.273,2.273,0,0,0-2.273,2.274Z" transform="translate(-349.116 -320)" fill="#73cddc"/>
        </g>
      </g>
      <g id="Grupo_56296" data-name="Grupo 56296" transform="translate(53.219 55.957)">
        <g id="Grupo_56293" data-name="Grupo 56293" transform="translate(0)">
          <path id="Trazado_117736" data-name="Trazado 117736" d="M310.941,104.659a1.3,1.3,0,0,0-2.266,0L295.562,127.7a1.639,1.639,0,0,0,1.424,2.45h25.643a1.639,1.639,0,0,0,1.425-2.45Z" transform="translate(-295.347 -104)" fill="#f06423"/>
        </g>
        <g id="Grupo_56294" data-name="Grupo 56294" transform="translate(12.756 5.873)">
          <path id="Trazado_117737" data-name="Trazado 117737" d="M386.821,157.079a1.705,1.705,0,0,1-1.705-1.705v-8.336a1.705,1.705,0,1,1,3.41,0v8.336A1.705,1.705,0,0,1,386.821,157.079Z" transform="translate(-385.116 -145.333)" fill="#d7e6f0"/>
        </g>
        <g id="Grupo_56295" data-name="Grupo 56295" transform="translate(12.187 18.946)">
          <circle id="Elipse_4084" data-name="Elipse 4084" cx="2.274" cy="2.274" r="2.274" fill="#d7e6f0"/>
        </g>
      </g>
    </g>
  </g>
</svg>
